<svg xmlns="http://www.w3.org/2000/svg" viewBox="0 0 200 200"><defs><style>.cls-1{fill:#009b43;}.cls-2{fill:#ffcf44;}.cls-3{fill:#d9251d;}.cls-4{fill:none;}</style></defs><title>02-acre-circle</title><g id="circle"><path class="cls-1" d="M30.34,170.71A100,100,0,1,0,171.76,29.29Z"/><path class="cls-2" d="M101.05,0A100,100,0,0,0,30.34,170.71L171.76,29.29A99.68,99.68,0,0,0,101.05,0Z"/><path class="cls-3" d="M61.53,31.11,67.2,48.54a1.65,1.65,0,0,0,1.58,1.15H87a1.66,1.66,0,0,1,1,3L73.23,63.39a1.65,1.65,0,0,0-.61,1.85l5.62,17.29a1.66,1.66,0,0,1-2.56,1.86L61,73.71a1.65,1.65,0,0,0-2,0L44.32,84.39a1.66,1.66,0,0,1-2.56-1.86l5.62-17.29a1.66,1.66,0,0,0-.61-1.85L32.06,52.7a1.67,1.67,0,0,1,1-3H51.22a1.66,1.66,0,0,0,1.58-1.14l5.67-17.44a1.61,1.61,0,0,1,3.06,0"/><circle class="cls-4" cx="60" cy="60.11" r="30"/></g></svg>