<svg xmlns="http://www.w3.org/2000/svg" viewBox="0 0 200 200"><defs><style>.cls-1{fill:#009b43;}.cls-2{fill:#ffcf44;}.cls-3{fill:#d9251d;}.cls-4{fill:none;}</style></defs><title>02-acre-circle</title><g id="circle"><path class="cls-1" d="M29.29,170.71A100,100,0,1,0,170.71,29.29Z"/><path class="cls-2" d="M100,0A100,100,0,0,0,29.29,170.71L170.71,29.29A99.68,99.68,0,0,0,100,0Z"/><path class="cls-3" d="M60.48,31.11l5.67,17.43a1.65,1.65,0,0,0,1.58,1.15H85.91a1.66,1.66,0,0,1,1,3L72.18,63.39a1.65,1.65,0,0,0-.61,1.85l5.62,17.29a1.66,1.66,0,0,1-2.56,1.86L59.93,73.71a1.65,1.65,0,0,0-2,0L43.27,84.39a1.66,1.66,0,0,1-2.56-1.86l5.62-17.29a1.66,1.66,0,0,0-.61-1.85L31,52.7a1.67,1.67,0,0,1,1-3H50.17a1.66,1.66,0,0,0,1.58-1.14l5.67-17.44a1.61,1.61,0,0,1,3.06,0"/><circle class="cls-4" cx="58.95" cy="60.11" r="30"/></g></svg>