<svg xmlns="http://www.w3.org/2000/svg" viewBox="0 0 200 200"><defs><style>.cls-1{fill:#009b43;}.cls-2{fill:#ffcf44;}.cls-3{fill:#213572;}.cls-4{fill:#f0f0f0;}</style></defs><title>04-amapa-circle</title><g id="circle"><path class="cls-1" d="M67.91,71.67a8,8,0,0,1-5.66-2.35L25.84,32.91a100,100,0,0,0,0,134.18l36.41-36.41a8,8,0,0,1,5.66-2.35h128a100.4,100.4,0,0,0,0-56.66Z"/><path class="cls-2" d="M66.39,140.68,32.91,174.16A99.67,99.67,0,0,0,100,200h0a100,100,0,0,0,92.37-61.67H72.05A8,8,0,0,0,66.39,140.68Z"/><path class="cls-3" d="M66.39,59.32a8,8,0,0,0,5.66,2.35H192.38A100,100,0,0,0,32.91,25.84Z"/><path class="cls-4" d="M66.39,59.32,32.91,25.84q-3.7,3.36-7.07,7.07L62.25,69.32a8,8,0,0,0,5.66,2.35h128a97.08,97.08,0,0,0-3.54-10H72.05A8,8,0,0,1,66.39,59.32Z"/><path class="cls-4" d="M32.91,174.16l33.48-33.48a8,8,0,0,1,5.66-2.35H192.38a97.08,97.08,0,0,0,3.54-10h-128a8,8,0,0,0-5.66,2.35L25.84,167.09Q29.2,170.8,32.91,174.16Z"/><path class="cls-4" d="M39.19,77.83,19.85,97.17a4,4,0,0,0,0,5.66l19.34,19.34a4,4,0,0,0,5.66,0l19.34-19.34a4,4,0,0,0,0-5.66L44.85,77.83A4,4,0,0,0,39.19,77.83Z"/><rect class="cls-1" x="34.34" y="92.32" width="15.36" height="15.36" rx="2" transform="translate(-58.4 59.01) rotate(-45)"/></g></svg>