<svg xmlns="http://www.w3.org/2000/svg" viewBox="0 0 200 200"><defs><style>.cls-1{fill:#f0f0f0;}.cls-2{fill:#d9251d;}.cls-3{fill:#213572;}.cls-4{fill:none;}</style></defs><title>05-amazonas-circle</title><g id="circle"><path class="cls-1" d="M194.3,66.67A100,100,0,0,0,100,0V66.67Z"/><path class="cls-2" d="M100,66.67H5.7a100.3,100.3,0,0,0,0,66.66H194.3A99.66,99.66,0,0,0,200,100h0a99.66,99.66,0,0,0-5.7-33.33Z"/><path class="cls-1" d="M194.3,133.33H5.7a100,100,0,0,0,188.6,0Z"/><path class="cls-3" d="M5.7,66.67H100V0A100,100,0,0,0,5.7,66.67Z"/><path class="cls-1" d="M45.64,21.27,48,28.54a.7.7,0,0,0,.66.48h7.57a.69.69,0,0,1,.41,1.25l-6.13,4.45a.7.7,0,0,0-.25.77L52.6,42.7a.69.69,0,0,1-1.07.77L45.41,39a.69.69,0,0,0-.82,0l-6.12,4.45a.69.69,0,0,1-1.07-.77l2.34-7.21a.7.7,0,0,0-.25-.77l-6.13-4.45A.69.69,0,0,1,33.77,29h7.57a.7.7,0,0,0,.66-.48l2.36-7.27a.67.67,0,0,1,1.28,0"/><circle class="cls-4" cx="45" cy="33.36" r="12.5"/><path class="cls-1" d="M80.64,21.27,83,28.54a.7.7,0,0,0,.66.48h7.57a.69.69,0,0,1,.41,1.25l-6.13,4.45a.7.7,0,0,0-.25.77L87.6,42.7a.69.69,0,0,1-1.07.77L80.41,39a.69.69,0,0,0-.82,0l-6.12,4.45a.69.69,0,0,1-1.07-.77l2.34-7.21a.7.7,0,0,0-.25-.77l-6.13-4.45A.69.69,0,0,1,68.77,29h7.57a.7.7,0,0,0,.66-.48l2.36-7.27a.67.67,0,0,1,1.28,0"/><circle class="cls-4" cx="80" cy="33.36" r="12.5"/></g></svg>