<svg xmlns="http://www.w3.org/2000/svg" viewBox="0 0 200 200"><defs><style>.cls-1{fill:#d9251d;}.cls-2{fill:#f0f0f0;}.cls-3{fill:#213572;}</style></defs><title>06-bahia-circle</title><g id="circle"><path class="cls-1" d="M0,100a99.54,99.54,0,0,0,13.38,50H186.62A99.54,99.54,0,0,0,200,100H0Z"/><path class="cls-2" d="M100,200a100,100,0,0,0,86.62-50H13.38A100,100,0,0,0,100,200Z"/><path class="cls-1" d="M186.62,50A100,100,0,0,0,100,0V50Z"/><path class="cls-2" d="M100,50v50H200a99.54,99.54,0,0,0-13.38-50Z"/><path class="cls-3" d="M100,50V0A100,100,0,0,0,0,100H100Z"/><path class="cls-2" d="M48.68,26.32,16.51,82a4.65,4.65,0,0,0,4,7H84.87a4.65,4.65,0,0,0,4-7L56.72,26.32a4.65,4.65,0,0,0-8,0L16.51,82a4.65,4.65,0,0,0,4,7H84.87a4.65,4.65,0,0,0,4-7L56.72,26.32A4.65,4.65,0,0,0,48.68,26.32Z"/></g></svg>