<svg xmlns="http://www.w3.org/2000/svg" viewBox="0 0 200 200"><defs><style>.cls-1{fill:#009b43;}.cls-2{fill:#ffcf44;}.cls-3{fill:#213572;}.cls-4{fill:#f0f0f0;}.cls-5{fill:none;}</style></defs><title>10-goias-circle</title><g id="circle"><path class="cls-1" d="M8.33,140H191.67A98.71,98.71,0,0,0,198,120H2A98.71,98.71,0,0,0,8.33,140Z"/><path class="cls-1" d="M100,60h91.67A99.46,99.46,0,0,0,180,40H100Z"/><path class="cls-1" d="M160,20A99.55,99.55,0,0,0,100,0V20Z"/><path class="cls-1" d="M40,180H160a100.48,100.48,0,0,0,20-20H20A100.48,100.48,0,0,0,40,180Z"/><path class="cls-1" d="M100,80v20H200a100.57,100.57,0,0,0-2-20Z"/><path class="cls-2" d="M0,100a100.57,100.57,0,0,0,2,20H198a100.57,100.57,0,0,0,2-20H0Z"/><path class="cls-2" d="M100,80h98a98.71,98.71,0,0,0-6.33-20H100Z"/><path class="cls-2" d="M100,40h80a100.48,100.48,0,0,0-20-20H100Z"/><path class="cls-2" d="M20,160H180a99.46,99.46,0,0,0,11.67-20H8.33A99.46,99.46,0,0,0,20,160Z"/><path class="cls-2" d="M100,200a99.55,99.55,0,0,0,60-20H40A99.55,99.55,0,0,0,100,200Z"/><path class="cls-3" d="M40,20A100.48,100.48,0,0,0,20,40,99.75,99.75,0,0,0,2,80a100.57,100.57,0,0,0-2,20H100V0A99.55,99.55,0,0,0,40,20Z"/><path class="cls-4" d="M49.21,35.14l2.61,8a.76.76,0,0,0,.73.53h8.39a.77.77,0,0,1,.45,1.39L54.6,50a.77.77,0,0,0-.27.86l2.59,8a.77.77,0,0,1-1.18.86L49,54.8a.75.75,0,0,0-.9,0l-6.79,4.93a.77.77,0,0,1-1.18-.86l2.59-8a.76.76,0,0,0-.28-.86L35.61,45.1a.77.77,0,0,1,.45-1.39h8.39a.77.77,0,0,0,.73-.53l2.61-8a.75.75,0,0,1,1.42,0"/><circle class="cls-5" cx="48.5" cy="48.52" r="13.85"/><path class="cls-4" d="M71.36,13,74,21a.75.75,0,0,0,.73.53H83.1A.77.77,0,0,1,83.55,23l-6.79,4.93a.77.77,0,0,0-.28.86l2.59,8a.76.76,0,0,1-1.18.85L71.1,32.64a.78.78,0,0,0-.9,0l-6.78,4.93a.77.77,0,0,1-1.19-.85l2.6-8a.77.77,0,0,0-.28-.86L57.76,23a.77.77,0,0,1,.45-1.39H66.6a.76.76,0,0,0,.73-.53L70,13a.74.74,0,0,1,1.41,0"/><circle class="cls-5" cx="70.65" cy="26.37" r="13.85"/><path class="cls-4" d="M71.36,57.29,74,65.34a.77.77,0,0,0,.73.53H83.1a.77.77,0,0,1,.45,1.39l-6.79,4.93a.76.76,0,0,0-.28.85l2.59,8a.77.77,0,0,1-1.18.86L71.1,77a.78.78,0,0,0-.9,0l-6.78,4.93A.77.77,0,0,1,62.23,81l2.6-8a.77.77,0,0,0-.28-.86l-6.79-4.93a.77.77,0,0,1,.45-1.39H66.6a.78.78,0,0,0,.73-.53L70,57.29a.74.74,0,0,1,1.41,0"/><circle class="cls-5" cx="70.65" cy="70.68" r="13.85"/><path class="cls-4" d="M27.05,57.29l2.62,8.05a.78.78,0,0,0,.73.53h8.39a.77.77,0,0,1,.45,1.39l-6.79,4.93a.76.76,0,0,0-.28.85l2.6,8a.77.77,0,0,1-1.19.86L26.8,77a.8.8,0,0,0-.91,0l-6.78,4.93A.77.77,0,0,1,17.93,81l2.59-8a.77.77,0,0,0-.28-.86l-6.79-4.93a.77.77,0,0,1,.45-1.39h8.39a.77.77,0,0,0,.73-.53l2.62-8.05a.74.74,0,0,1,1.41,0"/><circle class="cls-5" cx="26.35" cy="70.68" r="13.85"/></g></svg>