<svg xmlns="http://www.w3.org/2000/svg" viewBox="0 0 200 200"><defs><style>.cls-1{fill:#1d1d1b;}.cls-2{fill:#d9251d;}.cls-3{fill:#213572;}.cls-4{fill:#f0f0f0;}.cls-5{fill:none;}</style></defs><title>11-maranhao-circle</title><g id="circle"><path class="cls-1" d="M100,66.73h94.32A99.56,99.56,0,0,0,183.2,44.51H100Z"/><path class="cls-2" d="M100,88.89V95a5,5,0,0,1-5,5H0a99.41,99.41,0,0,0,.62,11.11H199.38a99.85,99.85,0,0,0,0-22.22Z"/><path class="cls-1" d="M16.84,155.56H183.16a99.91,99.91,0,0,0,11.14-22.23H5.7A99.91,99.91,0,0,0,16.84,155.56Z"/><path class="cls-2" d="M100,200a99.62,99.62,0,0,0,62.85-22.22H37.15A99.62,99.62,0,0,0,100,200Z"/><path class="cls-2" d="M162.85,22.22A99.62,99.62,0,0,0,100,0V22.22Z"/><path class="cls-3" d="M100,95V0A100,100,0,0,0,0,100H95A5,5,0,0,0,100,95Z"/><path class="cls-4" d="M56.53,26.06,62.2,43.49a1.67,1.67,0,0,0,1.58,1.15H82a1.66,1.66,0,0,1,1,3L68.23,58.33a1.66,1.66,0,0,0-.61,1.86l5.62,17.29a1.66,1.66,0,0,1-2.56,1.85L56,68.65a1.68,1.68,0,0,0-2,0L39.32,79.33a1.66,1.66,0,0,1-2.56-1.86l5.62-17.28a1.67,1.67,0,0,0-.61-1.86L27.06,47.64a1.66,1.66,0,0,1,1-3H46.22a1.67,1.67,0,0,0,1.58-1.15l5.67-17.43a1.61,1.61,0,0,1,3.06,0"/><circle class="cls-5" cx="55" cy="55.06" r="30"/><path class="cls-4" d="M162.85,22.22H100V44.51h83.2A100.61,100.61,0,0,0,162.85,22.22Z"/><path class="cls-4" d="M37.15,177.78h125.7a100.78,100.78,0,0,0,20.31-22.22H16.84A100.78,100.78,0,0,0,37.15,177.78Z"/><path class="cls-4" d="M199.38,111.11H.62A99.22,99.22,0,0,0,5.7,133.33H194.3A99.22,99.22,0,0,0,199.38,111.11Z"/><path class="cls-4" d="M194.35,66.79H100v22.1h99.38A99.47,99.47,0,0,0,194.35,66.79Z"/></g></svg>