<svg xmlns="http://www.w3.org/2000/svg" viewBox="0 0 200 200"><defs><style>.cls-1{fill:#01a2ce;}.cls-2{fill:#009b43;}.cls-3{fill:#ffcf44;}.cls-4{fill:none;}.cls-5{fill:#f0f0f0;}</style></defs><title>13-mato-grosso-do-sul-circle</title><g id="circle"><path class="cls-1" d="M160,20,20,160A100,100,0,1,0,160,20Z"/><path class="cls-2" d="M100,0A100.08,100.08,0,0,0,3.54,126.46L126.46,3.54A100.39,100.39,0,0,0,100,0Z"/><path class="cls-3" d="M141.53,111l5.67,17.43a1.65,1.65,0,0,0,1.58,1.15H167a1.66,1.66,0,0,1,1,3l-14.7,10.68a1.66,1.66,0,0,0-.61,1.86l5.62,17.29a1.66,1.66,0,0,1-2.56,1.86L141,153.59a1.68,1.68,0,0,0-2,0l-14.7,10.69a1.66,1.66,0,0,1-2.56-1.86l5.62-17.29a1.67,1.67,0,0,0-.61-1.86l-14.71-10.68a1.67,1.67,0,0,1,1-3h18.18a1.65,1.65,0,0,0,1.58-1.15L138.47,111a1.61,1.61,0,0,1,3.06,0"/><circle class="cls-4" cx="140" cy="140" r="30"/><path class="cls-5" d="M126.46,3.54,3.54,126.46A99.73,99.73,0,0,0,20,160L160,20A99.73,99.73,0,0,0,126.46,3.54Z"/></g></svg>