<svg xmlns="http://www.w3.org/2000/svg" viewBox="0 0 200 200"><defs><style>.cls-1{fill:#d9251d;}.cls-2{fill:#f0f0f0;}.cls-3{fill:#213572;}.cls-4{fill:none;}</style></defs><title>15-para-circle</title><g id="Layer_18" data-name="Layer 18"><path class="cls-1" d="M0,100a100,100,0,0,0,141.5,91L9,58.5A99.52,99.52,0,0,0,0,100Z"/><path class="cls-1" d="M200,100A100,100,0,0,0,58.5,9L191,141.51A99.6,99.6,0,0,0,200,100Z"/><path class="cls-2" d="M191,141.5,58.5,9A100.38,100.38,0,0,0,9,58.5L141.5,191A100.38,100.38,0,0,0,191,141.5Z"/><path class="cls-3" d="M101.53,71.06l5.67,17.43a1.67,1.67,0,0,0,1.58,1.15H127a1.66,1.66,0,0,1,1,3l-14.7,10.69a1.66,1.66,0,0,0-.61,1.86l5.62,17.29a1.66,1.66,0,0,1-2.56,1.85L101,113.65a1.68,1.68,0,0,0-2,0l-14.7,10.68a1.66,1.66,0,0,1-2.56-1.86l5.62-17.28a1.67,1.67,0,0,0-.61-1.86L72.06,92.64a1.66,1.66,0,0,1,1-3H91.22a1.67,1.67,0,0,0,1.58-1.15l5.67-17.43a1.61,1.61,0,0,1,3.06,0"/><circle class="cls-4" cx="100" cy="100.06" r="30"/></g></svg>