<svg xmlns="http://www.w3.org/2000/svg" viewBox="0 0 200 200"><defs><style>.cls-1{fill:#009b43;}.cls-2{fill:#f0f0f0;}.cls-3{fill:#213572;}</style></defs><title>17-parana-circle</title><g id="circle"><path class="cls-1" d="M0,100a100.07,100.07,0,0,0,125.9,96.61L3.39,74.1A100.07,100.07,0,0,0,0,100Z"/><path class="cls-2" d="M196.61,125.9,74.1,3.39A100.2,100.2,0,0,0,3.39,74.1L125.9,196.61A100.21,100.21,0,0,0,196.61,125.9Z"/><path class="cls-1" d="M200,100A100.07,100.07,0,0,0,74.1,3.39L196.61,125.9A100.07,100.07,0,0,0,200,100Z"/><path class="cls-3" d="M71.92,92.44c-3.63,0-7.34.19-11,.56h-.1a1,1,0,0,1-.17,0,40,40,0,0,0,76.75,21.26.85.85,0,0,1-.25-.13A108.09,108.09,0,0,0,71.92,92.44Z"/><path class="cls-3" d="M140,101.46c0-.49,0-1,0-1.46A40,40,0,0,0,65,80.65c2.44-.14,4.72-.21,6.93-.21A120.11,120.11,0,0,1,140,101.46Z"/></g></svg>