<svg xmlns="http://www.w3.org/2000/svg" viewBox="0 0 200 200"><defs><style>.cls-1{fill:#213572;}.cls-2{fill:#d9251d;}.cls-3{fill:#ffcf44;}.cls-4{fill:#009b43;}.cls-5{fill:#f0f0f0;}.cls-6{fill:none;}</style></defs><title>18-pernambuco-circle</title><g id="circle"><path class="cls-1" d="M200,100A100,100,0,1,0,5.7,133.33H194.3A99.66,99.66,0,0,0,200,100Z"/><path class="cls-2" d="M100,33.33A94.31,94.31,0,0,0,5.69,127.64c0,1.91.06,3.81.18,5.69h10c-.13-1.88-.22-3.77-.22-5.69a84.31,84.31,0,0,1,168.62,0c0,1.92-.09,3.81-.22,5.69h10c.12-1.88.18-3.78.18-5.69A94.31,94.31,0,0,0,100,33.33Z"/><path class="cls-3" d="M25.69,127.64a74.31,74.31,0,0,1,148.62,0c0,1.92-.1,3.81-.24,5.69h10c.13-1.88.22-3.77.22-5.69a84.31,84.31,0,0,0-168.62,0c0,1.92.09,3.81.22,5.69h10C25.79,131.45,25.69,129.56,25.69,127.64Z"/><path class="cls-4" d="M100,53.33a74.4,74.4,0,0,0-74.31,74.31c0,1.92.1,3.81.24,5.69H36c-.17-1.87-.27-3.77-.27-5.69a64.31,64.31,0,0,1,128.62,0c0,1.92-.1,3.82-.27,5.69h10c.14-1.88.24-3.77.24-5.69A74.4,74.4,0,0,0,100,53.33Z"/><path class="cls-1" d="M164.31,127.64a64.31,64.31,0,0,0-128.62,0c0,1.92.1,3.82.27,5.69H164C164.21,131.46,164.31,129.56,164.31,127.64Z"/><path class="cls-5" d="M194.3,133.33H5.7a100,100,0,0,0,188.6,0Z"/><circle class="cls-3" cx="100" cy="98.33" r="20"/><rect class="cls-2" x="85" y="156.67" width="30" height="10" rx="2"/><rect class="cls-2" x="80" y="161.67" width="40" height="10" rx="2" transform="translate(266.67 66.67) rotate(90)"/><path class="cls-3" d="M100.51,7l1.89,5.81a.55.55,0,0,0,.53.38H109a.55.55,0,0,1,.32,1l-4.9,3.57a.54.54,0,0,0-.2.62l1.87,5.76a.55.55,0,0,1-.85.62l-4.9-3.56a.57.57,0,0,0-.66,0l-4.9,3.56a.55.55,0,0,1-.85-.62l1.87-5.76a.55.55,0,0,0-.2-.62l-4.9-3.57a.55.55,0,0,1,.32-1h6.06a.55.55,0,0,0,.53-.38L99.49,7a.53.53,0,0,1,1,0"/><circle class="cls-6" cx="100" cy="16.69" r="10"/></g></svg>