<svg xmlns="http://www.w3.org/2000/svg" viewBox="0 0 200 200"><defs><style>.cls-1{fill:#213572;}.cls-2{fill:#f0f0f0;}.cls-3{fill:none;}.cls-4{fill:#009b43;}.cls-5{fill:#ffcf44;}</style></defs><title>19-piaui-circle</title><g id="circle"><path class="cls-1" d="M100,40H20A99.46,99.46,0,0,0,8.33,60H100Z"/><path class="cls-1" d="M100,0A99.55,99.55,0,0,0,40,20h60Z"/><path class="cls-1" d="M100,80H2a100.57,100.57,0,0,0-2,20H100Z"/><path class="cls-1" d="M100,60H8.33A98.71,98.71,0,0,0,2,80h98Z"/><path class="cls-1" d="M100,20H40A100.48,100.48,0,0,0,20,40h80Z"/><path class="cls-2" d="M58.53,28.06,64.2,45.49a1.67,1.67,0,0,0,1.58,1.15H84a1.66,1.66,0,0,1,1,3L70.23,60.33a1.66,1.66,0,0,0-.61,1.86l5.62,17.29a1.66,1.66,0,0,1-2.56,1.85L58,70.65a1.68,1.68,0,0,0-2,0L41.32,81.33a1.66,1.66,0,0,1-2.56-1.86l5.62-17.28a1.67,1.67,0,0,0-.61-1.86L29.06,49.64a1.66,1.66,0,0,1,1-3H48.22a1.67,1.67,0,0,0,1.58-1.15l5.67-17.43a1.61,1.61,0,0,1,3.06,0"/><circle class="cls-3" cx="57" cy="57.06" r="30"/><path class="cls-4" d="M8.33,140H191.67A98.71,98.71,0,0,0,198,120H2A98.71,98.71,0,0,0,8.33,140Z"/><path class="cls-4" d="M100,60h91.67A99.46,99.46,0,0,0,180,40H100Z"/><path class="cls-4" d="M160,20A99.55,99.55,0,0,0,100,0V20Z"/><path class="cls-4" d="M40,180H160a100.48,100.48,0,0,0,20-20H20A100.48,100.48,0,0,0,40,180Z"/><path class="cls-4" d="M100,80v20H200a100.57,100.57,0,0,0-2-20Z"/><path class="cls-5" d="M0,100a100.57,100.57,0,0,0,2,20H198a100.57,100.57,0,0,0,2-20H0Z"/><path class="cls-5" d="M100,80h98a98.71,98.71,0,0,0-6.33-20H100Z"/><path class="cls-5" d="M100,40h80a100.48,100.48,0,0,0-20-20H100Z"/><path class="cls-5" d="M20,160H180a99.46,99.46,0,0,0,11.67-20H8.33A99.46,99.46,0,0,0,20,160Z"/><path class="cls-5" d="M100,200a99.55,99.55,0,0,0,60-20H40A99.55,99.55,0,0,0,100,200Z"/></g></svg>