<svg xmlns="http://www.w3.org/2000/svg" viewBox="0 0 200 200"><defs><style>.cls-1{fill:#009b43;}.cls-2{fill:#01a2ce;}.cls-3{fill:#f0f0f0;}.cls-4{fill:#d9251d;}.cls-5{fill:#f8c300;}.cls-6{fill:none;}</style></defs><title>24-roraima-circle</title><g id="circle"><path class="cls-1" d="M200,100A100.07,100.07,0,0,1,74.1,196.61L196.61,74.1A100.07,100.07,0,0,1,200,100Z"/><path class="cls-2" d="M6.44,135.37A100.07,100.07,0,0,1,125.9,3.39L3.39,125.9Q4.69,130.73,6.44,135.37Z"/><path class="cls-3" d="M64.62,193.55a97.73,97.73,0,0,1-9-3.93l0,0q-4.38-2.17-8.51-4.76l0,0q-4.12-2.58-8-5.55h0A100.75,100.75,0,0,1,20.74,161v0q-3-3.84-5.55-8l0,0q-2.57-4.12-4.75-8.51l0,0c-1.45-2.93-2.77-5.94-3.93-9h0q-1.76-4.63-3.05-9.47L125.9,3.39h0a97.49,97.49,0,0,1,9.46,3.05h0a97.73,97.73,0,0,1,9,3.93l0,0q4.38,2.17,8.51,4.76l0,0q4.13,2.58,8,5.55h0A100.75,100.75,0,0,1,179.26,39v0q3,3.84,5.55,8l0,0q2.57,4.13,4.75,8.51l0,0c1.45,2.92,2.77,5.93,3.93,9v0a97.49,97.49,0,0,1,3.05,9.46h0L74.1,196.61h0a97.49,97.49,0,0,1-9.46-3.05Z"/><path class="cls-4" d="M178,162.54H22a101.45,101.45,0,0,0,14.88,15h126.3A101.45,101.45,0,0,0,178,162.54Z"/><path class="cls-5" d="M103.58,32.47l13.21,40.67a3.88,3.88,0,0,0,3.69,2.68H162.9a3.87,3.87,0,0,1,2.28,7l-34.32,24.93a3.9,3.9,0,0,0-1.41,4.34l13.11,40.34a3.88,3.88,0,0,1-6,4.34l-34.31-24.93a3.87,3.87,0,0,0-4.56,0L63.4,156.78a3.88,3.88,0,0,1-6-4.34l13.1-40.34a3.86,3.86,0,0,0-1.41-4.33L34.82,82.83a3.87,3.87,0,0,1,2.28-7H79.51a3.88,3.88,0,0,0,3.69-2.68L96.42,32.47a3.76,3.76,0,0,1,7.16,0"/><circle class="cls-6" cx="100" cy="100.13" r="70"/></g></svg>