<svg xmlns="http://www.w3.org/2000/svg" viewBox="0 0 200 200"><defs><style>.cls-1{fill:#d9251d;}.cls-2{fill:#f0f0f0;}.cls-3{fill:#ffcf44;}.cls-4{fill:none;}.cls-5{fill:#213572;}.cls-6{fill:#1d1d1b;}</style></defs><title>26-sao-paulocircle</title><g id="circle"><path class="cls-1" d="M120,2A100.09,100.09,0,0,0,0,100H120Z"/><circle class="cls-2" cx="63.5" cy="52.85" r="36.47"/><path class="cls-3" d="M105.13,12.05l1.76,5.43a.51.51,0,0,0,.49.36h5.67a.52.52,0,0,1,.31.94l-4.59,3.33a.52.52,0,0,0-.19.58l1.75,5.39a.51.51,0,0,1-.79.58L105,25.33a.53.53,0,0,0-.61,0l-4.58,3.33a.52.52,0,0,1-.8-.58l1.75-5.39a.51.51,0,0,0-.19-.58l-4.58-3.33a.52.52,0,0,1,.3-.94h5.67a.5.5,0,0,0,.49-.36l1.77-5.43a.51.51,0,0,1,1,0"/><circle class="cls-4" cx="104.65" cy="21.09" r="9.35"/><path class="cls-3" d="M22.83,75.61,24.6,81a.5.5,0,0,0,.49.36h5.67a.52.52,0,0,1,.3.94l-4.58,3.33a.5.5,0,0,0-.19.58L28,91.64a.52.52,0,0,1-.8.58l-4.58-3.34a.53.53,0,0,0-.61,0l-4.59,3.34a.52.52,0,0,1-.79-.58l1.75-5.39a.52.52,0,0,0-.19-.58l-4.59-3.33A.52.52,0,0,1,14,81.4h5.66a.52.52,0,0,0,.5-.36l1.76-5.43a.5.5,0,0,1,1,0"/><circle class="cls-4" cx="22.35" cy="84.65" r="9.35"/><path class="cls-3" d="M105.13,75.61,106.89,81a.51.51,0,0,0,.49.36h5.67a.52.52,0,0,1,.31.94l-4.59,3.33a.52.52,0,0,0-.19.58l1.75,5.39a.52.52,0,0,1-.79.58L105,88.88a.53.53,0,0,0-.61,0l-4.58,3.34a.52.52,0,0,1-.8-.58l1.75-5.39a.5.5,0,0,0-.19-.58l-4.58-3.33a.52.52,0,0,1,.3-.94h5.67a.5.5,0,0,0,.49-.36l1.77-5.43a.5.5,0,0,1,1,0"/><circle class="cls-4" cx="104.65" cy="84.65" r="9.35"/><path class="cls-5" d="M69.27,73.77l-4.12,4.71a1.34,1.34,0,0,1-1.85.16l-3.19-2.57A1.33,1.33,0,0,1,60,74.13l2.62-2.9a1.31,1.31,0,0,0,.34-1l-.14-2.79a1.32,1.32,0,0,0-.64-1.07l-3.73-2.26A1.33,1.33,0,0,1,57.76,63V57.13A1.33,1.33,0,0,0,57.13,56l-8.6-5.35a1.32,1.32,0,0,1-.64-1.13h0A1.33,1.33,0,0,0,46,48.32l-2.11,1a1.79,1.79,0,0,1-1.08.05A6.77,6.77,0,0,1,37.48,46a1.37,1.37,0,0,1-.14-1.23l1.28-3.29a1.31,1.31,0,0,1,.89-.81l1.45-.4a1.84,1.84,0,0,0,1.17-1.44l.12-4.35a1.41,1.41,0,0,1,.37-.83l1.24-1.3a1.34,1.34,0,0,1,1.61-.25l1.51.83a1.33,1.33,0,0,0,1.51-.15l.84-.72a1.33,1.33,0,0,0,.47-1.15l-.21-2a1.34,1.34,0,0,1,1.12-1.46l3.93-.62a1.33,1.33,0,0,1,1.54,1.15l.28,2.22a1.34,1.34,0,0,0,1.46,1.17l5.18-.54a1.38,1.38,0,0,0,.81-.39l1.57-1.57a1.34,1.34,0,0,1,2.09.25l1.49,2.45a1.34,1.34,0,0,1,.1,1.17l-.23.61a1.35,1.35,0,0,0,1,1.79l13.63,2.55a1.24,1.24,0,0,1,.48.19l5.09,3.3a1.34,1.34,0,0,1,.61,1.12v4a1.33,1.33,0,0,1-.31.85l-4.69,5.73a1.34,1.34,0,0,0-.27.53l-1.34,5.57a2,2,0,0,1-.12.31L79.8,65.35a1.34,1.34,0,0,1-.86.68l-6.13,1.52a1.38,1.38,0,0,0-.89.73l-2.45,5.18A1.49,1.49,0,0,1,69.27,73.77Z"/><path class="cls-6" d="M160,20A99.52,99.52,0,0,0,120,2V20Z"/><path class="cls-6" d="M120,60h71.67A99.46,99.46,0,0,0,180,40H120Z"/><path class="cls-6" d="M120,100h80a100.57,100.57,0,0,0-2-20H120Z"/><path class="cls-6" d="M8.33,140H191.67A98.71,98.71,0,0,0,198,120H2A98.71,98.71,0,0,0,8.33,140Z"/><path class="cls-6" d="M40,180H160a100.48,100.48,0,0,0,20-20H20A100.48,100.48,0,0,0,40,180Z"/><path class="cls-2" d="M198,120a100.57,100.57,0,0,0,2-20H0a100.57,100.57,0,0,0,2,20Z"/><path class="cls-2" d="M120,80h78a98.71,98.71,0,0,0-6.33-20H120Z"/><path class="cls-2" d="M120,40h60a100.48,100.48,0,0,0-20-20H120Z"/><path class="cls-2" d="M20,160H180a99.46,99.46,0,0,0,11.67-20H8.33A99.46,99.46,0,0,0,20,160Z"/><path class="cls-2" d="M40,180a100,100,0,0,0,120,0Z"/></g></svg>