<svg xmlns="http://www.w3.org/2000/svg" viewBox="0 0 200 200"><defs><style>.cls-1{fill:#213572;}.cls-2{fill:#f0f0f0;}.cls-3{fill:#ef9926;}</style></defs><title>28-tocantins-circle</title><g id="circle"><path class="cls-1" d="M0,100A100.07,100.07,0,0,1,125.9,3.39L3.39,125.9A100.07,100.07,0,0,1,0,100Z"/><path class="cls-2" d="M196.61,74.1,74.1,196.61A100.18,100.18,0,0,1,3.39,125.9L125.9,3.39A100.2,100.2,0,0,1,196.61,74.1Z"/><path class="cls-3" d="M144.8,97H131.6a2,2,0,0,1-2-1.68,30,30,0,0,0-5.39-13,2,2,0,0,1,.22-2.56l9.33-9.34a3.12,3.12,0,0,0,.23-4.28,3,3,0,0,0-4.33-.1l-9.48,9.47a2,2,0,0,1-2.56.22,30,30,0,0,0-13-5.39,2,2,0,0,1-1.68-2V55.11a3,3,0,0,0-2-3A3,3,0,0,0,97,55V68.4a2,2,0,0,1-1.68,2,30,30,0,0,0-13,5.39,2,2,0,0,1-2.56-.22L70.3,66.06a3,3,0,0,0-4.81.77,3.08,3.08,0,0,0,.65,3.55l9.39,9.4a2,2,0,0,1,.22,2.56,30,30,0,0,0-5.39,13,2,2,0,0,1-2,1.68H55.2A3.14,3.14,0,0,0,52,99.87,3,3,0,0,0,55,103H68.4a2,2,0,0,1,2,1.68,30,30,0,0,0,5.39,13,2,2,0,0,1-.22,2.56l-9.47,9.48a3,3,0,0,0,0,4.24,3,3,0,0,0,4.24,0l9.48-9.47a2,2,0,0,1,2.56-.22,30,30,0,0,0,13,5.39,2,2,0,0,1,1.68,2v13.2a3.14,3.14,0,0,0,2.87,3.2,3,3,0,0,0,3.13-3V131.6a2,2,0,0,1,1.68-2,30,30,0,0,0,13-5.39,2,2,0,0,1,2.56.22l9.48,9.47a3,3,0,0,0,4.24,0,3,3,0,0,0,0-4.24l-9.47-9.48a2,2,0,0,1-.22-2.56,30,30,0,0,0,5.39-13,2,2,0,0,1,2-1.68H145a3,3,0,0,0,3-3.13A3.14,3.14,0,0,0,144.8,97Z"/><path class="cls-3" d="M200,100A100.07,100.07,0,0,1,74.1,196.61L196.61,74.1A100.07,100.07,0,0,1,200,100Z"/></g></svg>