<svg xmlns="http://www.w3.org/2000/svg" viewBox="0 0 300 200"><defs><style>.cls-1{fill:#009b43;}.cls-2{fill:#ffcf44;}.cls-3{fill:#d9251d;}.cls-4{fill:none;}</style></defs><title>02-acre-rounded</title><g id="rounded"><path class="cls-1" d="M292.9,4.73,7.1,195.27A19.88,19.88,0,0,0,20,200H280a20,20,0,0,0,20-20V20A19.94,19.94,0,0,0,292.9,4.73Z"/><path class="cls-2" d="M280,0H20A20,20,0,0,0,0,20V180a19.94,19.94,0,0,0,7.1,15.27L292.9,4.73A19.88,19.88,0,0,0,280,0Z"/><path class="cls-3" d="M51.53,21.11,57.2,38.54a1.65,1.65,0,0,0,1.58,1.15H77a1.66,1.66,0,0,1,1,3L63.23,53.39a1.65,1.65,0,0,0-.61,1.85l5.62,17.29a1.66,1.66,0,0,1-2.56,1.86L51,63.71a1.65,1.65,0,0,0-2,0L34.32,74.39a1.66,1.66,0,0,1-2.56-1.86l5.62-17.29a1.66,1.66,0,0,0-.61-1.85L22.06,42.7a1.67,1.67,0,0,1,1-3H41.22a1.66,1.66,0,0,0,1.58-1.14l5.67-17.44a1.61,1.61,0,0,1,3.06,0"/><circle class="cls-4" cx="50" cy="50.11" r="30"/></g></svg>