<svg xmlns="http://www.w3.org/2000/svg" viewBox="0 0 300 200"><defs><style>.cls-1{fill:#f0f0f0;}.cls-2{fill:#d9251d;}.cls-3{fill:#01a2ce;}.cls-4{fill:#213572;}.cls-5{fill:none;}.cls-6{fill:#c6c6c6;}.cls-7{fill:#009b43;}</style></defs><title>03-alagoas-rounded</title><g id="rounded"><rect class="cls-1" width="300" height="200" rx="20"/><path class="cls-2" d="M0,20V180a20,20,0,0,0,20,20h80V0H20A20,20,0,0,0,0,20Z"/><path class="cls-3" d="M200,0V200h80a20,20,0,0,0,20-20V20A20,20,0,0,0,280,0Z"/><rect class="cls-1" x="100" width="100" height="200"/><path class="cls-2" d="M169.14,103.82a.51.51,0,0,1-.78,0,7.71,7.71,0,0,0-11.72,0,.51.51,0,0,1-.78,0,7.72,7.72,0,0,0-12.44,1,.5.5,0,0,1-.92-.26V91.38a2,2,0,0,0-2-2h-6a2,2,0,0,0-2,2v13.15a.5.5,0,0,1-.92.26,7.74,7.74,0,0,0-6.58-3.67v5.13c0,.53,0,1,0,1.56,0,.28,0,.55.07.83,6.12.08,6.17,6,12.38,6s6.25-6,12.49-6,6.26,6,12.51,6,6.26-5.91,12.38-6c0-.28.05-.55.07-.83,0-.51.05-1,.05-1.56v-5.12A7.71,7.71,0,0,0,169.14,103.82Z"/><path class="cls-3" d="M162.5,114.63c-6.25,0-6.25-6-12.51-6s-6.24,6-12.49,6-6.26-5.91-12.38-6a25.1,25.1,0,0,0,1.7,7c.14.33.29.67.44,1l.17.38a25,25,0,0,0,45.14,0l.17-.38c.15-.33.3-.67.44-1a25.1,25.1,0,0,0,1.7-7C168.76,108.72,168.71,114.63,162.5,114.63Z"/><path class="cls-3" d="M125,68.75V80.38c3.12,0,4.69,1.5,6.25,3s3.13,3,6.25,3,4.69-1.5,6.25-3,3.12-3,6.24-3,4.69,1.5,6.26,3,3.13,3,6.25,3,4.69-1.5,6.25-3,3.13-3,6.25-3V68.75Z"/><rect class="cls-4" x="134.25" y="94.85" width="6.49" height="4" rx="1" transform="translate(234.35 -40.65) rotate(90)"/><rect class="cls-2" x="129.5" y="89.38" width="16" height="4" rx="1"/><path class="cls-1" d="M161.42,80.37A6.35,6.35,0,0,0,166.59,78a6.35,6.35,0,0,0-5.17-2.39,6.6,6.6,0,0,0-4.69,1.82.81.81,0,0,0,0,1.14A6.6,6.6,0,0,0,161.42,80.37Z"/><path class="cls-1" d="M165.4,78l2.42,2.42a.4.4,0,0,0,.68-.28V75.85a.4.4,0,0,0-.68-.29Z"/><path class="cls-1" d="M148.92,75.37A6.37,6.37,0,0,0,154.1,73a6.37,6.37,0,0,0-5.18-2.39,6.56,6.56,0,0,0-4.68,1.82.8.8,0,0,0,0,1.14A6.56,6.56,0,0,0,148.92,75.37Z"/><path class="cls-1" d="M152.9,73l2.42,2.42a.4.4,0,0,0,.68-.28V70.85a.4.4,0,0,0-.68-.29Z"/><path class="cls-1" d="M136.42,80.37A6.38,6.38,0,0,0,141.6,78a6.38,6.38,0,0,0-5.18-2.39,6.6,6.6,0,0,0-4.69,1.82.81.81,0,0,0,0,1.14A6.6,6.6,0,0,0,136.42,80.37Z"/><path class="cls-1" d="M140.4,78l2.42,2.42a.4.4,0,0,0,.68-.28V75.85a.4.4,0,0,0-.68-.29Z"/><path class="cls-1" d="M162.5,122.63c-6.25,0-6.25-6-12.51-6s-6.24,6-12.49,6c-5.31,0-6.12-4.32-10.07-5.62a25,25,0,0,0,11.38,11.6,4,4,0,0,0,4.57-.63c1.69-1.61,3.25-3.35,6.61-3.35s4.93,1.75,6.63,3.35a4,4,0,0,0,4.57.63A25.08,25.08,0,0,0,172.57,117C168.62,118.31,167.81,122.63,162.5,122.63Z"/><circle class="cls-5" cx="150" cy="52.5" r="10"/><path class="cls-1" d="M144.56,61.8a1.73,1.73,0,0,1-1.39-.7,1.64,1.64,0,0,1-.24-1.5l1.69-5.23-4.45-3.22a1.72,1.72,0,0,1-.6-1.92,1.65,1.65,0,0,1,1.59-1.13h5.48l1.69-5.23a1.81,1.81,0,0,1,1.67-1.2,1.64,1.64,0,0,1,1.59,1.17l1.69,5.22h5.52a1.7,1.7,0,0,1,1.62,1.17,1.67,1.67,0,0,1-.64,1.88l-4.44,3.22L157,59.55a1.68,1.68,0,0,1-.24,1.52,1.71,1.71,0,0,1-1.37.69,1.67,1.67,0,0,1-1-.33L150,58.24l-4.45,3.23A1.66,1.66,0,0,1,144.56,61.8Z"/><path class="cls-6" d="M150,42.66a.65.65,0,0,1,.64.48l1.76,5.44a.68.68,0,0,0,.64.48h5.76a.68.68,0,0,1,.4,1.24l-4.64,3.36a.63.63,0,0,0-.24.76l1.76,5.44a.69.69,0,0,1-.66.9.7.7,0,0,1-.42-.14l-4.6-3.32a.73.73,0,0,0-.8,0L145,60.66a.65.65,0,0,1-.4.14.7.7,0,0,1-.68-.9l1.76-5.44a.68.68,0,0,0-.24-.76l-4.64-3.36a.68.68,0,0,1,.4-1.24h5.72a.68.68,0,0,0,.64-.48l1.76-5.44a.78.78,0,0,1,.72-.52m0-2a2.79,2.79,0,0,0-2.57,1.76,1.21,1.21,0,0,0-.05.14l-1.47,4.54h-4.75a2.65,2.65,0,0,0-2.54,1.81,2.72,2.72,0,0,0,.92,3l.05,0,3.85,2.79L142,59.28a2.65,2.65,0,0,0,.39,2.41,2.74,2.74,0,0,0,2.19,1.11,2.64,2.64,0,0,0,1.59-.53L150,59.48l3.83,2.76a2.69,2.69,0,0,0,4.16-3l-1.47-4.55,3.85-2.79a2.68,2.68,0,0,0-1.57-4.86H154l-1.47-4.54A2.66,2.66,0,0,0,150,40.66Z"/><path class="cls-6" d="M175,68.75v37.5a25,25,0,0,1-50,0V68.75h50m0-2H125a2,2,0,0,0-2,2v37.5a27,27,0,0,0,54,0V68.75a2,2,0,0,0-2-2Z"/><path class="cls-7" d="M113,72.82a3,3,0,0,1,3,3v3a3,3,0,0,1-6,0v-3A3,3,0,0,1,113,72.82Z"/><path class="cls-7" d="M113,85.9a3,3,0,0,1,3,3v3a3,3,0,0,1-6,0v-3A3,3,0,0,1,113,85.9Z"/><path class="cls-7" d="M113,99a3,3,0,0,1,3,3v3a2.85,2.85,0,0,1-.24,1.17,2.63,2.63,0,0,1-.6.9,3.1,3.1,0,0,1-2.07.93h0a2.88,2.88,0,0,1-2.17-.83,3.11,3.11,0,0,1-.68-1A2.85,2.85,0,0,1,110,105v-3A3,3,0,0,1,113,99Z"/><path class="cls-7" d="M113.5,112h0a3.13,3.13,0,0,1,2.22.49,3.05,3.05,0,0,1,.77.75,2.58,2.58,0,0,1,.5,1l.35,1.33a7.71,7.71,0,0,0,.4,1.32,3.11,3.11,0,0,1-1.82,3.76h0a2.92,2.92,0,0,1-3.88-1.87,12.17,12.17,0,0,1-.47-1.56l-.41-1.57a3.44,3.44,0,0,1-.08-1.27,2.77,2.77,0,0,1,.46-1.12A2.84,2.84,0,0,1,113.5,112Z"/><path class="cls-7" d="M117.73,124.3h0a3,3,0,0,1,4,.89l1.65,2.21a3.11,3.11,0,0,1,.62,2.07,3.23,3.23,0,0,1-1,2.06h0a2.81,2.81,0,0,1-2.17.77,3,3,0,0,1-2.15-1.16l-1.93-2.6A3,3,0,0,1,117.73,124.3Z"/><path class="cls-7" d="M126,134.35a3.18,3.18,0,0,1,2-1.07,2.8,2.8,0,0,1,2.12.49c.37.26.72.57,1.11.8l1.18.72a3,3,0,0,1,1.27,1.76,3.15,3.15,0,0,1-.21,2.26h0a2.89,2.89,0,0,1-1.78,1.49,3,3,0,0,1-2.4-.39l-1.38-.84c-.46-.28-.88-.63-1.32-.95a3.19,3.19,0,0,1-1.27-2.05A2.84,2.84,0,0,1,126,134.35Z"/><path class="cls-7" d="M187,72.82a3,3,0,0,1,3,3v3a3,3,0,0,1-6,0v-3A3,3,0,0,1,187,72.82Z"/><path class="cls-7" d="M187,85.9a3,3,0,0,1,3,3v3a3,3,0,0,1-6,0v-3A3,3,0,0,1,187,85.9Z"/><path class="cls-7" d="M187,99a3,3,0,0,1,3,3v3a2.85,2.85,0,0,1-.24,1.17,3.11,3.11,0,0,1-.68,1,2.88,2.88,0,0,1-2.17.83,3.1,3.1,0,0,1-2.07-.93,2.63,2.63,0,0,1-.6-.9A2.85,2.85,0,0,1,184,105v-3A3,3,0,0,1,187,99Z"/><path class="cls-7" d="M186.5,112a2.84,2.84,0,0,1,2,1.25,2.77,2.77,0,0,1,.46,1.12,3.44,3.44,0,0,1-.08,1.27l-.41,1.57a12.17,12.17,0,0,1-.47,1.56,2.92,2.92,0,0,1-3.88,1.87,3.11,3.11,0,0,1-1.82-3.76,7.71,7.71,0,0,0,.4-1.32l.35-1.33a2.58,2.58,0,0,1,.5-1,3.05,3.05,0,0,1,.77-.75A3.13,3.13,0,0,1,186.5,112Z"/><path class="cls-7" d="M182.27,124.3a3,3,0,0,1,.92,4.24l-1.93,2.6a3,3,0,0,1-2.15,1.16,2.81,2.81,0,0,1-2.17-.77h0a3.23,3.23,0,0,1-1-2.06,3.11,3.11,0,0,1,.62-2.07l1.65-2.21A3,3,0,0,1,182.27,124.3Z"/><path class="cls-7" d="M174,134.35h0a2.84,2.84,0,0,1,.67,2.22,3.19,3.19,0,0,1-1.27,2.05c-.44.32-.86.67-1.32.95l-1.38.84a3,3,0,0,1-2.4.39,2.89,2.89,0,0,1-1.78-1.49h0a3.15,3.15,0,0,1-.21-2.26,3,3,0,0,1,1.27-1.76l1.18-.72c.39-.23.74-.54,1.11-.8a2.8,2.8,0,0,1,2.12-.49A3.18,3.18,0,0,1,174,134.35Z"/><path class="cls-7" d="M140,155.74a3,3,0,0,1-2.27-5,35.93,35.93,0,0,1,22.73-12.24,3,3,0,0,1,.75,6,29.91,29.91,0,0,0-18.94,10.2A3,3,0,0,1,140,155.74Z"/><path class="cls-7" d="M160,155.74a3,3,0,0,1-2.27-1,29.91,29.91,0,0,0-18.94-10.2,3,3,0,0,1,.75-6,36,36,0,0,1,22.74,12.24A3,3,0,0,1,162,155,3,3,0,0,1,160,155.74Z"/><path class="cls-6" d="M175,68.75v37.5a25,25,0,0,1-50,0V68.75h50m0-2H125a2,2,0,0,0-2,2v37.5a27,27,0,0,0,54,0V68.75a2,2,0,0,0-2-2Z"/></g></svg>