<svg xmlns="http://www.w3.org/2000/svg" viewBox="0 0 300 200"><defs><style>.cls-1{fill:#009b43;}.cls-2{fill:#ffcf44;}.cls-3{fill:#213572;}.cls-4{fill:#f0f0f0;}</style></defs><title>04-amapa-rounded</title><g id="rounded"><path class="cls-1" d="M62.25,130.68a8,8,0,0,1,5.66-2.35H300V71.67H67.91a8,8,0,0,1-5.66-2.35L2.79,9.86A19.82,19.82,0,0,0,0,20V180a19.91,19.91,0,0,0,2.78,10.14Z"/><polygon class="cls-2" points="20 200 280 200 280 200 20 200 20 200"/><path class="cls-2" d="M72.05,138.33a8,8,0,0,0-5.66,2.35L9.86,197.21A19.82,19.82,0,0,0,20,200H280a20,20,0,0,0,20-20V138.33Z"/><path class="cls-3" d="M66.4,59.32a8,8,0,0,0,5.65,2.35H300V20A20,20,0,0,0,280,0H20A19.91,19.91,0,0,0,9.86,2.78Z"/><path class="cls-4" d="M72.05,61.67a8,8,0,0,1-5.65-2.35L9.86,2.78a20.39,20.39,0,0,0-4,3.08,20,20,0,0,0-3.07,4L62.25,69.32a8,8,0,0,0,5.66,2.35H300v-10Z"/><path class="cls-4" d="M62.25,130.68,2.78,190.14a20.39,20.39,0,0,0,3.08,4,20,20,0,0,0,4,3.07l56.53-56.53a8,8,0,0,1,5.66-2.35H300v-10H67.91A8,8,0,0,0,62.25,130.68Z"/><path class="cls-4" d="M39.19,77.83,19.85,97.17a4,4,0,0,0,0,5.66l19.34,19.34a4,4,0,0,0,5.66,0l19.34-19.34a4,4,0,0,0,0-5.66L44.85,77.83A4,4,0,0,0,39.19,77.83Z"/><rect class="cls-1" x="34.34" y="92.32" width="15.36" height="15.36" rx="2" transform="translate(-58.4 59.01) rotate(-45)"/></g></svg>