<svg xmlns="http://www.w3.org/2000/svg" viewBox="0 0 300 200"><defs><style>.cls-1{fill:#f0f0f0;}.cls-2{fill:#d9251d;}.cls-3{fill:#213572;}.cls-4{fill:none;}</style></defs><title>06-bahia-rounded</title><g id="rounded"><path class="cls-1" d="M150,0H280a20,20,0,0,1,20,20V66.67a0,0,0,0,1,0,0H150a0,0,0,0,1,0,0V0A0,0,0,0,1,150,0Z"/><rect class="cls-2" y="66.67" width="300" height="66.67"/><path class="cls-1" d="M0,133.33H300a0,0,0,0,1,0,0V180a20,20,0,0,1-20,20H20A20,20,0,0,1,0,180V133.33A0,0,0,0,1,0,133.33Z"/><path class="cls-3" d="M20,0H150a0,0,0,0,1,0,0V66.67a0,0,0,0,1,0,0H0a0,0,0,0,1,0,0V20A20,20,0,0,1,20,0Z"/><path class="cls-1" d="M75.77,18.86l2.83,8.72a.83.83,0,0,0,.79.57h9.09a.83.83,0,0,1,.49,1.5L81.61,35a.83.83,0,0,0-.3.93l2.81,8.64a.83.83,0,0,1-1.28.93l-7.35-5.34a.84.84,0,0,0-1,0L67.16,45.5a.83.83,0,0,1-1.28-.93l2.81-8.64a.83.83,0,0,0-.3-.93L61,29.65a.83.83,0,0,1,.49-1.5h9.09a.83.83,0,0,0,.79-.57l2.83-8.72a.81.81,0,0,1,1.54,0"/><circle class="cls-4" cx="75" cy="33.36" r="15"/><path class="cls-1" d="M35.77,18.86l2.83,8.72a.83.83,0,0,0,.79.57h9.09a.83.83,0,0,1,.49,1.5L41.61,35a.83.83,0,0,0-.3.93l2.81,8.64a.83.83,0,0,1-1.28.93l-7.35-5.34a.84.84,0,0,0-1,0L27.16,45.5a.83.83,0,0,1-1.28-.93l2.81-8.64a.83.83,0,0,0-.3-.93L21,29.65a.83.83,0,0,1,.49-1.5h9.09a.83.83,0,0,0,.79-.57l2.83-8.72a.81.81,0,0,1,1.54,0"/><circle class="cls-4" cx="35" cy="33.36" r="15"/><path class="cls-1" d="M115.77,18.86l2.83,8.72a.83.83,0,0,0,.79.57h9.09a.83.83,0,0,1,.49,1.5L121.61,35a.83.83,0,0,0-.3.93l2.81,8.64a.83.83,0,0,1-1.28.93l-7.35-5.34a.84.84,0,0,0-1,0l-7.35,5.34a.83.83,0,0,1-1.28-.93l2.81-8.64a.83.83,0,0,0-.3-.93L101,29.65a.83.83,0,0,1,.49-1.5h9.09a.83.83,0,0,0,.79-.57l2.83-8.72a.81.81,0,0,1,1.54,0"/><circle class="cls-4" cx="115" cy="33.36" r="15"/><rect class="cls-2" y="100" width="300" height="50"/><path class="cls-1" d="M0,150H300a0,0,0,0,1,0,0v30a20,20,0,0,1-20,20H20A20,20,0,0,1,0,180V150A0,0,0,0,1,0,150Z"/><path class="cls-2" d="M100,0H280a20,20,0,0,1,20,20V50a0,0,0,0,1,0,0H100a0,0,0,0,1,0,0V0A0,0,0,0,1,100,0Z"/><rect class="cls-1" x="100" y="50" width="200" height="50"/><path class="cls-3" d="M20,0h80a0,0,0,0,1,0,0V100a0,0,0,0,1,0,0H0a0,0,0,0,1,0,0V20A20,20,0,0,1,20,0Z"/><path class="cls-1" d="M45.79,16.43,12.14,74.71A4.86,4.86,0,0,0,16.35,82h67.3a4.86,4.86,0,0,0,4.21-7.29L54.21,16.43a4.86,4.86,0,0,0-8.42,0L12.14,74.71A4.86,4.86,0,0,0,16.35,82h67.3a4.86,4.86,0,0,0,4.21-7.29L54.21,16.43A4.86,4.86,0,0,0,45.79,16.43Z"/></g></svg>