<svg xmlns="http://www.w3.org/2000/svg" viewBox="0 0 300 200"><defs><style>.cls-1{fill:#009b43;}.cls-2{fill:#ffcf44;}.cls-3{fill:#f0f0f0;}.cls-4{fill:#00a2ce;}.cls-5{fill:#b89b53;}.cls-6{fill:#54a7aa;}.cls-7{fill:#89cbc9;}.cls-8{fill:none;}.cls-9{fill:#e3a172;}.cls-10{fill:#ffda44;}.cls-11{fill:#7b5e4c;}</style></defs><title>07-ceara-rounded</title><g id="rounded"><rect class="cls-1" x="0.25" width="300" height="200" rx="20"/><path class="cls-2" d="M148.68,179,24.4,102.55a3,3,0,0,1,0-5.1L148.68,21a3,3,0,0,1,3.14,0L276.1,97.45a3,3,0,0,1,0,5.1L151.82,179A3,3,0,0,1,148.68,179Z"/><path class="cls-3" d="M200.25,100a50,50,0,1,1-50-50,50,50,0,0,1,50,50"/><path class="cls-1" d="M177.24,102.59l-.32-.77c-1.12-2.7-2.51-6.07-2.19-9,.28-2.57,1.81-4.78,4.67-6.76a1.13,1.13,0,0,0,.25-1.63l-6.5-8.37a5.94,5.94,0,0,0-3.78-2.25,128.62,128.62,0,0,0-18.87-1.54,128.62,128.62,0,0,0-18.87,1.54,5.94,5.94,0,0,0-3.78,2.25l-6.5,8.37a1.13,1.13,0,0,0,.25,1.63c2.86,2,4.39,4.19,4.67,6.76.32,2.89-1.07,6.26-2.19,9l-.32.77c-1.68,4.09-3.06,7.81-3.06,11.94a9,9,0,0,0,.4,2.68c.73,2.4,2.46,4.66,5.28,6.91a57,57,0,0,0,8.68,5.43c.85.46,1.71.92,2.58,1.37,2.22,1.17,4.52,2.37,6.68,3.71a18.22,18.22,0,0,1,5.25,4.38,1.14,1.14,0,0,0,1.86,0,18.22,18.22,0,0,1,5.25-4.38c2.16-1.34,4.46-2.54,6.68-3.71.87-.45,1.73-.91,2.58-1.37a57,57,0,0,0,8.68-5.43c2.82-2.25,4.55-4.51,5.28-6.91a9,9,0,0,0,.4-2.68C180.3,110.4,178.92,106.68,177.24,102.59Z"/><path class="cls-4" d="M150.25,120.73c-7.86,0-14.25-8.31-14.25-18.52s6.39-18.52,14.25-18.52S164.5,92,164.5,102.21s-6.39,18.52-14.25,18.52"/><path class="cls-3" d="M150.25,122.73c-9,0-16.25-9.21-16.25-20.52s7.29-20.52,16.25-20.52,16.25,9.2,16.25,20.52S159.21,122.73,150.25,122.73Zm0-37c-6.75,0-12.25,7.41-12.25,16.52s5.5,16.52,12.25,16.52,12.25-7.41,12.25-16.52S157,85.69,150.25,85.69Z"/><path class="cls-5" d="M167.93,61.18a2,2,0,0,0-1.76-1.87,139.57,139.57,0,0,0-15.67-1,139.57,139.57,0,0,0-15.67,1,2,2,0,0,0-1.76,1.87c0,.35,0,.7,0,1a11.18,11.18,0,0,0,1.6,6,2,2,0,0,0,1.93.93,114.73,114.73,0,0,1,27.88,0,2,2,0,0,0,1.93-.93,11.18,11.18,0,0,0,1.6-6C168,61.88,168,61.53,167.93,61.18Z"/><path class="cls-6" d="M138,102.21c0,9.11,5.5,16.52,12.25,16.52s12.25-7.41,12.25-16.52Z"/><path class="cls-7" d="M150.25,85.69c-6.75,0-12.25,7.41-12.25,16.52h24.5C162.5,93.1,157,85.69,150.25,85.69Z"/><path class="cls-8" d="M150.25,102.21c0-4.7,4-8.72,9.53-10.35-2.24-3.76-5.68-6.17-9.53-6.17-6.75,0-12.25,7.41-12.25,16.52s5.5,16.52,12.25,16.52a9.4,9.4,0,0,0,3.85-.85A34.4,34.4,0,0,1,150.25,102.21Z"/><path class="cls-1" d="M150.25,102.21H162.5a20.22,20.22,0,0,0-2.72-10.35C154.21,93.49,150.25,97.51,150.25,102.21Z"/><path class="cls-9" d="M154.1,117.88c4.87-2.19,8.4-8.38,8.4-15.67H150.25A34.4,34.4,0,0,0,154.1,117.88Z"/><path class="cls-10" d="M144.13,97.21a5,5,0,0,0-5,5h10A5,5,0,0,0,144.13,97.21Z"/><path class="cls-3" d="M143.13,94.21h2a1,1,0,0,1,1,1v7a0,0,0,0,1,0,0h-4a0,0,0,0,1,0,0v-7A1,1,0,0,1,143.13,94.21Z"/><path class="cls-3" d="M144.2,111.13a.9.9,0,0,1-.4-.09.86.86,0,0,1-.43-.52,9.45,9.45,0,0,1,0-5.7.89.89,0,0,1,.67-.59h.15a.9.9,0,0,1,.68.32,7.88,7.88,0,0,0,3,2.34.86.86,0,0,1,.52.79.84.84,0,0,1-.52.79,7.88,7.88,0,0,0-3,2.34.86.86,0,0,1-.14.13A.9.9,0,0,1,144.2,111.13Z"/><line class="cls-8" x1="162.5" y1="102.21" x2="159.78" y2="91.86"/><path class="cls-3" d="M153.07,96.75a1.05,1.05,0,0,1-.7-.28,1,1,0,0,1,0-1.42A13.89,13.89,0,0,1,154,93.62a15.5,15.5,0,0,1,1.84-1.18,1,1,0,1,1,1,1.75,14,14,0,0,0-1.6,1,12.84,12.84,0,0,0-1.38,1.23A1,1,0,0,1,153.07,96.75Z"/><path class="cls-3" d="M156.21,99.21a1,1,0,0,1-1-1,3.92,3.92,0,0,0-1.32-3.06,4,4,0,0,0-3.12-1.38,1,1,0,0,1,0-2,5.87,5.87,0,0,1,4.53,2,5.81,5.81,0,0,1,1.91,4.47A1,1,0,0,1,156.21,99.21Z"/><circle class="cls-11" cx="156.73" cy="107.2" r="3.5"/><path class="cls-11" d="M155.73,107.17h2a0,0,0,0,1,0,0v5.66a1,1,0,0,1-1,1h0a1,1,0,0,1-1-1v-5.66A0,0,0,0,1,155.73,107.17Z"/><circle class="cls-3" cx="150.25" cy="130.88" r="2"/><circle class="cls-3" cx="140.39" cy="125.72" r="2"/><circle class="cls-3" cx="160.11" cy="125.72" r="2"/><circle class="cls-3" cx="131.21" cy="118.38" r="2"/><circle class="cls-3" cx="128.29" cy="107.49" r="2"/><circle class="cls-3" cx="130.22" cy="95.83" r="2"/><circle class="cls-3" cx="130.98" cy="84.96" r="2"/></g></svg>