<svg xmlns="http://www.w3.org/2000/svg" viewBox="0 0 300 200"><defs><style>.cls-1{fill:#009b43;}.cls-2{fill:#ffcf44;}.cls-3{fill:#f0f0f0;}.cls-4{fill:#00a2ce;}.cls-5{fill:#b89b53;}.cls-6{fill:#54a7aa;}.cls-7{fill:#89cbc9;}.cls-8{fill:none;}</style></defs><title>07-ceara-rounded-v2</title><g id="Layer_18" data-name="Layer 18"><rect class="cls-1" width="300" height="200" rx="20"/><path class="cls-2" d="M148.43,179,24.15,102.55a3,3,0,0,1,0-5.1L148.43,21a3,3,0,0,1,3.14,0L275.85,97.45a3,3,0,0,1,0,5.1L151.57,179A3,3,0,0,1,148.43,179Z"/><path class="cls-3" d="M200,100a50,50,0,1,1-50-50,50,50,0,0,1,50,50"/><path class="cls-1" d="M177,102.59l-.32-.77c-1.12-2.7-2.51-6.07-2.19-9,.28-2.57,1.81-4.78,4.67-6.76a1.13,1.13,0,0,0,.25-1.63l-6.5-8.37a5.94,5.94,0,0,0-3.78-2.25,128.62,128.62,0,0,0-18.87-1.54,128.62,128.62,0,0,0-18.87,1.54,5.94,5.94,0,0,0-3.78,2.25l-6.5,8.37a1.13,1.13,0,0,0,.25,1.63c2.86,2,4.39,4.19,4.67,6.76.32,2.89-1.07,6.26-2.19,9l-.32.77c-1.68,4.09-3.06,7.81-3.06,11.94a9,9,0,0,0,.4,2.68c.73,2.4,2.46,4.66,5.28,6.91a57,57,0,0,0,8.68,5.43c.85.46,1.71.92,2.58,1.37,2.22,1.17,4.52,2.37,6.68,3.71a18.22,18.22,0,0,1,5.25,4.38,1.14,1.14,0,0,0,1.86,0,18.22,18.22,0,0,1,5.25-4.38c2.16-1.34,4.46-2.54,6.68-3.71.87-.45,1.73-.91,2.58-1.37a57,57,0,0,0,8.68-5.43c2.82-2.25,4.55-4.51,5.28-6.91a9,9,0,0,0,.4-2.68C180.05,110.4,178.67,106.68,177,102.59Z"/><path class="cls-4" d="M150,120.73c-7.86,0-14.25-8.31-14.25-18.52S142.14,83.69,150,83.69s14.25,8.3,14.25,18.52-6.39,18.52-14.25,18.52"/><path class="cls-3" d="M150,122.73c-9,0-16.25-9.21-16.25-20.52S141,81.69,150,81.69s16.25,9.2,16.25,20.52S159,122.73,150,122.73Zm0-37c-6.75,0-12.25,7.41-12.25,16.52s5.5,16.52,12.25,16.52,12.25-7.41,12.25-16.52S156.75,85.69,150,85.69Z"/><path class="cls-5" d="M167.68,61.18a2,2,0,0,0-1.76-1.87,139.57,139.57,0,0,0-15.67-1,139.57,139.57,0,0,0-15.67,1,2,2,0,0,0-1.76,1.87c0,.35,0,.7,0,1a11.18,11.18,0,0,0,1.6,6,2,2,0,0,0,1.93.93,114.73,114.73,0,0,1,27.88,0,2,2,0,0,0,1.93-.93,11.18,11.18,0,0,0,1.6-6C167.72,61.88,167.71,61.53,167.68,61.18Z"/><path class="cls-6" d="M137.75,102.21c0,9.11,5.5,16.52,12.25,16.52s12.25-7.41,12.25-16.52Z"/><path class="cls-7" d="M150,85.69c-6.75,0-12.25,7.41-12.25,16.52h24.5C162.25,93.1,156.75,85.69,150,85.69Z"/><line class="cls-8" x1="162.25" y1="102.21" x2="159.53" y2="91.86"/><circle class="cls-3" cx="150" cy="130.88" r="2"/><circle class="cls-3" cx="140.14" cy="125.72" r="2"/><circle class="cls-3" cx="159.86" cy="125.72" r="2"/><circle class="cls-3" cx="130.96" cy="118.38" r="2"/><circle class="cls-3" cx="128.04" cy="107.49" r="2"/><circle class="cls-3" cx="129.97" cy="95.83" r="2"/><circle class="cls-3" cx="130.73" cy="84.96" r="2"/></g></svg>