<svg xmlns="http://www.w3.org/2000/svg" viewBox="0 0 300 200"><defs><style>.cls-1{fill:#f0f0f0;}.cls-2{fill:#009b43;}.cls-3{fill:#ffcf44;}</style></defs><title>08-distrito-federal-rounded</title><g id="rounded"><rect class="cls-1" width="300" height="200" rx="20"/><rect class="cls-2" x="100" y="50" width="100" height="100" rx="10"/><path class="cls-3" d="M197.12,97.88l-7-7A3,3,0,0,0,188,90H160V62a3,3,0,0,0-.88-2.12l-7-7a3,3,0,0,0-4.24,0l-7,7A3,3,0,0,0,140,62V90H112a3,3,0,0,0-2.12.88l-7,7a3,3,0,0,0,0,4.24l7,7A3,3,0,0,0,112,110h28v28a3,3,0,0,0,.88,2.12l7,7a3,3,0,0,0,4.24,0l7-7A3,3,0,0,0,160,138V110h28a3,3,0,0,0,2.12-.88l7-7A3,3,0,0,0,197.12,97.88Z"/><path class="cls-2" d="M168.23,98.23a2.5,2.5,0,0,1,0,3.54L160,110l-8.23,8.23a2.5,2.5,0,0,1-3.54,0L140,110l-8.23-8.23a2.5,2.5,0,0,1,0-3.54L140,90l8.23-8.23a2.5,2.5,0,0,1,3.54,0L160,90Z"/></g></svg>