<svg xmlns="http://www.w3.org/2000/svg" viewBox="0 0 300 200"><defs><style>.cls-1{fill:#ea5a8d;}.cls-2{fill:#01a2ce;}.cls-3{fill:#f0f0f0;}</style></defs><title>09-espirito-santo-rounded-v2</title><g id="Layer_18" data-name="Layer 18"><path class="cls-1" d="M20,200H280a20,20,0,0,0,20-20V133.33H0V180A20,20,0,0,0,20,200Z"/><path class="cls-2" d="M0,66.67H300V20A20,20,0,0,0,280,0H20A20,20,0,0,0,0,20Z"/><rect class="cls-3" y="66.67" width="300" height="66.67"/><path class="cls-2" d="M54.37,117a1.62,1.62,0,0,1-1.29.13,1.66,1.66,0,0,1-.92-.94l-3.61-7.67L46,109.71a1.35,1.35,0,1,1-1.15-2.45L53,103.45a1.35,1.35,0,1,1,1.15,2.44l-2.55,1.2,3.61,7.67a1.68,1.68,0,0,1,.14,1.31A1.63,1.63,0,0,1,54.37,117Z"/><path class="cls-2" d="M62.87,113.17a1.52,1.52,0,0,1-2.16-.94l-3.54-8.82a1.5,1.5,0,0,1,.93-2.18l4.1-1.65a4.93,4.93,0,0,1,3.49-.27,3.73,3.73,0,0,1,2.19,2.28,3.93,3.93,0,0,1,.23,2.48,3.71,3.71,0,0,1-1.41,2,2.64,2.64,0,0,1,2,.68l1.44,1.17a1.94,1.94,0,0,1,.62.85,1.06,1.06,0,0,1-.06.89,1.58,1.58,0,0,1-.87.69,2.16,2.16,0,0,1-1.16.17,2.55,2.55,0,0,1-1.07-.55L65,107.8a1.21,1.21,0,0,0-.71-.31,1.82,1.82,0,0,0-.77.15l-.92.37,1.21,3a1.75,1.75,0,0,1,.07,1.32A1.69,1.69,0,0,1,62.87,113.17Zm-1.16-7.34,2-.81c1.21-.49,1.63-1.22,1.24-2.17s-1.18-1.18-2.39-.69l-2,.82Z"/><path class="cls-2" d="M74.15,108.74a1.3,1.3,0,0,1-1.81-1.52l1.21-10.57A2.45,2.45,0,0,1,74,95.43a1.84,1.84,0,0,1,.94-.65,1.87,1.87,0,0,1,1.12,0,2.5,2.5,0,0,1,1.08.73l7.3,7.74a1.43,1.43,0,0,1,.49,1.36,1.31,1.31,0,0,1-1,.91,1.68,1.68,0,0,1-1.16,0,2.79,2.79,0,0,1-1-.77l-1-1.12-5.38,1.79-.12,1.48a3.26,3.26,0,0,1-.3,1.2A1.42,1.42,0,0,1,74.15,108.74ZM76,98.22l-.34,4.46,3.32-1.1-2.94-3.37Z"/><path class="cls-2" d="M89,103.88a1.51,1.51,0,0,1-2.11-1.21l-2.37-9a1.52,1.52,0,0,1,1.23-2.09L90,90.49a5,5,0,0,1,3.3.05,2.9,2.9,0,0,1,1.7,2,3.05,3.05,0,0,1,0,1.8,2.9,2.9,0,0,1-1,1.41,2.93,2.93,0,0,1,2.91,2.32,3.22,3.22,0,0,1-.49,2.86,5.08,5.08,0,0,1-2.91,1.77Zm-.56-7.76,2.28-.6a2.21,2.21,0,0,0,1.19-.65A1.19,1.19,0,0,0,92,93.8a1.17,1.17,0,0,0-.66-.84A2.26,2.26,0,0,0,90,93l-2.28.61Zm1.33,5,2.59-.69a2.07,2.07,0,0,0,1.21-.68,1.31,1.31,0,0,0,.14-1.13,1.25,1.25,0,0,0-.68-.9,2.14,2.14,0,0,0-1.38,0L89,98.47Z"/><path class="cls-2" d="M100.78,101a1.31,1.31,0,0,1-1.61-1.74L101.68,89a2.53,2.53,0,0,1,.57-1.16,1.93,1.93,0,0,1,1-.53,1.85,1.85,0,0,1,1.12.11,2.46,2.46,0,0,1,1,.85l6.28,8.59a1.41,1.41,0,0,1,.32,1.41,1.36,1.36,0,0,1-1.06.79,1.72,1.72,0,0,1-1.15-.1,2.86,2.86,0,0,1-.88-.89l-.83-1.23-5.56,1.11-.3,1.45a3.5,3.5,0,0,1-.45,1.16A1.53,1.53,0,0,1,100.78,101Zm3.16-10.21-.89,4.38,3.43-.69-2.5-3.7Z"/><path class="cls-2" d="M116,98.07a1.69,1.69,0,0,1-1.29-.27,1.66,1.66,0,0,1-.6-1.16l-1.3-9.27a1.69,1.69,0,0,1,.25-1.29,1.72,1.72,0,0,1,1.16-.6,1.65,1.65,0,0,1,1.27.26,1.74,1.74,0,0,1,.6,1.17l1.15,8.2,4.35-.61a1.46,1.46,0,0,1,1.09.21,1.33,1.33,0,0,1,.51,1,1.36,1.36,0,0,1-.22,1.06,1.47,1.47,0,0,1-1,.51Z"/><path class="cls-2" d="M127.2,96.79a1.61,1.61,0,0,1-1.26-.33,1.72,1.72,0,0,1-.53-1.22l-.78-9.6a1.51,1.51,0,0,1,1.51-1.82,1.7,1.7,0,0,1,1.26.33,1.74,1.74,0,0,1,.53,1.22l.27,3.36,5.22-.43L133.15,85a1.66,1.66,0,0,1,.33-1.29,1.64,1.64,0,0,1,1.18-.53,1.58,1.58,0,0,1,1.25.33,1.71,1.71,0,0,1,.52,1.22l.79,9.6a1.79,1.79,0,0,1-.32,1.29,1.62,1.62,0,0,1-1.18.53,1.66,1.66,0,0,1-1.26-.33,1.74,1.74,0,0,1-.53-1.22L133.64,91l-5.22.43.29,3.53a1.7,1.7,0,0,1-.32,1.29A1.61,1.61,0,0,1,127.2,96.79Z"/><path class="cls-2" d="M141,95.81a1.3,1.3,0,0,1-1.27-2L144,84.1a2.41,2.41,0,0,1,.78-1,1.84,1.84,0,0,1,1.09-.35A1.93,1.93,0,0,1,147,83a2.58,2.58,0,0,1,.81,1l4.64,9.57a1.41,1.41,0,0,1,.06,1.45,1.31,1.31,0,0,1-1.17.59,1.68,1.68,0,0,1-1.12-.31,2.68,2.68,0,0,1-.71-1l-.6-1.36-5.67.1-.55,1.38a3.28,3.28,0,0,1-.65,1A1.43,1.43,0,0,1,141,95.81Zm4.94-9.48-1.66,4.15,3.49-.06-1.8-4.09Z"/><path class="cls-2" d="M162.5,95.86A1.52,1.52,0,0,1,160.89,94l.62-9.25a1.52,1.52,0,0,1,1.84-1.59l6.08.4a1.13,1.13,0,0,1,1.21,1.34,1.14,1.14,0,0,1-1.38,1.21l-4.65-.31-.16,2.41,4.26.28a1.28,1.28,0,1,1-.17,2.55l-4.26-.28-.17,2.6,4.65.31a1.28,1.28,0,1,1-.17,2.55Z"/><path class="cls-2" d="M184.78,98.4a7.53,7.53,0,0,1-3.46-1.34,5.51,5.51,0,0,1-1.95-2.6,7.87,7.87,0,0,1,1-6.83A5.67,5.67,0,0,1,183,85.72a7.72,7.72,0,0,1,3.7-.27,8.31,8.31,0,0,1,1.67.45,5.62,5.62,0,0,1,1.48.79,1.6,1.6,0,0,1,.59.78,1.48,1.48,0,0,1,0,.86,1.56,1.56,0,0,1-.43.72,1.23,1.23,0,0,1-.71.35,1.14,1.14,0,0,1-.84-.24,4.87,4.87,0,0,0-2.08-.84,3.22,3.22,0,0,0-2.63.57,4.76,4.76,0,0,0-.8,5.37,3.21,3.21,0,0,0,2.35,1.31,4.77,4.77,0,0,0,1,0,4.35,4.35,0,0,0,1.11-.21,1.51,1.51,0,0,1,1,0,1.24,1.24,0,0,1,.62.53,1.45,1.45,0,0,1,.22.79,1.52,1.52,0,0,1-.24.81,1.41,1.41,0,0,1-.75.56,5.69,5.69,0,0,1-1.63.36A8.24,8.24,0,0,1,184.78,98.4Z"/><path class="cls-2" d="M196.94,100.64a6.84,6.84,0,0,1-3.13-1.5,5.77,5.77,0,0,1-1.73-2.72,7.76,7.76,0,0,1,1.42-6.74,5.61,5.61,0,0,1,2.68-1.75,6.78,6.78,0,0,1,3.48-.09,6.68,6.68,0,0,1,3.13,1.49,5.65,5.65,0,0,1,1.74,2.7,7,7,0,0,1,.08,3.54,7.13,7.13,0,0,1-1.51,3.19,5.82,5.82,0,0,1-2.69,1.78A6.85,6.85,0,0,1,196.94,100.64Zm.58-2.71a2.68,2.68,0,0,0,2.36-.52A5.24,5.24,0,0,0,201,92a3,3,0,0,0-4.33-.92,4.34,4.34,0,0,0-1.35,2.54,4.41,4.41,0,0,0,.2,2.89A2.68,2.68,0,0,0,197.52,97.93Z"/><path class="cls-2" d="M207.31,103a1.37,1.37,0,0,1-1.06-1.92l2.67-9.44a1.66,1.66,0,0,1,.71-1.06,1.35,1.35,0,0,1,1.12-.13,1.64,1.64,0,0,1,.8.45,3.84,3.84,0,0,1,.5.89l3.24,7.67,1.6-5.66a1.37,1.37,0,0,1,1.9-1.08,1.54,1.54,0,0,1,1,.7,1.64,1.64,0,0,1,.06,1.21l-2.71,9.6a1.63,1.63,0,0,1-.65,1,1.24,1.24,0,0,1-1,.12,1.83,1.83,0,0,1-.87-.47,2.84,2.84,0,0,1-.52-.9l-3.24-7.66-1.6,5.64A1.36,1.36,0,0,1,207.31,103Z"/><path class="cls-2" d="M221.2,107.19a1.66,1.66,0,0,1-1-.82,1.74,1.74,0,0,1,0-1.35l3.08-8.91a1.51,1.51,0,0,1,2.19-1l5.67,2a1.13,1.13,0,0,1,.81,1.61,1.14,1.14,0,0,1-1.65.8L226.11,98l-.83,2.42,3.79,1.31a1.13,1.13,0,0,1,.82,1.61,1.15,1.15,0,0,1-1.65.79l-3.79-1.31-1.14,3.3A1.49,1.49,0,0,1,221.2,107.19Z"/><path class="cls-2" d="M231.7,111a1.65,1.65,0,0,1-1-.85,1.73,1.73,0,0,1,.06-1.33l3.5-9a1.51,1.51,0,0,1,2.16-1,1.51,1.51,0,0,1,.92,2.18l-3.5,9a1.51,1.51,0,0,1-2.16,1Z"/><path class="cls-2" d="M236.64,112.93a1.31,1.31,0,0,1-.31-2.35l8-7a2.37,2.37,0,0,1,1.14-.61,1.74,1.74,0,0,1,1.13.15,1.87,1.87,0,0,1,.86.73,2.5,2.5,0,0,1,.3,1.26l.17,10.64a1.42,1.42,0,0,1-.55,1.34,1.34,1.34,0,0,1-1.32,0,1.63,1.63,0,0,1-.88-.75,2.67,2.67,0,0,1-.21-1.23l0-1.49-5.18-2.3-1.08,1a3.47,3.47,0,0,1-1,.68A1.51,1.51,0,0,1,236.64,112.93Zm8.48-6.51-3.26,3.06,3.19,1.42.1-4.47Z"/></g></svg>