<svg xmlns="http://www.w3.org/2000/svg" viewBox="0 0 300 200"><defs><style>.cls-1{fill:#ffcf44;}.cls-2{fill:#009b43;}.cls-3{fill:#213572;}.cls-4{fill:#f0f0f0;}.cls-5{fill:none;}</style></defs><title>10-goias-rounded</title><g id="rounded"><rect class="cls-1" y="100" width="300" height="20"/><rect class="cls-1" x="100" y="60" width="200" height="20"/><rect class="cls-1" x="100" y="20" width="200" height="20"/><rect class="cls-2" y="120" width="300" height="20"/><rect class="cls-2" x="100" y="80" width="200" height="20"/><rect class="cls-2" x="100" y="40" width="200" height="20"/><rect class="cls-2" y="160" width="300" height="20"/><path class="cls-2" d="M100,20H300A20,20,0,0,0,280,0H100Z"/><rect class="cls-1" y="140" width="300" height="20"/><path class="cls-1" d="M20,200H280a20,20,0,0,0,20-20H0A20,20,0,0,0,20,200Z"/><path class="cls-3" d="M20,0h80a0,0,0,0,1,0,0V100a0,0,0,0,1,0,0H0a0,0,0,0,1,0,0V20A20,20,0,0,1,20,0Z"/><path class="cls-4" d="M50.64,37.94,53,45.2a.69.69,0,0,0,.66.48h7.57a.69.69,0,0,1,.41,1.25l-6.13,4.46a.69.69,0,0,0-.25.77l2.34,7.2a.7.7,0,0,1-1.07.78l-6.12-4.45a.69.69,0,0,0-.82,0l-6.12,4.45a.7.7,0,0,1-1.07-.78l2.34-7.2a.69.69,0,0,0-.25-.77l-6.13-4.46a.69.69,0,0,1,.41-1.25h7.57A.69.69,0,0,0,47,45.2l2.36-7.26a.67.67,0,0,1,1.28,0"/><circle class="cls-5" cx="50" cy="50.02" r="12.5"/><path class="cls-4" d="M70.64,17.94,73,25.2a.69.69,0,0,0,.66.48h7.57a.69.69,0,0,1,.41,1.25l-6.13,4.46a.69.69,0,0,0-.25.77l2.34,7.2a.7.7,0,0,1-1.07.78l-6.12-4.45a.69.69,0,0,0-.82,0l-6.12,4.45a.7.7,0,0,1-1.07-.78l2.34-7.2a.69.69,0,0,0-.25-.77l-6.13-4.46a.69.69,0,0,1,.41-1.25h7.57A.69.69,0,0,0,67,25.2l2.36-7.26a.67.67,0,0,1,1.28,0"/><circle class="cls-5" cx="70" cy="30.02" r="12.5"/><path class="cls-4" d="M30.64,17.94,33,25.2a.69.69,0,0,0,.66.48h7.57a.69.69,0,0,1,.41,1.25l-6.13,4.46a.69.69,0,0,0-.25.77l2.34,7.2a.7.7,0,0,1-1.07.78l-6.12-4.45a.69.69,0,0,0-.82,0l-6.12,4.45a.7.7,0,0,1-1.07-.78l2.34-7.2a.69.69,0,0,0-.25-.77l-6.13-4.46a.69.69,0,0,1,.41-1.25h7.57A.69.69,0,0,0,27,25.2l2.36-7.26a.67.67,0,0,1,1.28,0"/><circle class="cls-5" cx="30" cy="30.02" r="12.5"/><path class="cls-4" d="M70.64,57.94,73,65.2a.69.69,0,0,0,.66.48h7.57a.69.69,0,0,1,.41,1.25l-6.13,4.46a.69.69,0,0,0-.25.77l2.34,7.2a.7.7,0,0,1-1.07.78l-6.12-4.45a.69.69,0,0,0-.82,0l-6.12,4.45a.7.7,0,0,1-1.07-.78l2.34-7.2a.69.69,0,0,0-.25-.77l-6.13-4.46a.69.69,0,0,1,.41-1.25h7.57A.69.69,0,0,0,67,65.2l2.36-7.26a.67.67,0,0,1,1.28,0"/><circle class="cls-5" cx="70" cy="70.02" r="12.5"/><path class="cls-4" d="M30.64,57.94,33,65.2a.69.69,0,0,0,.66.48h7.57a.69.69,0,0,1,.41,1.25l-6.13,4.46a.69.69,0,0,0-.25.77l2.34,7.2a.7.7,0,0,1-1.07.78l-6.12-4.45a.69.69,0,0,0-.82,0l-6.12,4.45a.7.7,0,0,1-1.07-.78l2.34-7.2a.69.69,0,0,0-.25-.77l-6.13-4.46a.69.69,0,0,1,.41-1.25h7.57A.69.69,0,0,0,27,65.2l2.36-7.26a.67.67,0,0,1,1.28,0"/><circle class="cls-5" cx="30" cy="70.02" r="12.5"/></g></svg>