<svg xmlns="http://www.w3.org/2000/svg" viewBox="0 0 300 200"><defs><style>.cls-1{fill:#1d1d1b;}.cls-2{fill:#f0f0f0;}.cls-3{fill:#d9251d;}.cls-4{fill:#213572;}.cls-5{fill:none;}</style></defs><title>11-maranhao-rounded</title><g id="rounded"><rect class="cls-1" x="100" y="44.51" width="200" height="22.22"/><rect class="cls-2" x="100" y="22.22" width="200" height="22.22"/><rect class="cls-2" x="100" y="66.73" width="200" height="22.22"/><rect class="cls-2" y="111.11" width="300" height="22.22"/><rect class="cls-2" y="155.56" width="300" height="22.22"/><path class="cls-3" d="M100,88.89V95a5,5,0,0,1-5,5H0v11.11H300V88.89Z"/><rect class="cls-1" y="133.33" width="300" height="22.22"/><path class="cls-3" d="M20,200H280a20,20,0,0,0,20-20v-2.22H0V180A20,20,0,0,0,20,200Z"/><path class="cls-3" d="M100,22.22H300V20A20,20,0,0,0,280,0H100Z"/><path class="cls-4" d="M20,0h80a0,0,0,0,1,0,0V95a5,5,0,0,1-5,5H0a0,0,0,0,1,0,0V20A20,20,0,0,1,20,0Z"/><path class="cls-2" d="M51.53,21.06,57.2,38.49a1.67,1.67,0,0,0,1.58,1.15H77a1.66,1.66,0,0,1,1,3L63.23,53.33a1.66,1.66,0,0,0-.61,1.86l5.62,17.29a1.66,1.66,0,0,1-2.56,1.85L51,63.65a1.68,1.68,0,0,0-2,0L34.32,74.33a1.66,1.66,0,0,1-2.56-1.86l5.62-17.28a1.67,1.67,0,0,0-.61-1.86L22.06,42.64a1.66,1.66,0,0,1,1-3H41.22a1.67,1.67,0,0,0,1.58-1.15l5.67-17.43a1.61,1.61,0,0,1,3.06,0"/><circle class="cls-5" cx="50" cy="50.06" r="30"/></g></svg>