<svg xmlns="http://www.w3.org/2000/svg" viewBox="0 0 300 200"><defs><style>.cls-1{fill:#213572;}.cls-2{fill:#f0f0f0;}.cls-3{fill:#009b43;}.cls-4{fill:#ffcf44;}.cls-5{fill:none;}</style></defs><title>12-mato-grosso-rounded</title><g id="rounded"><rect class="cls-1" x="0.25" width="300" height="200" rx="20"/><path class="cls-2" d="M148.43,179,24.15,102.55a3,3,0,0,1,0-5.1L148.43,21a3,3,0,0,1,3.14,0L275.85,97.45a3,3,0,0,1,0,5.1L151.57,179A3,3,0,0,1,148.43,179Z"/><path class="cls-3" d="M200,100a50,50,0,1,1-50-50,50,50,0,0,1,50,50"/><path class="cls-4" d="M152.3,56.59l8.5,26.14a2.48,2.48,0,0,0,2.37,1.72h27.27A2.49,2.49,0,0,1,191.9,89l-22.06,16a2.51,2.51,0,0,0-.91,2.79l8.43,25.93a2.49,2.49,0,0,1-3.84,2.79l-22.06-16a2.51,2.51,0,0,0-2.93,0l-22.06,16a2.49,2.49,0,0,1-3.83-2.79l8.42-25.93a2.49,2.49,0,0,0-.9-2.79L108.1,89a2.49,2.49,0,0,1,1.46-4.51h27.27a2.48,2.48,0,0,0,2.37-1.72l8.5-26.14a2.42,2.42,0,0,1,4.6,0"/><circle class="cls-5" cx="150" cy="100.09" r="45"/></g></svg>