<svg xmlns="http://www.w3.org/2000/svg" viewBox="0 0 300 200"><defs><style>.cls-1{fill:#01a2ce;}.cls-2{fill:#f0f0f0;}.cls-3{fill:#009b43;}.cls-4{fill:#ffcf44;}.cls-5{fill:none;}</style></defs><title>13-mato-grosso-do-sul-rounded</title><g id="rounded"><path class="cls-1" d="M280,0H200L5.86,194.14A19.94,19.94,0,0,0,20,200H280a20,20,0,0,0,20-20V20A20,20,0,0,0,280,0Z"/><path class="cls-2" d="M200,0H150L0,150v30a19.94,19.94,0,0,0,5.86,14.14Z"/><path class="cls-3" d="M20,0A20,20,0,0,0,0,20V150L150,0Z"/><path class="cls-4" d="M251.53,121l5.67,17.43a1.65,1.65,0,0,0,1.58,1.15H277a1.66,1.66,0,0,1,1,3l-14.7,10.68a1.66,1.66,0,0,0-.61,1.86l5.62,17.29a1.66,1.66,0,0,1-2.56,1.86L251,163.59a1.68,1.68,0,0,0-2,0l-14.7,10.69a1.66,1.66,0,0,1-2.56-1.86l5.62-17.29a1.67,1.67,0,0,0-.61-1.86l-14.71-10.68a1.67,1.67,0,0,1,1-3h18.18a1.65,1.65,0,0,0,1.58-1.15L248.47,121a1.61,1.61,0,0,1,3.06,0"/><circle class="cls-5" cx="250" cy="150" r="30"/></g></svg>