<svg xmlns="http://www.w3.org/2000/svg" viewBox="0 0 300 200"><defs><style>.cls-1{fill:#d9251d;}.cls-2{fill:#f0f0f0;}.cls-3{fill:#213572;}.cls-4{fill:none;}</style></defs><title>15-para-rounded</title><g id="rounded"><path class="cls-1" d="M300,20A20,20,0,0,0,280,0H64.9L300,156.73Z"/><path class="cls-1" d="M0,180a20,20,0,0,0,20,20H235.1L0,43.27Z"/><path class="cls-2" d="M64.9,0H20A20,20,0,0,0,0,20V43.27L235.1,200H280a20,20,0,0,0,20-20V156.73Z"/><path class="cls-3" d="M151.53,71.06l5.67,17.43a1.67,1.67,0,0,0,1.58,1.15H177a1.66,1.66,0,0,1,1,3l-14.7,10.69a1.66,1.66,0,0,0-.61,1.86l5.62,17.29a1.66,1.66,0,0,1-2.56,1.85L151,113.65a1.68,1.68,0,0,0-2,0l-14.7,10.68a1.66,1.66,0,0,1-2.56-1.86l5.62-17.28a1.67,1.67,0,0,0-.61-1.86L122.06,92.64a1.66,1.66,0,0,1,1-3h18.18a1.67,1.67,0,0,0,1.58-1.15l5.67-17.43a1.61,1.61,0,0,1,3.06,0"/><circle class="cls-4" cx="150" cy="100.06" r="30"/></g></svg>