<svg xmlns="http://www.w3.org/2000/svg" viewBox="0 0 300 200"><defs><style>.cls-1{fill:#d9251d;}.cls-2{fill:#1d1d1b;}.cls-3{fill:#f0f0f0;}</style></defs><title>16-paraiba-rounded</title><g id="rounded"><path class="cls-1" d="M100,200H280a20,20,0,0,0,20-20V20A20,20,0,0,0,280,0H100Z"/><path class="cls-2" d="M20,200h80V0H20A20,20,0,0,0,0,20V180A20,20,0,0,0,20,200Z"/><path class="cls-3" d="M163.59,109.94a2.09,2.09,0,0,1-2.36-2.39v-15a2.63,2.63,0,0,1,.6-1.86,2.1,2.1,0,0,1,1.6-.64,2.4,2.4,0,0,1,1.36.33,5.63,5.63,0,0,1,1.11,1.1l7.95,9.93v-9a2.07,2.07,0,0,1,2.34-2.36,2.33,2.33,0,0,1,1.75.61,2.47,2.47,0,0,1,.59,1.75v15.24a2.42,2.42,0,0,1-.55,1.67,1.89,1.89,0,0,1-1.49.61,2.81,2.81,0,0,1-1.47-.33,4.59,4.59,0,0,1-1.14-1.1l-7.95-9.93v9A2.09,2.09,0,0,1,163.59,109.94Z"/><path class="cls-3" d="M184.72,109.7a2.32,2.32,0,0,1-2.64-2.62V92.92a2.32,2.32,0,0,1,2.64-2.62H194a1.73,1.73,0,0,1,2,1.93,1.75,1.75,0,0,1-2,2h-7.12V97.9h6.52a2,2,0,1,1,0,3.9h-6.52v4H194a2,2,0,1,1,0,3.91Z"/><path class="cls-3" d="M208.93,110a11.86,11.86,0,0,1-5.66-1.24,8.33,8.33,0,0,1-3.53-3.47,11.78,11.78,0,0,1,.07-10.54,8.64,8.64,0,0,1,3.67-3.51A12.4,12.4,0,0,1,209.26,90a16,16,0,0,1,2.8.26,10,10,0,0,1,2.81,1,1.83,1.83,0,0,1,1,.92,2.13,2.13,0,0,1,.17,1.25,2.43,2.43,0,0,1-.48,1.17,2,2,0,0,1-1,.7,2,2,0,0,1-1.41-.16,8.81,8.81,0,0,0-3.83-.8,5.31,5.31,0,0,0-4.13,1.48,6.17,6.17,0,0,0-1.37,4.3,5.85,5.85,0,0,0,1.38,4.23,5.35,5.35,0,0,0,4.07,1.43,11.76,11.76,0,0,0,2.83-.38v-3.06h-1.92c-1.31,0-2-.59-2-1.78s.65-1.76,2-1.76h4.07a1.75,1.75,0,0,1,2,2v6.08a2.6,2.6,0,0,1-.35,1.4,1.87,1.87,0,0,1-1.08.82,17.1,17.1,0,0,1-2.82.69A18,18,0,0,1,208.93,110Z"/><path class="cls-3" d="M228.93,110a10.32,10.32,0,0,1-5.16-1.25,8.83,8.83,0,0,1-3.45-3.51,10.67,10.67,0,0,1-1.24-5.25,10.88,10.88,0,0,1,1.22-5.27,8.59,8.59,0,0,1,3.46-3.48,11.36,11.36,0,0,1,10.32,0,8.71,8.71,0,0,1,3.46,3.48,11.86,11.86,0,0,1,0,10.52,8.92,8.92,0,0,1-3.46,3.51A10.31,10.31,0,0,1,228.93,110Zm0-4.24a4.11,4.11,0,0,0,3.37-1.52,6.68,6.68,0,0,0,1.22-4.25,6.61,6.61,0,0,0-1.21-4.24,4.55,4.55,0,0,0-6.77,0,6.67,6.67,0,0,0-1.21,4.24,6.74,6.74,0,0,0,1.21,4.25A4.11,4.11,0,0,0,228.93,105.76Z"/></g></svg>