<svg xmlns="http://www.w3.org/2000/svg" viewBox="0 0 300 200"><defs><style>.cls-1{fill:#009b43;}.cls-2{fill:#f0f0f0;}.cls-3{fill:#213572;}</style></defs><title>17-parana-rounded</title><g id="rounded"><path class="cls-1" d="M300,20A20,20,0,0,0,280,0H90.14L300,140Z"/><path class="cls-1" d="M0,180a20,20,0,0,0,20,20H209.86L0,60.09Z"/><path class="cls-2" d="M90.14,0H20A20,20,0,0,0,0,20V60.09L209.86,200H280a20,20,0,0,0,20-20V140Z"/><path class="cls-3" d="M190,101.46c0-.49,0-1,0-1.46a40,40,0,0,0-75-19.35c2.44-.14,4.72-.21,6.93-.21A120.11,120.11,0,0,1,190,101.46Z"/><path class="cls-3" d="M121.92,92.44c-3.63,0-7.34.19-11,.56h-.1a1,1,0,0,1-.17,0,40,40,0,0,0,76.75,21.26.85.85,0,0,1-.25-.13A108.09,108.09,0,0,0,121.92,92.44Z"/></g></svg>