<svg xmlns="http://www.w3.org/2000/svg" viewBox="0 0 300 200"><defs><style>.cls-1{fill:#213572;}.cls-2{fill:#f0f0f0;}.cls-3{fill:#ffcf44;}.cls-4{fill:none;}.cls-5{fill:#d9251d;}.cls-6{fill:#009b43;}</style></defs><title>18-pernambuco-rounded</title><g id="rounded"><path class="cls-1" d="M20,0H280a20,20,0,0,1,20,20V133.33a0,0,0,0,1,0,0H0a0,0,0,0,1,0,0V20A20,20,0,0,1,20,0Z"/><path class="cls-2" d="M0,133.33H300a0,0,0,0,1,0,0V180a20,20,0,0,1-20,20H20A20,20,0,0,1,0,180V133.33A0,0,0,0,1,0,133.33Z"/><path class="cls-3" d="M150.51,7l1.89,5.81a.55.55,0,0,0,.53.38H159a.55.55,0,0,1,.32,1l-4.9,3.57a.54.54,0,0,0-.2.62l1.87,5.76a.55.55,0,0,1-.85.62l-4.9-3.56a.57.57,0,0,0-.66,0l-4.9,3.56a.55.55,0,0,1-.85-.62l1.87-5.76a.55.55,0,0,0-.2-.62l-4.9-3.57a.55.55,0,0,1,.32-1h6.06a.55.55,0,0,0,.53-.38L149.49,7a.53.53,0,0,1,1,0"/><circle class="cls-4" cx="150" cy="16.69" r="10"/><path class="cls-5" d="M150,43.33a124.55,124.55,0,0,1,119.65,90H280a134.54,134.54,0,0,0-260.06,0H30.35A124.55,124.55,0,0,1,150,43.33Z"/><path class="cls-3" d="M150,43.33a124.55,124.55,0,0,0-119.65,90H40.79a114.54,114.54,0,0,1,218.42,0h10.44A124.55,124.55,0,0,0,150,43.33Z"/><path class="cls-6" d="M150,63.33a104.54,104.54,0,0,1,98.66,70h10.55a114.54,114.54,0,0,0-218.42,0H51.34A104.54,104.54,0,0,1,150,63.33Z"/><path class="cls-1" d="M150,63.33a104.54,104.54,0,0,0-98.66,70H248.66A104.54,104.54,0,0,0,150,63.33Z"/><circle class="cls-3" cx="150" cy="98.33" r="20"/><rect class="cls-5" x="135" y="156.67" width="30" height="10" rx="2"/><rect class="cls-5" x="130" y="161.67" width="40" height="10" rx="2" transform="translate(316.67 16.67) rotate(90)"/></g></svg>