<svg xmlns="http://www.w3.org/2000/svg" viewBox="0 0 300 200"><defs><style>.cls-1{fill:#213572;}.cls-2{fill:#f0f0f0;}.cls-3{fill:none;}.cls-4{fill:#ffcf44;}.cls-5{fill:#009b43;}</style></defs><title>19-piaui-rounded</title><g id="rounded"><path class="cls-1" d="M20,0h80a0,0,0,0,1,0,0V100a0,0,0,0,1,0,0H0a0,0,0,0,1,0,0V20A20,20,0,0,1,20,0Z"/><path class="cls-2" d="M51.53,21.06,57.2,38.49a1.67,1.67,0,0,0,1.58,1.15H77a1.66,1.66,0,0,1,1,3L63.23,53.33a1.66,1.66,0,0,0-.61,1.86l5.62,17.29a1.66,1.66,0,0,1-2.56,1.85L51,63.65a1.68,1.68,0,0,0-2,0L34.32,74.33a1.66,1.66,0,0,1-2.56-1.86l5.62-17.28a1.67,1.67,0,0,0-.61-1.86L22.06,42.64a1.66,1.66,0,0,1,1-3H41.22a1.67,1.67,0,0,0,1.58-1.15l5.67-17.43a1.61,1.61,0,0,1,3.06,0"/><circle class="cls-3" cx="50" cy="50.06" r="30"/><rect class="cls-4" y="100" width="300" height="20"/><rect class="cls-4" x="100" y="60" width="200" height="20"/><rect class="cls-4" x="100" y="20" width="200" height="20"/><rect class="cls-5" y="120" width="300" height="20"/><rect class="cls-5" x="100" y="80" width="200" height="20"/><rect class="cls-5" x="100" y="40" width="200" height="20"/><rect class="cls-5" y="160" width="300" height="20"/><path class="cls-5" d="M100,20H300A20,20,0,0,0,280,0H100Z"/><rect class="cls-4" y="140" width="300" height="20"/><path class="cls-4" d="M20,200H280a20,20,0,0,0,20-20H0A20,20,0,0,0,20,200Z"/></g></svg>