<svg xmlns="http://www.w3.org/2000/svg" xmlns:xlink="http://www.w3.org/1999/xlink" viewBox="0 0 300 200"><defs><style>.cls-1{fill:none;}.cls-2{fill:#f0f0f0;}.cls-3{fill:#01a2ce;}.cls-4{fill:#ffcf44;}.cls-5{fill:#009b43;}.cls-6{clip-path:url(#clip-path);}.cls-7{fill:#a93c40;}.cls-8{fill:#c6c6c6;}</style><clipPath id="clip-path"><path class="cls-1" d="M150,50c-19.33,0-35,22.39-35,50h70C185,72.39,169.33,50,150,50Z"/></clipPath></defs><title>20-rio-de-janeiro-rounded</title><g id="rounded"><path class="cls-2" d="M0,100H150V0H20A20,20,0,0,0,0,20Z"/><path class="cls-2" d="M0,100H150V0H20A20,20,0,0,0,0,20Z"/><path class="cls-2" d="M150,200H280a20,20,0,0,0,20-20V100H150Z"/><path class="cls-3" d="M0,100H150V200H20A20,20,0,0,1,0,180Z"/><path class="cls-3" d="M150,0H280a20,20,0,0,1,20,20v80H150Z"/><path class="cls-4" d="M150,50c19.33,0,35,22.39,35,50s-15.67,50-35,50-35-22.39-35-50,15.67-50,35-50m0-6c-11.36,0-21.9,6.11-29.66,17.2C113,71.65,109,85.42,109,100s4,28.35,11.34,38.8C128.1,149.89,138.64,156,150,156s21.9-6.11,29.66-17.2C187,128.35,191,114.58,191,100s-4-28.35-11.34-38.8C171.9,50.11,161.36,44,150,44Z"/><path class="cls-3" d="M150,50c-19.33,0-35,22.39-35,50h70C185,72.39,169.33,50,150,50Z"/><path class="cls-3" d="M119.69,125c6.06,14.94,17.36,25,30.31,25s24.25-10.06,30.31-25Z"/><path class="cls-5" d="M185,100H115a66.86,66.86,0,0,0,4.69,25h60.62A66.86,66.86,0,0,0,185,100Z"/><g class="cls-6"><path class="cls-7" d="M116.33,100A1.34,1.34,0,0,1,115,98.67V86.5a1.34,1.34,0,0,1,.49-1,1.37,1.37,0,0,1,.84-.3l.26,0a10.91,10.91,0,0,1,8.32,7.44.69.69,0,0,0,.67.48A.67.67,0,0,0,126,93a10.94,10.94,0,0,0,4.58-8.89v-2a1.34,1.34,0,0,1,1-1.29A22.68,22.68,0,0,0,148,61.48a1.33,1.33,0,0,1,.84-1.1,1.33,1.33,0,0,1,1.37.25c.22.2.45.4.66.61a22.62,22.62,0,0,1,6.71,13.35,1.76,1.76,0,0,0,1.11.47,1.49,1.49,0,0,0,1-.47,22.6,22.6,0,0,1,20.6-13.35h3.32A1.34,1.34,0,0,1,185,62.58V98.67a1.34,1.34,0,0,1-1.33,1.33Z"/></g><circle class="cls-8" cx="150" cy="121" r="20"/><path class="cls-2" d="M150,102a19,19,0,1,1-19,19,19,19,0,0,1,19-19m0-2a21,21,0,1,0,21,21,21,21,0,0,0-21-21Z"/><path class="cls-8" d="M174.49,77.46a.4.4,0,0,0-.5-.57l-22.42,8.46-.73.27A9,9,0,0,0,148,82.15a8.86,8.86,0,0,0-4.41-1.71l-18.16-1.9a.41.41,0,0,0-.44.37,9,9,0,0,0,8,9.44l6.6.69a.41.41,0,0,1,.1.78l-6.3,2.37a.41.41,0,0,0,0,.76A34.16,34.16,0,0,0,144,94.89a.37.37,0,0,1,.33.19l2,3.33a3.19,3.19,0,0,0,5.48.07l2.54-4.33a2.22,2.22,0,0,1,1.23-1c.49-.16,1-.34,1.46-.52a2.25,2.25,0,0,1,2.09.23l0,0,3,2a.38.38,0,0,0,.57-.12,3.91,3.91,0,0,0,.5-1.93,4.06,4.06,0,0,0-.78-2.39.39.39,0,0,1,.1-.59A34.09,34.09,0,0,0,174.49,77.46Z"/><path class="cls-3" d="M137.64,125a13,13,0,0,0,24.72,0,26.88,26.88,0,0,0-24.72,0Z"/><path class="cls-3" d="M150,116a32.85,32.85,0,0,1,12.76,2.57,13,13,0,0,0-25.52,0A32.85,32.85,0,0,1,150,116Z"/><path class="cls-2" d="M167.09,160h0a3.1,3.1,0,0,1,1.15-4c.78-.5,1.6-.94,2.36-1.48a2.78,2.78,0,0,1,2.15-.43,3.09,3.09,0,0,1,2,1.15h0a2.91,2.91,0,0,1,.57,2.25,3.1,3.1,0,0,1-1.33,2c-.87.62-1.81,1.14-2.71,1.71A2.93,2.93,0,0,1,167.09,160Z"/><path class="cls-5" d="M178,152.47h0a3.06,3.06,0,0,1,0-4.18l1.9-2.1a3.06,3.06,0,0,1,4.17-.38h0a2.94,2.94,0,0,1,.38,4.28l-2.12,2.35A2.94,2.94,0,0,1,178,152.47Z"/><path class="cls-5" d="M186.58,142.27a3.08,3.08,0,0,1-1-4.08c.51-.8.94-1.66,1.41-2.49a3.05,3.05,0,0,1,4-1.26,3,3,0,0,1,1.29,4.09c-.51.91-1,1.85-1.54,2.73A2.94,2.94,0,0,1,186.58,142.27Z"/><path class="cls-5" d="M192.76,130.46a3,3,0,0,1-1.75-3.81c.33-.9.64-1.81.91-2.73a3.07,3.07,0,0,1,3.71-2,3,3,0,0,1,2,3.78c-.3,1-.63,2-1,2.95A3,3,0,0,1,192.76,130.46Z"/><path class="cls-5" d="M196.66,117.72h0a3,3,0,0,1-2.38-3.47l.45-2.85a3,3,0,0,1,3.33-2.57,3,3,0,0,1,2.61,3.39l-.48,3.07A3,3,0,0,1,196.66,117.72Z"/><path class="cls-5" d="M198.39,104.5h0a3.06,3.06,0,0,1-2.9-3c0-1,0-1.93,0-2.9a3.06,3.06,0,0,1,2.9-3h0a3,3,0,0,1,3.1,3c0,1,0,2.07,0,3.1A3,3,0,0,1,198.39,104.5Z"/><path class="cls-5" d="M198.06,91.17a3,3,0,0,1-3.33-2.57l-.45-2.85a3,3,0,0,1,2.38-3.47,3,3,0,0,1,3.53,2.43l.48,3.07A3,3,0,0,1,198.06,91.17Z"/><path class="cls-5" d="M195.63,78.06a3.07,3.07,0,0,1-3.71-2c-.27-.92-.58-1.83-.91-2.73a3.06,3.06,0,0,1,1.75-3.81h0a3,3,0,0,1,3.9,1.79c.36,1,.69,2,1,3A3,3,0,0,1,195.63,78.06Z"/><path class="cls-5" d="M191,65.56a3.05,3.05,0,0,1-4-1.26c-.47-.83-.9-1.69-1.41-2.49a3.08,3.08,0,0,1,1-4.08,2.94,2.94,0,0,1,4.18,1c.56.88,1,1.82,1.54,2.73A3,3,0,0,1,191,65.56Z"/><path class="cls-5" d="M184.07,54.19h0a3.06,3.06,0,0,1-4.17-.38l-1.9-2.1a3.06,3.06,0,0,1,0-4.18,3,3,0,0,1,4.3,0l2.12,2.35A3,3,0,0,1,184.07,54.19Z"/><path class="cls-3" d="M132.91,160h0a2.93,2.93,0,0,1-4.15,1.19c-.9-.57-1.84-1.09-2.71-1.71a3.1,3.1,0,0,1-1.33-2,2.91,2.91,0,0,1,.57-2.25h0a3.09,3.09,0,0,1,2-1.15,2.78,2.78,0,0,1,2.15.43c.76.54,1.58,1,2.36,1.48A3.1,3.1,0,0,1,132.91,160Z"/><path class="cls-5" d="M122,152.47h0a2.94,2.94,0,0,1-4.3,0l-2.12-2.35a2.94,2.94,0,0,1,.38-4.28h0a3.06,3.06,0,0,1,4.17.38l1.9,2.1A3.06,3.06,0,0,1,122,152.47Z"/><path class="cls-5" d="M113.42,142.27h0a2.94,2.94,0,0,1-4.18-1c-.56-.88-1-1.82-1.54-2.73a3,3,0,0,1,1.29-4.09,3.05,3.05,0,0,1,4,1.26c.47.83.9,1.69,1.41,2.49A3.08,3.08,0,0,1,113.42,142.27Z"/><path class="cls-5" d="M107.24,130.46h0a3,3,0,0,1-3.9-1.79c-.36-1-.69-2-1-2.95a3,3,0,0,1,2-3.78h0a3.07,3.07,0,0,1,3.71,2c.27.92.58,1.83.91,2.73A3,3,0,0,1,107.24,130.46Z"/><path class="cls-5" d="M103.34,117.72h0a3,3,0,0,1-3.53-2.43l-.48-3.07a3,3,0,0,1,2.61-3.39h0a3,3,0,0,1,3.33,2.57l.45,2.85A3,3,0,0,1,103.34,117.72Z"/><path class="cls-5" d="M101.61,104.5a3,3,0,0,1-3.1-3c0-1,0-2.07,0-3.1a3,3,0,0,1,3.1-3h0a3.06,3.06,0,0,1,2.9,3c0,1,0,1.93,0,2.9A3.06,3.06,0,0,1,101.61,104.5Z"/><path class="cls-5" d="M101.94,91.17a3,3,0,0,1-2.61-3.39l.48-3.07a3,3,0,0,1,3.53-2.43h0a3,3,0,0,1,2.38,3.47l-.45,2.85A3,3,0,0,1,101.94,91.17Z"/><path class="cls-5" d="M104.37,78.06h0a3,3,0,0,1-2-3.78c.3-1,.63-2,1-3a3,3,0,0,1,3.9-1.79h0A3.06,3.06,0,0,1,109,73.35c-.33.9-.64,1.81-.91,2.73A3.07,3.07,0,0,1,104.37,78.06Z"/><path class="cls-5" d="M109,65.56a3,3,0,0,1-1.29-4.09c.51-.91,1-1.85,1.54-2.73a2.94,2.94,0,0,1,4.18-1h0a3.08,3.08,0,0,1,1,4.08c-.51.8-.94,1.66-1.41,2.49A3.05,3.05,0,0,1,109,65.56Z"/><path class="cls-5" d="M115.93,54.19h0a3,3,0,0,1-.38-4.28l2.12-2.35a3,3,0,0,1,4.3,0,3.06,3.06,0,0,1,0,4.18l-1.9,2.1A3.06,3.06,0,0,1,115.93,54.19Z"/><path class="cls-4" d="M150,50c19.33,0,35,22.39,35,50s-15.67,50-35,50-35-22.39-35-50,15.67-50,35-50m0-6c-11.36,0-21.9,6.11-29.66,17.2C113,71.65,109,85.42,109,100s4,28.35,11.34,38.8C128.1,149.89,138.64,156,150,156s21.9-6.11,29.66-17.2C187,128.35,191,114.58,191,100s-4-28.35-11.34-38.8C171.9,50.11,161.36,44,150,44Z"/><path class="cls-8" d="M183.93,159.91a3.37,3.37,0,0,0-4.29-1.82,86.14,86.14,0,0,1-59.28,0,3.37,3.37,0,0,0-4.29,1.82L114,164.73a3.39,3.39,0,0,0,1.89,4.5,98.17,98.17,0,0,0,68.24,0,3.39,3.39,0,0,0,1.89-4.5Z"/><circle class="cls-1" cx="150" cy="30" r="10"/><path class="cls-2" d="M144.56,39.3a1.73,1.73,0,0,1-1.39-.7,1.64,1.64,0,0,1-.24-1.5l1.69-5.23-4.45-3.22a1.72,1.72,0,0,1-.6-1.92,1.65,1.65,0,0,1,1.59-1.13h5.48l1.69-5.23a1.81,1.81,0,0,1,1.67-1.2,1.64,1.64,0,0,1,1.59,1.17l1.69,5.22h5.52a1.7,1.7,0,0,1,1.62,1.17,1.67,1.67,0,0,1-.64,1.88l-4.44,3.22L157,37.05a1.68,1.68,0,0,1-.24,1.52,1.71,1.71,0,0,1-1.37.69,1.67,1.67,0,0,1-1-.33L150,35.74,145.55,39A1.66,1.66,0,0,1,144.56,39.3Z"/><path class="cls-8" d="M150,20.16a.65.65,0,0,1,.64.48l1.76,5.44a.68.68,0,0,0,.64.48h5.76a.68.68,0,0,1,.4,1.24l-4.64,3.36a.63.63,0,0,0-.24.76l1.76,5.44a.69.69,0,0,1-.66.9.7.7,0,0,1-.42-.14l-4.6-3.32a.73.73,0,0,0-.8,0L145,38.16a.65.65,0,0,1-.4.14.7.7,0,0,1-.68-.9L145.64,32a.68.68,0,0,0-.24-.76l-4.64-3.36a.68.68,0,0,1,.4-1.24h5.72a.68.68,0,0,0,.64-.48l1.76-5.44a.78.78,0,0,1,.72-.52m0-2a2.79,2.79,0,0,0-2.57,1.76,1.21,1.21,0,0,0-.05.14l-1.47,4.54h-4.75a2.65,2.65,0,0,0-2.54,1.81,2.72,2.72,0,0,0,.92,3l.05,0,3.85,2.79L142,36.78a2.65,2.65,0,0,0,.39,2.41,2.74,2.74,0,0,0,2.19,1.11,2.64,2.64,0,0,0,1.59-.53L150,37l3.83,2.76a2.69,2.69,0,0,0,4.16-3l-1.47-4.55,3.85-2.79a2.68,2.68,0,0,0-1.57-4.86H154L152.54,20A2.66,2.66,0,0,0,150,18.16Z"/></g></svg>