<svg xmlns="http://www.w3.org/2000/svg" viewBox="0 0 300 200"><defs><style>.cls-1{fill:#f0f0f0;}.cls-2{fill:#009b43;}.cls-3{fill:#ffcf44;}.cls-4{fill:none;}.cls-5{fill:#e39125;}.cls-6{fill:#c6c6c6;}.cls-7{fill:#01a2ce;}</style></defs><title>21-rio-grande-do-norte-rounded</title><g id="rounded"><path class="cls-1" d="M0,100H300V20A20,20,0,0,0,280,0H20A20,20,0,0,0,0,20Z"/><path class="cls-2" d="M0,100H300V20A20,20,0,0,0,280,0H20A20,20,0,0,0,0,20Z"/><path class="cls-1" d="M0,100H300v80a20,20,0,0,1-20,20H20A20,20,0,0,1,0,180Z"/><path class="cls-3" d="M100,50H200a0,0,0,0,1,0,0v80a20,20,0,0,1-20,20H120a20,20,0,0,1-20-20V50A0,0,0,0,1,100,50Z"/><circle class="cls-4" cx="150" cy="60" r="7.5"/><path class="cls-1" d="M150.48,53l1.32,4.08a.51.51,0,0,0,.48.36h4.32a.51.51,0,0,1,.3.93l-3.48,2.52a.47.47,0,0,0-.18.57l1.32,4.08a.52.52,0,0,1-.81.57L150.3,63.6a.55.55,0,0,0-.6,0l-3.48,2.52a.52.52,0,0,1-.81-.57l1.32-4.08a.51.51,0,0,0-.18-.57l-3.48-2.52a.51.51,0,0,1,.3-.93h4.29a.51.51,0,0,0,.48-.36L149.46,53A.54.54,0,0,1,150.48,53Z"/><path class="cls-2" d="M184.1,65.75a11.25,11.25,0,0,1,8.56-3.29,1.16,1.16,0,0,1,.73,2L182.79,75a1.16,1.16,0,0,1-2-.73A11.21,11.21,0,0,1,184.1,65.75Z"/><path class="cls-2" d="M170.26,79.58A11.28,11.28,0,0,0,167,88.15a1.17,1.17,0,0,0,2,.73l10.6-10.6a1.17,1.17,0,0,0-.74-2A11.3,11.3,0,0,0,170.26,79.58Z"/><rect class="cls-5" x="179" y="76.66" width="4.35" height="42.58" rx="1.16"/><path class="cls-2" d="M192.09,79.58a11.32,11.32,0,0,1,3.29,8.57,1.17,1.17,0,0,1-2,.73l-10.6-10.6a1.17,1.17,0,0,1,.73-2A11.32,11.32,0,0,1,192.09,79.58Z"/><path class="cls-2" d="M178.25,65.75a11.25,11.25,0,0,0-8.56-3.29,1.16,1.16,0,0,0-.73,2L179.56,75a1.16,1.16,0,0,0,2-.73A11.25,11.25,0,0,0,178.25,65.75Z"/><path class="cls-2" d="M191,71a11.27,11.27,0,0,1,8.38,3.73,1.16,1.16,0,0,1-.89,1.92h-15a1.16,1.16,0,0,1-.89-1.92A11.28,11.28,0,0,1,191,71Z"/><path class="cls-2" d="M171.39,71A11.25,11.25,0,0,0,163,74.74a1.16,1.16,0,0,0,.88,1.92h15a1.16,1.16,0,0,0,.88-1.92A11.24,11.24,0,0,0,171.39,71Z"/><circle class="cls-2" cx="181.17" cy="78.05" r="4"/><path class="cls-2" d="M115.9,65.75a11.25,11.25,0,0,0-8.56-3.29,1.16,1.16,0,0,0-.73,2L117.21,75a1.16,1.16,0,0,0,2-.73A11.21,11.21,0,0,0,115.9,65.75Z"/><path class="cls-2" d="M129.74,79.58A11.28,11.28,0,0,1,133,88.15a1.17,1.17,0,0,1-2,.73l-10.6-10.6a1.17,1.17,0,0,1,.74-2A11.3,11.3,0,0,1,129.74,79.58Z"/><rect class="cls-5" x="116.65" y="76.66" width="4.35" height="42.58" rx="1.16"/><path class="cls-2" d="M107.91,79.58a11.32,11.32,0,0,0-3.29,8.57,1.17,1.17,0,0,0,2,.73l10.6-10.6a1.17,1.17,0,0,0-.73-2A11.32,11.32,0,0,0,107.91,79.58Z"/><path class="cls-2" d="M121.75,65.75a11.25,11.25,0,0,1,8.56-3.29,1.16,1.16,0,0,1,.73,2L120.44,75a1.16,1.16,0,0,1-2-.73A11.25,11.25,0,0,1,121.75,65.75Z"/><path class="cls-2" d="M109,71a11.27,11.27,0,0,0-8.38,3.73,1.16,1.16,0,0,0,.89,1.92h15a1.16,1.16,0,0,0,.89-1.92A11.28,11.28,0,0,0,109,71Z"/><path class="cls-2" d="M128.61,71A11.25,11.25,0,0,1,137,74.74a1.16,1.16,0,0,1-.88,1.92h-15a1.16,1.16,0,0,1-.88-1.92A11.24,11.24,0,0,1,128.61,71Z"/><circle class="cls-2" cx="118.83" cy="78.05" r="4"/><path class="cls-2" d="M150,110H125v1.88A12,12,0,0,0,132.54,123l16.5,6.6a2.65,2.65,0,0,0,1.92,0l16.5-6.6A12,12,0,0,0,175,111.88V110Z"/><path class="cls-6" d="M127,70h46a2,2,0,0,1,2,2V90a0,0,0,0,1,0,0H125a0,0,0,0,1,0,0V72A2,2,0,0,1,127,70Z"/><circle class="cls-3" cx="144.53" cy="80" r="3"/><circle class="cls-3" cx="155.55" cy="80" r="3"/><circle class="cls-1" cx="166.57" cy="80" r="3"/><circle class="cls-1" cx="133.51" cy="80" r="3"/><rect class="cls-7" x="125" y="90" width="50" height="20"/><path class="cls-1" d="M146.84,110a1.86,1.86,0,0,1-.84-.2,1.83,1.83,0,0,1-.93-1.09,20.49,20.49,0,0,1-.92-6.07,19.79,19.79,0,0,1,.94-6.07,1.82,1.82,0,0,1,1.41-1.25,1.84,1.84,0,0,1,1.77.66,16.77,16.77,0,0,0,6.48,5,1.83,1.83,0,0,1,1.1,1.68,1.85,1.85,0,0,1-1.1,1.69,16.58,16.58,0,0,0-6.45,5,1.64,1.64,0,0,1-.3.29A1.9,1.9,0,0,1,146.84,110Z"/><rect class="cls-5" x="140" y="110" width="20" height="4" rx="2"/><path class="cls-2" d="M179.51,139.29a168.13,168.13,0,0,1-59,0,2,2,0,0,1-1.61-2.35l.75-3.93a2,2,0,0,1,2.32-1.59,159.71,159.71,0,0,0,56.1,0,2,2,0,0,1,2.32,1.59l.75,3.93A2,2,0,0,1,179.51,139.29Z"/></g></svg>