<svg xmlns="http://www.w3.org/2000/svg" viewBox="0 0 300 200"><defs><style>.cls-1{fill:#009b43;}.cls-2{fill:#ffcf44;}.cls-3{fill:#d9251d;}.cls-4{fill:#f0f0f0;}.cls-5{fill:#c6c6c6;}.cls-6{fill:#01a2ce;}.cls-7{fill:#213572;}.cls-8{fill:#b19353;}</style></defs><title>22-rio-grande-do-sul-rounded</title><g id="rounded"><path class="cls-1" d="M280,0H20A20,20,0,0,0,0,20v80L290.68,3.11A19.9,19.9,0,0,0,280,0Z"/><path class="cls-2" d="M20,200H280a20,20,0,0,0,20-20V100L9.32,196.89A19.9,19.9,0,0,0,20,200Z"/><path class="cls-3" d="M290.68,3.11,0,100v80a20,20,0,0,0,9.32,16.89L300,100V20A20,20,0,0,0,290.68,3.11Z"/><ellipse class="cls-4" cx="150" cy="100" rx="38.65" ry="48.31"/><path class="cls-5" d="M150,143.31a28.51,28.51,0,0,1-18.64-7.25,3,3,0,0,1,3.9-4.56,21.6,21.6,0,0,0,29.48,0,3,3,0,0,1,3.9,4.56A28.51,28.51,0,0,1,150,143.31Z"/><path class="cls-5" d="M150,84.69h0L126.3,71.54a2.26,2.26,0,0,0-3.35,2v39.79a15,15,0,0,0,15,15h24.1a15,15,0,0,0,15-15V73.52a2.26,2.26,0,0,0-3.35-2Z"/><path class="cls-1" d="M177.05,73.52V88.2L150,103.2l-27-15V73.52a2.26,2.26,0,0,1,3.35-2L150,84.69l23.7-13.15A2.26,2.26,0,0,1,177.05,73.52Z"/><polygon class="cls-3" points="150 103.2 122.95 88.2 122.95 106.71 133.31 112.45 150 121.71 166.69 112.45 177.05 106.71 177.05 88.2 150 103.2"/><path class="cls-2" d="M166.69,112.45,150,121.71l-16.69-9.26L123,106.71v6.6a15,15,0,0,0,15,15h24.1a15,15,0,0,0,15-15v-6.6Z"/><path class="cls-6" d="M150,77.69c-9.4,0-17.05,10-17.05,22.31s7.65,22.31,17.05,22.31,17.05-10,17.05-22.31S159.4,77.69,150,77.69Z"/><path class="cls-4" d="M150,81.69c7.07,0,13.05,8.38,13.05,18.31s-6,18.31-13.05,18.31S137,109.93,137,100s6-18.31,13.05-18.31"/><path class="cls-1" d="M150,118.31c4.18,0,8-2.94,10.38-7.39l-.48-.48a2.62,2.62,0,0,0-3.7,0l-.32.32a2.63,2.63,0,0,1-3.71,0l-.32-.32a2.62,2.62,0,0,0-3.7,0l-.32.32a2.63,2.63,0,0,1-3.71,0l-.32-.32a2.62,2.62,0,0,0-3.7,0l-.48.48C142,115.37,145.82,118.31,150,118.31Z"/><path class="cls-7" d="M151.09,90.34,156,99.25a1,1,0,0,1,0,1l-4.94,8.91a1.41,1.41,0,0,1-2.18,0L144,100.24a1,1,0,0,1,0-1l4.94-8.91A1.41,1.41,0,0,1,151.09,90.34Z"/><rect class="cls-4" x="147.45" y="94.65" width="5.1" height="10.19" rx="1"/><path class="cls-8" d="M158.05,109.67a1.5,1.5,0,0,1-1.5-1.5V91.32a1.5,1.5,0,0,1,3,0v16.85A1.5,1.5,0,0,1,158.05,109.67Z"/><path class="cls-8" d="M142,109.67a1.5,1.5,0,0,1-1.5-1.5V91.32a1.5,1.5,0,0,1,3,0v16.85A1.5,1.5,0,0,1,142,109.67Z"/></g></svg>