<svg xmlns="http://www.w3.org/2000/svg" viewBox="0 0 300 200"><defs><style>.cls-1{fill:#213572;}.cls-2{fill:#ffcf44;}.cls-3{fill:#009b43;}.cls-4{fill:#f0f0f0;}</style></defs><title>23-rondonia-rounded</title><g id="rounded"><path class="cls-1" d="M280,0H20A20,20,0,0,0,0,20v80H300V20A20,20,0,0,0,280,0Z"/><path class="cls-2" d="M10.54,197.62,150,100H0v80A20,20,0,0,0,10.54,197.62Z"/><path class="cls-2" d="M289.46,197.62A20,20,0,0,0,300,180V100H150Z"/><path class="cls-3" d="M148.28,101.2,10.54,197.62A19.87,19.87,0,0,0,20,200H280a19.87,19.87,0,0,0,9.46-2.38L151.72,101.2A3,3,0,0,0,148.28,101.2Z"/><path class="cls-4" d="M188.85,64.52l-25.07-.44a3,3,0,0,1-2.78-2l-8.16-23.69a3,3,0,0,0-5.68,0L139,62.05a3,3,0,0,1-2.78,2l-25.07.44a3,3,0,0,0-1.75,5.39l20,15.09a3,3,0,0,1,1.06,3.27l-7.32,24a3,3,0,0,0,4.59,3.34l20.53-14.38a3,3,0,0,1,3.44,0l20.53,14.38a3,3,0,0,0,4.59-3.34l-7.32-24A3,3,0,0,1,170.58,85l20-15.09A3,3,0,0,0,188.85,64.52Z"/></g></svg>