<svg xmlns="http://www.w3.org/2000/svg" viewBox="0 0 300 200"><defs><style>.cls-1{fill:#01a2ce;}.cls-2{fill:#009b43;}.cls-3{fill:#f0f0f0;}.cls-4{fill:#d9251d;}.cls-5{fill:#f8c300;}.cls-6{fill:none;}</style></defs><title>24-roraima-rounded</title><g id="rounded"><path class="cls-1" d="M20,0A20,20,0,0,0,0,20V139.91L209.86,0Z"/><path class="cls-2" d="M280,200a20,20,0,0,0,20-20V60.09L90.14,200Z"/><path class="cls-3" d="M280,0H209.86L0,139.91V180a20,20,0,0,0,20,20H90.14L300,60.09V20A20,20,0,0,0,280,0Z"/><rect class="cls-4" y="162.54" width="300" height="15"/><path class="cls-5" d="M153.58,32.47l13.21,40.67a3.88,3.88,0,0,0,3.69,2.68H212.9a3.87,3.87,0,0,1,2.28,7l-34.32,24.93a3.9,3.9,0,0,0-1.41,4.34l13.11,40.34a3.88,3.88,0,0,1-6,4.34l-34.31-24.93a3.87,3.87,0,0,0-4.56,0L113.4,156.78a3.88,3.88,0,0,1-6-4.34l13.1-40.34a3.86,3.86,0,0,0-1.41-4.33L84.82,82.83a3.87,3.87,0,0,1,2.28-7h42.41a3.88,3.88,0,0,0,3.69-2.68l13.22-40.67a3.76,3.76,0,0,1,7.16,0"/><circle class="cls-6" cx="150" cy="100.13" r="70"/></g></svg>