<svg xmlns="http://www.w3.org/2000/svg" viewBox="0 0 300 200"><defs><style>.cls-1{fill:#d9251d;}.cls-2,.cls-8{fill:#f0f0f0;}.cls-3{fill:#a6ce39;}.cls-4{fill:none;}.cls-5{fill:#009b43;}.cls-6{fill:#7b5e4c;}.cls-7{fill:#f8c300;}.cls-8{stroke:#c6c6c6;stroke-miterlimit:10;stroke-width:2px;}</style></defs><title>25-santa-catarina-rounded</title><g id="rounded"><path class="cls-1" d="M0,133.33H300a0,0,0,0,1,0,0V180a20,20,0,0,1-20,20H20A20,20,0,0,1,0,180V133.33A0,0,0,0,1,0,133.33Z"/><path class="cls-1" d="M20,0H280a20,20,0,0,1,20,20V66.67a0,0,0,0,1,0,0H0a0,0,0,0,1,0,0V20A20,20,0,0,1,20,0Z"/><rect class="cls-2" y="66.67" width="300" height="66.67"/><path class="cls-3" d="M148.43,179,24.15,102.55a3,3,0,0,1,0-5.1L148.43,21a3,3,0,0,1,3.14,0L275.85,97.45a3,3,0,0,1,0,5.1L151.57,179A3,3,0,0,1,148.43,179Z"/><path class="cls-2" d="M152.05,61.41l7.55,23.24a2.2,2.2,0,0,0,2.1,1.53h24.24a2.22,2.22,0,0,1,1.3,4l-19.6,14.25a2.2,2.2,0,0,0-.81,2.47L174.32,130a2.21,2.21,0,0,1-3.41,2.47L151.3,118.2a2.19,2.19,0,0,0-2.6,0l-19.61,14.24a2.21,2.21,0,0,1-3.41-2.47l7.49-23a2.22,2.22,0,0,0-.81-2.48L112.75,90.19a2.22,2.22,0,0,1,1.3-4h24.24a2.23,2.23,0,0,0,2.11-1.53L148,61.41a2.16,2.16,0,0,1,4.1,0"/><circle class="cls-4" cx="150" cy="100.08" r="40"/><path class="cls-5" d="M169.55,54h0a4.26,4.26,0,0,1,2.54-2.38,4.51,4.51,0,0,1,3.65.36,47.09,47.09,0,0,1,4.21,2.5,4.46,4.46,0,0,1,2,3.06,4.1,4.1,0,0,1-.86,3.33,4.92,4.92,0,0,1-3,1.75A4.54,4.54,0,0,1,175,62a37,37,0,0,0-3.52-2.09,4.5,4.5,0,0,1-2-2.5A4.79,4.79,0,0,1,169.55,54Z"/><path class="cls-5" d="M185.61,65h0a4.18,4.18,0,0,1,3.24-1.23,4.44,4.44,0,0,1,3.24,1.71c.51.64,1.07,1.24,1.53,1.91l1.42,2a4.46,4.46,0,0,1,.72,3.6,4.14,4.14,0,0,1-2.07,2.75h0a4.86,4.86,0,0,1-3.41.49,4.57,4.57,0,0,1-2.68-1.77l-1.18-1.68c-.38-.57-.86-1.06-1.28-1.59a4.6,4.6,0,0,1-.94-3.09A4.77,4.77,0,0,1,185.61,65Z"/><path class="cls-5" d="M196.3,81.19h0a4.18,4.18,0,0,1,3.46.11,4.8,4.8,0,0,1,1.46,1.1,5.18,5.18,0,0,1,.88,1.72l.7,2.35.52,2.4a5,5,0,0,1,0,1.93,4.52,4.52,0,0,1-.75,1.67,4.21,4.21,0,0,1-3,1.75,4.82,4.82,0,0,1-3.32-.86,4.41,4.41,0,0,1-1.12-1.16,3.79,3.79,0,0,1-.68-1.5l-.43-2-.59-2a3.8,3.8,0,0,1-.11-1.64,4.31,4.31,0,0,1,.42-1.56A4.84,4.84,0,0,1,196.3,81.19Z"/><path class="cls-5" d="M200,100.27h0a4.41,4.41,0,0,1,4.25,4.92c-.17,1.62-.47,3.23-.7,4.85a4.23,4.23,0,0,1-.25,1,4.85,4.85,0,0,1-.48.83,4.55,4.55,0,0,1-1.32,1.27,4.15,4.15,0,0,1-3.41.49,4.9,4.9,0,0,1-2.76-2.06,4.3,4.3,0,0,1-.6-1.5,3.69,3.69,0,0,1-.06-.81,3.87,3.87,0,0,1,0-.83c.19-1.35.45-2.69.59-4A4.61,4.61,0,0,1,200,100.27Z"/><path class="cls-5" d="M196.12,119.32a4.39,4.39,0,0,1,2,6.17c-.76,1.45-1.67,2.81-2.5,4.22a3.88,3.88,0,0,1-1.36,1.37,4.91,4.91,0,0,1-1.7.67,4.15,4.15,0,0,1-3.34-.85h0a4.87,4.87,0,0,1-1.76-3,4.25,4.25,0,0,1,0-1.63,5.9,5.9,0,0,1,.61-1.52c.68-1.17,1.46-2.31,2.09-3.52A4.65,4.65,0,0,1,196.12,119.32Z"/><path class="cls-5" d="M130.45,54a4.79,4.79,0,0,1,.11,3.41,4.54,4.54,0,0,1-2,2.5A34.68,34.68,0,0,0,125,62a4.54,4.54,0,0,1-3.15.62,4.87,4.87,0,0,1-3-1.75h0a4.1,4.1,0,0,1-.86-3.33,4.46,4.46,0,0,1,2-3.06,47.09,47.09,0,0,1,4.21-2.5,4.51,4.51,0,0,1,3.65-.36A4.26,4.26,0,0,1,130.45,54Z"/><path class="cls-5" d="M114.39,65h0a4.82,4.82,0,0,1,1.41,3.12,4.59,4.59,0,0,1-.94,3.08c-.42.53-.9,1-1.28,1.59l-1.18,1.68a4.57,4.57,0,0,1-2.68,1.77,4.91,4.91,0,0,1-3.41-.48h0A4.18,4.18,0,0,1,104.24,73a4.46,4.46,0,0,1,.72-3.6l1.42-2c.46-.68,1-1.28,1.53-1.92a4.43,4.43,0,0,1,3.24-1.71A4.18,4.18,0,0,1,114.39,65Z"/><path class="cls-5" d="M103.7,81.19h0a4.84,4.84,0,0,1,2.5,2.35,4.31,4.31,0,0,1,.42,1.56,3.8,3.8,0,0,1-.11,1.64l-.59,2-.43,2a3.72,3.72,0,0,1-.68,1.5,4.41,4.41,0,0,1-1.12,1.16,4.82,4.82,0,0,1-3.32.86h0a4.18,4.18,0,0,1-3-1.75,4.52,4.52,0,0,1-.75-1.67,5,5,0,0,1,0-1.93l.52-2.4.7-2.35a5.18,5.18,0,0,1,.88-1.72,4.69,4.69,0,0,1,1.46-1.1A4.18,4.18,0,0,1,103.7,81.19Z"/><path class="cls-5" d="M100,100.27h0a4.61,4.61,0,0,1,4.71,4.07c.14,1.36.4,2.7.59,4a3.94,3.94,0,0,1,0,.84,3.6,3.6,0,0,1-.06.8,4.3,4.3,0,0,1-.6,1.5,4.9,4.9,0,0,1-2.76,2.06h0a4.15,4.15,0,0,1-3.41-.49,4.55,4.55,0,0,1-1.32-1.27,4.5,4.5,0,0,1-.48-.83,4.23,4.23,0,0,1-.25-1c-.23-1.62-.53-3.23-.7-4.85A4.41,4.41,0,0,1,100,100.27Z"/><path class="cls-5" d="M103.88,119.32h0a4.64,4.64,0,0,1,5.91,2c.63,1.2,1.41,2.34,2.09,3.52a5.63,5.63,0,0,1,.61,1.52,4.2,4.2,0,0,1,0,1.62,4.87,4.87,0,0,1-1.76,3h0a4.14,4.14,0,0,1-3.34.85,4.72,4.72,0,0,1-1.7-.67,3.88,3.88,0,0,1-1.36-1.37c-.83-1.41-1.74-2.77-2.5-4.22A4.4,4.4,0,0,1,103.88,119.32Z"/><path class="cls-2" d="M152.05,61.41l7.55,23.24a2.2,2.2,0,0,0,2.1,1.53h24.24a2.22,2.22,0,0,1,1.3,4l-19.6,14.25a2.2,2.2,0,0,0-.81,2.47L174.32,130a2.21,2.21,0,0,1-3.41,2.47L151.3,118.2a2.19,2.19,0,0,0-2.6,0l-19.61,14.24a2.21,2.21,0,0,1-3.41-2.47l7.49-23a2.22,2.22,0,0,0-.81-2.48L112.75,90.19a2.22,2.22,0,0,1,1.3-4h24.24a2.23,2.23,0,0,0,2.11-1.53L148,61.41a2.16,2.16,0,0,1,4.1,0"/><path class="cls-1" d="M119.47,153.9,116,148.41a3.22,3.22,0,0,1,1.24-4.58c9.08-4.71,36.84-16.29,65.62,0a3.26,3.26,0,0,1,1.14,4.55l-3.45,5.48a3.24,3.24,0,0,1-4.33,1.08c-22.88-12.71-45.11-3.64-52.56.15A3.22,3.22,0,0,1,119.47,153.9Z"/><path class="cls-6" d="M152.62,75.33h-5.25a.43.43,0,0,0-.43.37l-1.86,11.09a.45.45,0,0,0,.44.52h9a.44.44,0,0,0,.43-.52L153.06,75.7A.44.44,0,0,0,152.62,75.33Z"/><path class="cls-6" d="M146.72,75.33h.78a0,0,0,0,1,0,0v5a0,0,0,0,1,0,0h-4.23a.77.77,0,0,1-.77-.77v0A4.22,4.22,0,0,1,146.72,75.33Z"/><path class="cls-6" d="M156.72,75.33h.78a0,0,0,0,1,0,0v5a0,0,0,0,1,0,0h-4.23a.77.77,0,0,1-.77-.77v0A4.22,4.22,0,0,1,156.72,75.33Z" transform="translate(310 155.65) rotate(180)"/><path class="cls-6" d="M186.74,77.33H164a3.56,3.56,0,0,0-3.24,2.18,11.7,11.7,0,0,1-21.44,0A3.55,3.55,0,0,0,136,77.33H124.39l-10.34-.15a2.22,2.22,0,0,0-1.3,4l11.59,8.42a30.48,30.48,0,0,0,17.93,5.83h-.19l.83,6.56a1.54,1.54,0,0,0,1.53,1.35h2.36a1.54,1.54,0,0,0,1.49-1.16l1.12-4.43a.61.61,0,0,1,1.18,0l1.12,4.43a1.54,1.54,0,0,0,1.49,1.16h2.36a1.54,1.54,0,0,0,1.53-1.35l.83-6.56h-.2a30.51,30.51,0,0,0,17.94-5.83l11.58-8.42A2.21,2.21,0,0,0,186.74,77.33Z"/><path class="cls-7" d="M137.65,118a2,2,0,0,1-.75-3.86l24.7-10a2,2,0,0,1,1.5,3.71l-24.7,10A2,2,0,0,1,137.65,118Z"/><path class="cls-7" d="M162.35,118a2,2,0,0,1-.75-.15l-24.7-10a2,2,0,0,1,1.5-3.71l24.7,10a2,2,0,0,1-.75,3.86Z"/><path class="cls-8" d="M145,86.22h10a1,1,0,0,1,1,1v6a5,5,0,0,1-5,5h-2a5,5,0,0,1-5-5v-6a1,1,0,0,1,1-1Z"/><path class="cls-1" d="M157.52,64.65a1.49,1.49,0,0,0,1.42-2l-3.09-9.52A6.14,6.14,0,0,0,150,48.92h-9.23a3,3,0,0,0-2.68,1.51,2.92,2.92,0,0,0,.84,3.75l4,2.88-1.83,5.63a1.5,1.5,0,0,0,1.43,2Z"/></g></svg>