<svg xmlns="http://www.w3.org/2000/svg" viewBox="0 0 300 200"><defs><style>.cls-1{fill:#f0f0f0;}.cls-2{fill:#1d1d1b;}.cls-3{fill:#d9251d;}.cls-4{fill:#ffcf44;}.cls-5{fill:none;}.cls-6{fill:#213572;}</style></defs><title>26-sao-paulorounded</title><g id="rounded"><rect class="cls-1" y="100" width="300" height="20"/><rect class="cls-1" x="120" y="60" width="180" height="20"/><rect class="cls-1" x="120" y="20" width="180" height="20"/><rect class="cls-1" y="140" width="300" height="20"/><path class="cls-1" d="M20,200H280a20,20,0,0,0,20-20H0A20,20,0,0,0,20,200Z"/><path class="cls-2" d="M120,20H300A20,20,0,0,0,280,0H120Z"/><rect class="cls-2" x="120" y="40" width="180" height="20"/><rect class="cls-2" x="120" y="80" width="180" height="20"/><rect class="cls-2" y="120" width="300" height="20"/><rect class="cls-2" y="160" width="300" height="20"/><path class="cls-3" d="M20,0H120a0,0,0,0,1,0,0V100a0,0,0,0,1,0,0H0a0,0,0,0,1,0,0V20A20,20,0,0,1,20,0Z"/><circle class="cls-1" cx="60" cy="50" r="39"/><path class="cls-4" d="M16.51,6.37l1.89,5.81a.55.55,0,0,0,.53.38H25a.56.56,0,0,1,.32,1l-4.9,3.56a.54.54,0,0,0-.2.62l1.87,5.76a.55.55,0,0,1-.85.62l-4.9-3.56a.57.57,0,0,0-.66,0l-4.9,3.56a.55.55,0,0,1-.85-.62l1.87-5.76a.55.55,0,0,0-.2-.62l-4.9-3.56a.56.56,0,0,1,.32-1h6.06a.55.55,0,0,0,.53-.38l1.89-5.81a.54.54,0,0,1,1,0"/><circle class="cls-5" cx="16" cy="16.04" r="10"/><path class="cls-4" d="M104.51,6.37l1.89,5.81a.55.55,0,0,0,.53.38H113a.56.56,0,0,1,.32,1l-4.9,3.56a.54.54,0,0,0-.2.62l1.87,5.76a.55.55,0,0,1-.85.62l-4.9-3.56a.57.57,0,0,0-.66,0l-4.9,3.56a.55.55,0,0,1-.85-.62l1.87-5.76a.55.55,0,0,0-.2-.62l-4.9-3.56a.56.56,0,0,1,.32-1h6.06a.55.55,0,0,0,.53-.38l1.89-5.81a.54.54,0,0,1,1,0"/><circle class="cls-5" cx="104" cy="16.04" r="10"/><path class="cls-4" d="M16.51,74.33l1.89,5.81a.56.56,0,0,0,.53.39H25a.55.55,0,0,1,.32,1l-4.9,3.56a.54.54,0,0,0-.2.62l1.87,5.76a.55.55,0,0,1-.85.62l-4.9-3.56a.57.57,0,0,0-.66,0l-4.9,3.56a.55.55,0,0,1-.85-.62l1.87-5.76a.55.55,0,0,0-.2-.62l-4.9-3.56a.55.55,0,0,1,.32-1h6.06a.56.56,0,0,0,.53-.39l1.89-5.81a.54.54,0,0,1,1,0"/><circle class="cls-5" cx="16" cy="84" r="10"/><path class="cls-4" d="M104.51,74.33l1.89,5.81a.56.56,0,0,0,.53.39H113a.55.55,0,0,1,.32,1l-4.9,3.56a.54.54,0,0,0-.2.62l1.87,5.76a.55.55,0,0,1-.85.62l-4.9-3.56a.57.57,0,0,0-.66,0l-4.9,3.56a.55.55,0,0,1-.85-.62l1.87-5.76a.55.55,0,0,0-.2-.62l-4.9-3.56a.55.55,0,0,1,.32-1h6.06a.56.56,0,0,0,.53-.39l1.89-5.81a.54.54,0,0,1,1,0"/><circle class="cls-5" cx="104" cy="84" r="10"/><path class="cls-6" d="M66.17,72.36l-4.41,5a1.42,1.42,0,0,1-2,.17l-3.41-2.74a1.43,1.43,0,0,1-.17-2.07L59,69.66a1.46,1.46,0,0,0,.36-1l-.15-3a1.42,1.42,0,0,0-.69-1.15l-4-2.41a1.42,1.42,0,0,1-.69-1.22V54.58a1.43,1.43,0,0,0-.67-1.22L44,47.65a1.44,1.44,0,0,1-.68-1.22h0a1.43,1.43,0,0,0-2.07-1.27L39,46.28a2,2,0,0,1-1.15.06,7.27,7.27,0,0,1-5.66-3.71A1.42,1.42,0,0,1,32,41.32l1.36-3.52a1.44,1.44,0,0,1,1-.87l1.55-.42A2,2,0,0,0,37.15,35l.13-4.66a1.42,1.42,0,0,1,.39-.89L39,28a1.44,1.44,0,0,1,1.72-.26l1.62.89A1.42,1.42,0,0,0,44,28.49l.9-.76a1.46,1.46,0,0,0,.5-1.24l-.22-2.14a1.42,1.42,0,0,1,1.2-1.55l4.2-.67a1.42,1.42,0,0,1,1.64,1.23l.3,2.38A1.42,1.42,0,0,0,54,27l5.54-.57a1.43,1.43,0,0,0,.86-.42l1.68-1.68a1.44,1.44,0,0,1,2.24.27l1.58,2.62a1.45,1.45,0,0,1,.12,1.25l-.25.66A1.42,1.42,0,0,0,66.88,31l14.58,2.73A1.53,1.53,0,0,1,82,34l5.44,3.53a1.41,1.41,0,0,1,.65,1.2v4.26a1.44,1.44,0,0,1-.32.91l-5,6.12a1.42,1.42,0,0,0-.28.58L81,56.5a1.51,1.51,0,0,1-.13.33l-3.44,6.54a1.42,1.42,0,0,1-.92.72L70,65.72a1.44,1.44,0,0,0-.94.78L66.38,72A1.11,1.11,0,0,1,66.17,72.36Z"/></g></svg>