<svg xmlns="http://www.w3.org/2000/svg" viewBox="0 0 300 200"><defs><style>.cls-1{fill:#ffcf44;}.cls-2{fill:#009b43;}.cls-3{fill:#213572;}.cls-4{fill:#f0f0f0;}.cls-5{fill:none;}</style></defs><title>27-sergipe-rounded</title><g id="rounded"><path class="cls-1" d="M20,200H280a20,20,0,0,0,20-20V150H0v30A20,20,0,0,0,20,200Z"/><rect class="cls-2" y="100" width="300" height="50"/><rect class="cls-1" x="100" y="50.02" width="200" height="50"/><path class="cls-2" d="M100,50H300V20A20,20,0,0,0,280,0H100Z"/><path class="cls-3" d="M20,0h80a0,0,0,0,1,0,0V100a0,0,0,0,1,0,0H0a0,0,0,0,1,0,0V20A20,20,0,0,1,20,0Z"/><path class="cls-4" d="M51,30.7,54.8,42.33a1.11,1.11,0,0,0,1.05.76H68a1.11,1.11,0,0,1,.65,2l-9.8,7.12a1.1,1.1,0,0,0-.4,1.24L62.16,65a1.11,1.11,0,0,1-1.7,1.24L50.65,59.1a1.11,1.11,0,0,0-1.3,0l-9.81,7.12A1.11,1.11,0,0,1,37.84,65l3.74-11.52a1.1,1.1,0,0,0-.4-1.24l-9.8-7.12a1.11,1.11,0,0,1,.65-2H44.15a1.11,1.11,0,0,0,1.05-.76L49,30.7a1.07,1.07,0,0,1,2,0"/><circle class="cls-5" cx="50" cy="50.04" r="20"/><path class="cls-4" d="M78,12.85l1.89,5.81a.55.55,0,0,0,.53.38h6.06a.55.55,0,0,1,.32,1l-4.9,3.56a.55.55,0,0,0-.2.62L83.58,30a.55.55,0,0,1-.85.62L77.83,27a.57.57,0,0,0-.66,0l-4.9,3.57a.55.55,0,0,1-.85-.62l1.87-5.77a.56.56,0,0,0-.2-.62L68.19,20a.55.55,0,0,1,.32-1h6.06a.55.55,0,0,0,.53-.38L77,12.85a.53.53,0,0,1,1,0"/><circle class="cls-5" cx="77.5" cy="22.51" r="10"/><path class="cls-4" d="M23,12.85l1.89,5.81a.55.55,0,0,0,.53.38h6.06a.55.55,0,0,1,.32,1l-4.9,3.56a.55.55,0,0,0-.2.62L28.58,30a.55.55,0,0,1-.85.62L22.83,27a.57.57,0,0,0-.66,0l-4.9,3.57a.55.55,0,0,1-.85-.62l1.87-5.77a.56.56,0,0,0-.2-.62L13.19,20a.55.55,0,0,1,.32-1h6.06a.55.55,0,0,0,.53-.38L22,12.85a.53.53,0,0,1,1,0"/><circle class="cls-5" cx="22.5" cy="22.51" r="10"/><path class="cls-4" d="M78,67.86l1.89,5.81a.55.55,0,0,0,.53.38h6.06a.55.55,0,0,1,.32,1l-4.9,3.56a.55.55,0,0,0-.2.62L83.58,85a.55.55,0,0,1-.85.62l-4.9-3.57a.57.57,0,0,0-.66,0l-4.9,3.57a.55.55,0,0,1-.85-.62l1.87-5.77a.56.56,0,0,0-.2-.62l-4.9-3.56a.55.55,0,0,1,.32-1h6.06a.55.55,0,0,0,.53-.38L77,67.86a.53.53,0,0,1,1,0"/><circle class="cls-5" cx="77.5" cy="77.52" r="10"/><path class="cls-4" d="M23,67.86l1.89,5.81a.55.55,0,0,0,.53.38h6.06a.55.55,0,0,1,.32,1l-4.9,3.56a.55.55,0,0,0-.2.62L28.58,85a.55.55,0,0,1-.85.62l-4.9-3.57a.57.57,0,0,0-.66,0l-4.9,3.57a.55.55,0,0,1-.85-.62l1.87-5.77a.56.56,0,0,0-.2-.62l-4.9-3.56a.55.55,0,0,1,.32-1h6.06a.55.55,0,0,0,.53-.38L22,67.86a.53.53,0,0,1,1,0"/><circle class="cls-5" cx="22.5" cy="77.52" r="10"/></g></svg>