<svg xmlns="http://www.w3.org/2000/svg" viewBox="0 0 200 200"><defs><style>.cls-1{fill:#009b43;}.cls-2{fill:#ffcf44;}.cls-3{fill:#213572;}.cls-4{fill:#f0f0f0;}</style></defs><title>01-brasil-square-rounded</title><g id="square-rounded"><rect class="cls-1" width="200" height="200" rx="20"/><path class="cls-2" d="M99.94,155.89,12.06,101.81a2.12,2.12,0,0,1,0-3.62L99.94,44.11a2.11,2.11,0,0,1,2.22,0L190,98.19a2.12,2.12,0,0,1,0,3.62l-87.88,54.08A2.11,2.11,0,0,1,99.94,155.89Z"/><path class="cls-3" d="M81.19,90.41a78,78,0,0,0-14.52,1.36,35.35,35.35,0,0,0,68.38,17.93c-.18.61-.37,1.23-.58,1.83A77.52,77.52,0,0,0,81.19,90.41Z"/><path class="cls-3" d="M136.22,103.66c.12-1.21.19-2.43.19-3.66a35.36,35.36,0,0,0-67-15.84,84.66,84.66,0,0,1,66.78,19.5Z"/><path class="cls-4" d="M135.52,107.86c0-.1,0-.19.07-.29.11-.53.21-1.06.3-1.6,0-.12.05-.25.07-.37.1-.63.19-1.26.25-1.9v0a84.66,84.66,0,0,0-66.78-19.5h0a34.66,34.66,0,0,0-2.77,7.6h0a77.85,77.85,0,0,1,67.8,19.76c.21-.6.4-1.22.58-1.83,0,0,0-.1,0-.14C135.25,109,135.39,108.43,135.52,107.86Z"/></g></svg>