<svg xmlns="http://www.w3.org/2000/svg" viewBox="0 0 200 200"><defs><style>.cls-1{fill:#f0f0f0;}.cls-2{fill:#d9251d;}.cls-3{fill:#01a2ce;}.cls-4{fill:#213572;}.cls-5{fill:none;}.cls-6{fill:#c6c6c6;}.cls-7{fill:#009b43;}</style></defs><title>03-alagoas-square-rounded</title><g id="square-rounded"><rect class="cls-1" x="66.67" width="66.67" height="200"/><path class="cls-2" d="M112.76,102.54a.33.33,0,0,1-.52,0,5.16,5.16,0,0,0-7.82,0,.33.33,0,0,1-.51,0,5.15,5.15,0,0,0-8.29.64A.33.33,0,0,1,95,103V94.25a1.34,1.34,0,0,0-1.33-1.33h-4a1.34,1.34,0,0,0-1.34,1.33V103a.33.33,0,0,1-.61.17,5.16,5.16,0,0,0-4.39-2.44v3.42c0,.35,0,.69,0,1,0,.18,0,.37,0,.55,4.09,0,4.12,4,8.26,4s4.16-4,8.32-4,4.18,4,8.34,4,4.17-3.94,8.26-4c0-.18,0-.37,0-.55,0-.35,0-.69,0-1v-3.42A5.2,5.2,0,0,0,112.76,102.54Z"/><path class="cls-3" d="M108.33,109.75c-4.16,0-4.16-4-8.34-4s-4.16,4-8.32,4-4.17-3.94-8.26-4a16.83,16.83,0,0,0,1.14,4.66c.09.22.19.44.29.66s.07.18.11.26a16.67,16.67,0,0,0,30.1,0c0-.08.07-.17.11-.26s.2-.44.29-.66a16.83,16.83,0,0,0,1.14-4.66C112.5,105.81,112.47,109.75,108.33,109.75Z"/><path class="cls-3" d="M83.33,79.17v7.75a5.5,5.5,0,0,1,4.17,2,5.34,5.34,0,0,0,8.33,0,5.35,5.35,0,0,1,8.34,0,5.34,5.34,0,0,0,8.33,0,5.5,5.5,0,0,1,4.17-2V79.17Z"/><rect class="cls-4" x="89.5" y="96.57" width="4.33" height="2.67" rx="1" transform="translate(189.57 6.23) rotate(90)"/><rect class="cls-2" x="86.33" y="92.92" width="10.67" height="2.67" rx="1"/><path class="cls-1" d="M107.61,86.92a4.25,4.25,0,0,0,3.45-1.6,4.24,4.24,0,0,0-3.45-1.59,4.39,4.39,0,0,0-3.12,1.21.54.54,0,0,0,0,.76A4.4,4.4,0,0,0,107.61,86.92Z"/><path class="cls-1" d="M110.27,85.32l1.61,1.61a.26.26,0,0,0,.45-.18V83.9a.26.26,0,0,0-.45-.19Z"/><path class="cls-1" d="M99.28,83.58A4.24,4.24,0,0,0,102.73,82a4.25,4.25,0,0,0-3.45-1.6,4.38,4.38,0,0,0-3.12,1.22.54.54,0,0,0,0,.76A4.37,4.37,0,0,0,99.28,83.58Z"/><path class="cls-1" d="M101.93,82l1.62,1.61a.26.26,0,0,0,.45-.19V80.56a.26.26,0,0,0-.45-.18Z"/><path class="cls-1" d="M91,86.92a4.26,4.26,0,0,0,3.45-1.6A4.25,4.25,0,0,0,91,83.73a4.4,4.4,0,0,0-3.13,1.21.54.54,0,0,0,0,.76A4.4,4.4,0,0,0,91,86.92Z"/><path class="cls-1" d="M93.6,85.32l1.61,1.61a.27.27,0,0,0,.46-.18V83.9a.27.27,0,0,0-.46-.19Z"/><path class="cls-1" d="M108.33,115.09c-4.16,0-4.16-4-8.34-4s-4.16,4-8.32,4c-3.54,0-4.08-2.88-6.72-3.75a16.77,16.77,0,0,0,7.59,7.73,2.67,2.67,0,0,0,3-.42c1.13-1.07,2.16-2.23,4.4-2.23s3.29,1.16,4.42,2.24a2.68,2.68,0,0,0,3,.41,16.77,16.77,0,0,0,7.59-7.73C112.41,112.21,111.87,115.09,108.33,115.09Z"/><circle class="cls-5" cx="100" cy="68.33" r="6.67" transform="translate(-1.12 134.99) rotate(-67.74)"/><path class="cls-1" d="M96.37,74.53a1.14,1.14,0,0,1-.92-.47,1.12,1.12,0,0,1-.17-1l1.13-3.49-3-2.15a1.14,1.14,0,0,1-.4-1.28,1.1,1.1,0,0,1,1.06-.75h3.65l1.13-3.49a1.2,1.2,0,0,1,1.11-.8,1.11,1.11,0,0,1,1.06.78l1.13,3.48h3.68a1.12,1.12,0,0,1,.65,2l-3,2.14L104.69,73a1.13,1.13,0,0,1-.16,1,1.12,1.12,0,0,1-1.58.25l-3-2.13-3,2.15A1.07,1.07,0,0,1,96.37,74.53Z"/><path class="cls-6" d="M100,61.78a.43.43,0,0,1,.43.31l1.17,3.63A.45.45,0,0,0,102,66h3.84a.45.45,0,0,1,.26.83L103,69.11a.41.41,0,0,0-.16.5l1.17,3.63a.46.46,0,0,1-.44.6.51.51,0,0,1-.28-.09l-3.06-2.22a.5.5,0,0,0-.54,0l-3.09,2.24a.41.41,0,0,1-.27.1.47.47,0,0,1-.45-.6l1.17-3.63a.45.45,0,0,0-.16-.51l-3.09-2.24a.45.45,0,0,1,.27-.82h3.81a.47.47,0,0,0,.43-.32l1.17-3.63a.51.51,0,0,1,.48-.34m0-1.34a1.85,1.85,0,0,0-1.71,1.17.42.42,0,0,0,0,.1l-1,3H94.11a1.76,1.76,0,0,0-1.69,1.21A1.79,1.79,0,0,0,93,68l0,0,2.57,1.86-1,3a1.78,1.78,0,0,0,.26,1.6,1.83,1.83,0,0,0,1.46.74,1.75,1.75,0,0,0,1.06-.35L100,73l2.55,1.84a1.81,1.81,0,0,0,2.51-.39,1.79,1.79,0,0,0,.27-1.6l-1-3L106.92,68a1.79,1.79,0,0,0-1-3.24h-3.2l-1-3a1.79,1.79,0,0,0-1.7-1.24Z"/><path class="cls-6" d="M116.67,79.17v25a16.67,16.67,0,0,1-33.34,0v-25h33.34m0-2H83.33a2,2,0,0,0-2,2v25a18.67,18.67,0,0,0,37.34,0v-25a2,2,0,0,0-2-2Z"/><path class="cls-7" d="M75.33,81.88a2,2,0,0,1,2,2v2a2,2,0,0,1-4,0v-2A2,2,0,0,1,75.33,81.88Z"/><path class="cls-7" d="M75.33,90.6a2,2,0,0,1,2,2v2a2,2,0,0,1-4,0v-2A2,2,0,0,1,75.33,90.6Z"/><path class="cls-7" d="M75.33,99.31a2,2,0,0,1,2,2v2a2,2,0,0,1-.15.78,2.08,2.08,0,0,1-.4.61,2.13,2.13,0,0,1-1.39.61h0a1.9,1.9,0,0,1-1.44-.55,2.1,2.1,0,0,1-.46-.67,2,2,0,0,1-.16-.78v-2A2,2,0,0,1,75.33,99.31Z"/><path class="cls-7" d="M75.66,108h0a2.12,2.12,0,0,1,1.48.33,2.06,2.06,0,0,1,.52.5,1.73,1.73,0,0,1,.34.66l.22.89a6.87,6.87,0,0,0,.27.88,2.06,2.06,0,0,1-1.21,2.5h0a2,2,0,0,1-2.59-1.25,7.2,7.2,0,0,1-.31-1l-.27-1a2.25,2.25,0,0,1-.06-.85,2.17,2.17,0,0,1,.31-.75A2,2,0,0,1,75.66,108Z"/><path class="cls-7" d="M78.49,116.2h0a2,2,0,0,1,2.7.59l1.1,1.48a2.07,2.07,0,0,1,.41,1.37A2.14,2.14,0,0,1,82,121h0a1.87,1.87,0,0,1-1.45.51,1.93,1.93,0,0,1-1.43-.77L77.87,119A2,2,0,0,1,78.49,116.2Z"/><path class="cls-7" d="M84,122.9a2.09,2.09,0,0,1,1.33-.71,1.84,1.84,0,0,1,1.41.32c.25.18.48.38.75.54l.78.47A2.11,2.11,0,0,1,89,126.2h0a1.88,1.88,0,0,1-1.19,1,1.94,1.94,0,0,1-1.59-.26l-.93-.56a10.68,10.68,0,0,1-.87-.63,2.16,2.16,0,0,1-.86-1.37A1.89,1.89,0,0,1,84,122.9Z"/><path class="cls-7" d="M124.67,81.88a2,2,0,0,1,2,2v2a2,2,0,0,1-4,0v-2A2,2,0,0,1,124.67,81.88Z"/><path class="cls-7" d="M124.67,90.6a2,2,0,0,1,2,2v2a2,2,0,0,1-4,0v-2A2,2,0,0,1,124.67,90.6Z"/><path class="cls-7" d="M124.67,99.31a2,2,0,0,1,2,2v2a2,2,0,0,1-.16.78,2.1,2.1,0,0,1-.46.67,1.9,1.9,0,0,1-1.44.55,2.13,2.13,0,0,1-1.39-.61,2.08,2.08,0,0,1-.4-.61,2,2,0,0,1-.15-.78v-2A2,2,0,0,1,124.67,99.31Z"/><path class="cls-7" d="M124.34,108a2,2,0,0,1,1.3.83,2.17,2.17,0,0,1,.31.75,2.25,2.25,0,0,1-.06.85l-.27,1a7.2,7.2,0,0,1-.31,1,2,2,0,0,1-2.59,1.25,2.06,2.06,0,0,1-1.21-2.5,6.87,6.87,0,0,0,.27-.88l.22-.89a1.73,1.73,0,0,1,.34-.66,2.06,2.06,0,0,1,.52-.5A2.12,2.12,0,0,1,124.34,108Z"/><path class="cls-7" d="M121.51,116.2a2,2,0,0,1,.62,2.83l-1.29,1.73a1.93,1.93,0,0,1-1.43.77A1.87,1.87,0,0,1,118,121h0a2.14,2.14,0,0,1-.66-1.38,2.07,2.07,0,0,1,.41-1.37l1.1-1.48A2,2,0,0,1,121.51,116.2Z"/><path class="cls-7" d="M116,122.9h0a1.89,1.89,0,0,1,.46,1.48,2.16,2.16,0,0,1-.86,1.37,10.68,10.68,0,0,1-.87.63l-.93.56a1.94,1.94,0,0,1-1.59.26,1.88,1.88,0,0,1-1.19-1h0a2.11,2.11,0,0,1,.71-2.68l.78-.47c.27-.16.5-.36.75-.54a1.84,1.84,0,0,1,1.41-.32A2.09,2.09,0,0,1,116,122.9Z"/><path class="cls-7" d="M93.34,137.16a2,2,0,0,1-1.52-3.31A24,24,0,0,1,107,125.7a2,2,0,1,1,.5,4,20,20,0,0,0-12.63,6.8A2,2,0,0,1,93.34,137.16Z"/><path class="cls-7" d="M106.67,137.16a2,2,0,0,1-1.52-.7,20,20,0,0,0-12.62-6.8,2,2,0,1,1,.5-4,23.94,23.94,0,0,1,15.15,8.15,2,2,0,0,1-.21,2.82A2,2,0,0,1,106.67,137.16Z"/><path class="cls-6" d="M116.67,79.17v25a16.67,16.67,0,0,1-33.34,0v-25h33.34m0-1.34H83.33A1.34,1.34,0,0,0,82,79.17v25a18,18,0,1,0,36,0v-25a1.34,1.34,0,0,0-1.33-1.34Z"/><path class="cls-2" d="M0,20V180a20,20,0,0,0,20,20H66.67V0H20A20,20,0,0,0,0,20Z"/><path class="cls-3" d="M133.33,0V200H180a20,20,0,0,0,20-20V20A20,20,0,0,0,180,0Z"/></g></svg>