<svg xmlns="http://www.w3.org/2000/svg" viewBox="0 0 200 200"><defs><style>.cls-1{fill:#f0f0f0;}.cls-2{fill:#d9251d;}.cls-3{fill:#213572;}.cls-4{fill:none;}</style></defs><title>05-amazonas-square-rounded</title><g id="square-rounded"><path class="cls-1" d="M100,0h80a20,20,0,0,1,20,20V66.67a0,0,0,0,1,0,0H100a0,0,0,0,1,0,0V0A0,0,0,0,1,100,0Z"/><rect class="cls-2" y="66.67" width="200" height="66.67"/><path class="cls-1" d="M0,133.33H200a0,0,0,0,1,0,0V180a20,20,0,0,1-20,20H20A20,20,0,0,1,0,180V133.33A0,0,0,0,1,0,133.33Z"/><path class="cls-3" d="M20,0h80a0,0,0,0,1,0,0V66.67a0,0,0,0,1,0,0H0a0,0,0,0,1,0,0V20A20,20,0,0,1,20,0Z"/><path class="cls-1" d="M30.77,18.86l2.83,8.72a.83.83,0,0,0,.79.57h9.09a.83.83,0,0,1,.49,1.5L36.61,35a.83.83,0,0,0-.3.93l2.81,8.64a.83.83,0,0,1-1.28.93l-7.35-5.34a.84.84,0,0,0-1,0L22.16,45.5a.83.83,0,0,1-1.28-.93l2.81-8.64a.83.83,0,0,0-.3-.93L16,29.65a.83.83,0,0,1,.49-1.5h9.09a.83.83,0,0,0,.79-.57l2.83-8.72a.81.81,0,0,1,1.54,0"/><circle class="cls-4" cx="30" cy="33.36" r="15"/><path class="cls-1" d="M70.77,18.86l2.83,8.72a.83.83,0,0,0,.79.57h9.09a.83.83,0,0,1,.49,1.5L76.61,35a.83.83,0,0,0-.3.93l2.81,8.64a.83.83,0,0,1-1.28.93l-7.35-5.34a.84.84,0,0,0-1,0L62.16,45.5a.83.83,0,0,1-1.28-.93l2.81-8.64a.83.83,0,0,0-.3-.93L56,29.65a.83.83,0,0,1,.49-1.5h9.09a.83.83,0,0,0,.79-.57l2.83-8.72a.81.81,0,0,1,1.54,0"/><circle class="cls-4" cx="70" cy="33.36" r="15"/></g></svg>