<svg xmlns="http://www.w3.org/2000/svg" viewBox="0 0 200 200"><defs><style>.cls-1{fill:#d9251d;}.cls-2{fill:#f0f0f0;}.cls-3{fill:#213572;}</style></defs><title>06-bahia-square-rounded</title><g id="square-rounded"><rect class="cls-1" y="100" width="200" height="50"/><path class="cls-2" d="M0,150H200a0,0,0,0,1,0,0v30a20,20,0,0,1-20,20H20A20,20,0,0,1,0,180V150A0,0,0,0,1,0,150Z"/><path class="cls-1" d="M100,0h80a20,20,0,0,1,20,20V50a0,0,0,0,1,0,0H100a0,0,0,0,1,0,0V0A0,0,0,0,1,100,0Z"/><rect class="cls-2" x="100" y="50" width="100" height="50"/><path class="cls-3" d="M20,0h80a0,0,0,0,1,0,0V100a0,0,0,0,1,0,0H0a0,0,0,0,1,0,0V20A20,20,0,0,1,20,0Z"/><path class="cls-2" d="M45.79,16.43,12.14,74.71A4.86,4.86,0,0,0,16.35,82h67.3a4.86,4.86,0,0,0,4.21-7.29L54.21,16.43a4.86,4.86,0,0,0-8.42,0L12.14,74.71A4.86,4.86,0,0,0,16.35,82h67.3a4.86,4.86,0,0,0,4.21-7.29L54.21,16.43A4.86,4.86,0,0,0,45.79,16.43Z"/></g></svg>