<svg xmlns="http://www.w3.org/2000/svg" viewBox="0 0 200 200"><defs><style>.cls-1{fill:#009b43;}.cls-2{fill:#ffcf44;}.cls-3{fill:#f0f0f0;}.cls-4{fill:#00a2ce;}.cls-5{fill:#b89b53;}.cls-6{fill:#54a7aa;}.cls-7{fill:#89cbc9;}.cls-8{fill:none;}.cls-9{fill:#e3a172;}.cls-10{fill:#7b5e4c;}</style></defs><title>07-ceara-square-rounded</title><g id="square-rounded"><rect class="cls-1" width="200" height="200" rx="20"/><path class="cls-2" d="M98.89,155.89,11,101.81a2.12,2.12,0,0,1,0-3.62L98.89,44.11a2.11,2.11,0,0,1,2.22,0L189,98.19a2.12,2.12,0,0,1,0,3.62l-87.88,54.08A2.11,2.11,0,0,1,98.89,155.89Z"/><path class="cls-3" d="M135.36,100A35.36,35.36,0,1,1,100,64.64,35.36,35.36,0,0,1,135.36,100"/><path class="cls-1" d="M119.09,101.83l-.23-.54c-.79-1.91-1.78-4.3-1.55-6.34.2-1.82,1.28-3.38,3.3-4.78a.8.8,0,0,0,.18-1.15l-4.6-5.92a4.16,4.16,0,0,0-2.67-1.59,90.82,90.82,0,0,0-13.34-1.09,90.85,90.85,0,0,0-13.35,1.09,4.19,4.19,0,0,0-2.67,1.59L79.56,89a.82.82,0,0,0-.16.61.85.85,0,0,0,.34.54c2,1.4,3.11,3,3.3,4.78.23,2-.75,4.43-1.55,6.34l-.22.54c-1.19,2.89-2.17,5.52-2.17,8.44a6.44,6.44,0,0,0,.29,1.9,10.32,10.32,0,0,0,3.73,4.89,41.19,41.19,0,0,0,6.14,3.84c.6.32,1.21.65,1.82,1,1.57.83,3.2,1.68,4.73,2.63a12.94,12.94,0,0,1,3.71,3.09.79.79,0,0,0,.66.34.78.78,0,0,0,.65-.34,13.12,13.12,0,0,1,3.72-3.09c1.52-.95,3.15-1.8,4.72-2.63.62-.31,1.22-.64,1.82-1a40.69,40.69,0,0,0,6.14-3.84,10.35,10.35,0,0,0,3.74-4.89,6.43,6.43,0,0,0,.28-1.9C121.25,107.35,120.27,104.72,119.09,101.83Z"/><path class="cls-4" d="M100,114.66c-5.56,0-10.08-5.88-10.08-13.1s4.52-13.1,10.08-13.1,10.07,5.88,10.07,13.1-4.51,13.1-10.07,13.1"/><path class="cls-3" d="M100,116.07c-6.34,0-11.49-6.51-11.49-14.51S93.66,87.05,100,87.05s11.49,6.51,11.49,14.51S106.34,116.07,100,116.07Zm0-26.19c-4.78,0-8.66,5.24-8.66,11.68s3.88,11.68,8.66,11.68,8.66-5.24,8.66-11.68S104.78,89.88,100,89.88Z"/><path class="cls-5" d="M112.5,72.55a1.42,1.42,0,0,0-1.24-1.32,97.42,97.42,0,0,0-11.08-.71,97.28,97.28,0,0,0-11.08.71,1.43,1.43,0,0,0-1.25,1.32c0,.25,0,.49,0,.73A7.81,7.81,0,0,0,89,77.53a1.41,1.41,0,0,0,1.36.66,92.76,92.76,0,0,1,9.86-.6,92.42,92.42,0,0,1,9.85.6,1.43,1.43,0,0,0,1.37-.66,7.91,7.91,0,0,0,1.13-4.25C112.53,73,112.52,72.8,112.5,72.55Z"/><path class="cls-6" d="M91.34,101.56c0,6.44,3.89,11.68,8.66,11.68s8.66-5.24,8.66-11.68Z"/><path class="cls-7" d="M100,89.88c-4.77,0-8.66,5.24-8.66,11.68h17.32C108.66,95.12,104.77,89.88,100,89.88Z"/><path class="cls-8" d="M100,101.56c0-3.32,2.8-6.17,6.74-7.31-1.59-2.66-4-4.37-6.74-4.37-4.78,0-8.66,5.24-8.66,11.68s3.88,11.68,8.66,11.68a6.58,6.58,0,0,0,2.73-.6A24.24,24.24,0,0,1,100,101.56Z"/><path class="cls-1" d="M100,101.56h8.66a14.27,14.27,0,0,0-1.92-7.31C102.8,95.39,100,98.24,100,101.56Z"/><path class="cls-9" d="M102.73,112.64c3.44-1.55,5.93-5.92,5.93-11.08H100A24.24,24.24,0,0,0,102.73,112.64Z"/><path class="cls-2" d="M95.67,98a3.55,3.55,0,0,0-3.54,3.54h7.08A3.55,3.55,0,0,0,95.67,98Z"/><path class="cls-3" d="M95.26,95.9h.83a1,1,0,0,1,1,1v4.66a0,0,0,0,1,0,0H94.26a0,0,0,0,1,0,0V96.9A1,1,0,0,1,95.26,95.9Z"/><path class="cls-3" d="M95.72,107.87a.55.55,0,0,1-.28-.07.58.58,0,0,1-.31-.36,6.85,6.85,0,0,1-.3-2,6.56,6.56,0,0,1,.31-2,.61.61,0,0,1,.47-.42h.11a.61.61,0,0,1,.47.23,5.66,5.66,0,0,0,2.16,1.66.59.59,0,0,1,.36.56.62.62,0,0,1-.36.56,5.57,5.57,0,0,0-2.15,1.64.43.43,0,0,1-.09.1A.62.62,0,0,1,95.72,107.87Z"/><line class="cls-8" x1="108.66" y1="101.56" x2="106.74" y2="94.25"/><path class="cls-3" d="M102,97.7a.73.73,0,0,1-.49-.2.7.7,0,0,1,0-1,9.43,9.43,0,0,1,1.13-1,11.32,11.32,0,0,1,1.3-.83.71.71,0,1,1,.69,1.23,8.9,8.9,0,0,0-1.13.73,7.66,7.66,0,0,0-1,.87A.71.71,0,0,1,102,97.7Z"/><path class="cls-3" d="M104.22,99.44a.71.71,0,0,1-.71-.71,2.81,2.81,0,0,0-.93-2.16,2.85,2.85,0,0,0-2.21-1,.7.7,0,0,1-.71-.7.71.71,0,0,1,.71-.71,4.17,4.17,0,0,1,3.2,1.39,4.13,4.13,0,0,1,1.35,3.16A.7.7,0,0,1,104.22,99.44Z"/><circle class="cls-10" cx="104.58" cy="105.09" r="2.47"/><path class="cls-10" d="M103.87,105.07h1.41a0,0,0,0,1,0,0v4a.71.71,0,0,1-.71.71h0a.71.71,0,0,1-.71-.71v-4a0,0,0,0,1,0,0Z"/><circle class="cls-3" cx="100" cy="121.84" r="1.41"/><circle class="cls-3" cx="93.03" cy="118.19" r="1.41"/><circle class="cls-3" cx="106.97" cy="118.19" r="1.41"/><circle class="cls-3" cx="86.53" cy="112.99" r="1.41"/><circle class="cls-3" cx="84.47" cy="105.3" r="1.41"/><circle class="cls-3" cx="85.84" cy="97.05" r="1.41"/><circle class="cls-3" cx="86.37" cy="89.37" r="1.41"/></g></svg>