<svg xmlns="http://www.w3.org/2000/svg" viewBox="0 0 200 200"><defs><style>.cls-1{fill:#f0f0f0;}.cls-2{fill:#009b43;}.cls-3{fill:#ffcf44;}</style></defs><title>08-distrito-federal-square-rounded</title><g id="rounded"><rect class="cls-1" width="200" height="200" rx="20"/><rect class="cls-2" x="50" y="50" width="100" height="100" rx="10"/><path class="cls-3" d="M147.12,97.88l-7-7A3,3,0,0,0,138,90H110V62a3,3,0,0,0-.88-2.12l-7-7a3,3,0,0,0-4.24,0l-7,7A3,3,0,0,0,90,62V90H62a3,3,0,0,0-2.12.88l-7,7a3,3,0,0,0,0,4.24l7,7A3,3,0,0,0,62,110H90v28a3,3,0,0,0,.88,2.12l7,7a3,3,0,0,0,4.24,0l7-7A3,3,0,0,0,110,138V110h28a3,3,0,0,0,2.12-.88l7-7A3,3,0,0,0,147.12,97.88Z"/><path class="cls-2" d="M118.23,98.23a2.5,2.5,0,0,1,0,3.54L110,110l-8.23,8.23a2.5,2.5,0,0,1-3.54,0L90,110l-8.23-8.23a2.5,2.5,0,0,1,0-3.54L90,90l8.23-8.23a2.5,2.5,0,0,1,3.54,0L110,90Z"/></g></svg>