<svg xmlns="http://www.w3.org/2000/svg" viewBox="0 0 200 200"><defs><style>.cls-1{fill:#ea5a8d;}.cls-2{fill:#01a2ce;}.cls-3{fill:#f0f0f0;}</style></defs><title>09-espirito-santo-square-rounded-v2</title><g id="Layer_18" data-name="Layer 18"><path class="cls-1" d="M20,200H180a20,20,0,0,0,20-20V133.33H0V180A20,20,0,0,0,20,200Z"/><path class="cls-2" d="M0,66.67H200V20A20,20,0,0,0,180,0H20A20,20,0,0,0,0,20Z"/><rect class="cls-3" y="66.67" width="200" height="66.67"/><path class="cls-2" d="M28.14,113.32a1.18,1.18,0,0,1-1.74-.63l-2.83-6-2,.94a1.06,1.06,0,1,1-.9-1.91l6.37-3a1.06,1.06,0,1,1,.9,1.92l-2,.94,2.83,6a1.38,1.38,0,0,1,.12,1A1.34,1.34,0,0,1,28.14,113.32Z"/><path class="cls-2" d="M34.81,110.33a1.19,1.19,0,0,1-1.7-.74l-2.78-6.91a1.18,1.18,0,0,1,.73-1.71l3.22-1.3A3.82,3.82,0,0,1,37,99.46a2.9,2.9,0,0,1,1.71,1.79,3.09,3.09,0,0,1,.19,1.94,2.93,2.93,0,0,1-1.11,1.58,2,2,0,0,1,1.58.53l1.13.92a1.5,1.5,0,0,1,.49.67.86.86,0,0,1,0,.7,1.25,1.25,0,0,1-.68.54,1.7,1.7,0,0,1-.91.13,2,2,0,0,1-.84-.43l-2.07-1.71a1,1,0,0,0-.56-.24,1.47,1.47,0,0,0-.6.11l-.72.29.94,2.35a1.31,1.31,0,0,1,.06,1A1.29,1.29,0,0,1,34.81,110.33Zm-.91-5.75,1.59-.65c.95-.38,1.28-1,1-1.7s-.93-.92-1.88-.54l-1.6.65Z"/><path class="cls-2" d="M43.66,106.86a1,1,0,0,1-1.43-1.19l1-8.29a1.91,1.91,0,0,1,.34-1,1.46,1.46,0,0,1,.73-.52,1.43,1.43,0,0,1,.89,0,2,2,0,0,1,.84.56l5.73,6.08a1.12,1.12,0,0,1,.38,1.07,1,1,0,0,1-.74.71,1.38,1.38,0,0,1-.91,0,2.2,2.2,0,0,1-.77-.61l-.77-.88-4.22,1.41-.09,1.16a2.5,2.5,0,0,1-.24.94A1.15,1.15,0,0,1,43.66,106.86Zm1.46-8.26-.26,3.5,2.6-.86L45.15,98.6Z"/><path class="cls-2" d="M55.26,103.05a1.19,1.19,0,0,1-1.65-1l-1.86-7a1.19,1.19,0,0,1,1-1.65l3.33-.88a4,4,0,0,1,2.59,0A2.29,2.29,0,0,1,60,94.16a2.41,2.41,0,0,1,0,1.41,2.35,2.35,0,0,1-.82,1.11,2.45,2.45,0,0,1,1.46.5,2.41,2.41,0,0,1,.81,1.32,2.5,2.5,0,0,1-.37,2.24,4,4,0,0,1-2.29,1.39ZM54.82,97l1.79-.48a1.73,1.73,0,0,0,.94-.51.91.91,0,0,0,.12-.83.88.88,0,0,0-.52-.66,1.67,1.67,0,0,0-1.06,0L54.3,95Zm1,4,2-.54a1.65,1.65,0,0,0,1-.54,1.19,1.19,0,0,0-.42-1.59,1.74,1.74,0,0,0-1.09,0l-2,.54Z"/><path class="cls-2" d="M64.55,100.81a1.08,1.08,0,0,1-1-.25,1.11,1.11,0,0,1-.22-1.11l2-8.11a1.9,1.9,0,0,1,.45-.91,1.55,1.55,0,0,1,.8-.42,1.47,1.47,0,0,1,.88.09,1.88,1.88,0,0,1,.76.67l4.93,6.73a1.11,1.11,0,0,1,.25,1.11,1,1,0,0,1-.83.62,1.31,1.31,0,0,1-.9-.08,2.18,2.18,0,0,1-.69-.7l-.65-1-4.37.87-.23,1.14a2.59,2.59,0,0,1-.35.9A1.14,1.14,0,0,1,64.55,100.81Zm2.47-8-.69,3.44L69,95.7l-2-2.9Z"/><path class="cls-2" d="M76.51,98.48A1.2,1.2,0,0,1,75,97.36l-1-7.27a1.18,1.18,0,0,1,1.11-1.48,1.31,1.31,0,0,1,1,.2,1.36,1.36,0,0,1,.47.92l.9,6.43,3.41-.47a1.14,1.14,0,0,1,.86.16,1.06,1.06,0,0,1,.4.74,1.09,1.09,0,0,1-.18.84,1.13,1.13,0,0,1-.78.39Z"/><path class="cls-2" d="M85.27,97.48a1.25,1.25,0,0,1-1-.26,1.27,1.27,0,0,1-.42-1l-.62-7.53a1.34,1.34,0,0,1,.26-1,1.28,1.28,0,0,1,.93-.42,1.29,1.29,0,0,1,1,.26,1.31,1.31,0,0,1,.42,1l.22,2.63,4.09-.34-.21-2.63a1.34,1.34,0,0,1,.25-1,1.35,1.35,0,0,1,.93-.42,1.32,1.32,0,0,1,1,.26,1.34,1.34,0,0,1,.41,1l.62,7.53a1.38,1.38,0,0,1-.25,1,1.23,1.23,0,0,1-.92.42,1.31,1.31,0,0,1-1-.26,1.38,1.38,0,0,1-.41-1L90.33,93l-4.1.33.23,2.78a1.39,1.39,0,0,1-.25,1A1.31,1.31,0,0,1,85.27,97.48Z"/><path class="cls-2" d="M96.06,96.72a1.11,1.11,0,0,1-1-.44,1.1,1.1,0,0,1,0-1.13l3.38-7.63a2,2,0,0,1,.61-.81,1.56,1.56,0,0,1,1.71,0,1.93,1.93,0,0,1,.64.79L105,95a1.12,1.12,0,0,1,0,1.14,1,1,0,0,1-.93.46,1.41,1.41,0,0,1-.87-.24,2.33,2.33,0,0,1-.56-.81l-.47-1.07-4.44.08-.44,1.08a2.78,2.78,0,0,1-.5.83A1.2,1.2,0,0,1,96.06,96.72Zm3.87-7.44-1.3,3.25,2.74,0L100,89.28Z"/><path class="cls-2" d="M113,96.75a1.19,1.19,0,0,1-1.27-1.43l.48-7.25a1.19,1.19,0,0,1,1.45-1.25l4.77.31a1,1,0,1,1-.13,2l-3.65-.25-.13,1.89,3.34.22a1,1,0,1,1-.13,2l-3.34-.22-.13,2,3.64.25a.88.88,0,0,1,.95,1.06.89.89,0,0,1-1.08.94Z"/><path class="cls-2" d="M130.44,98.74a6,6,0,0,1-2.71-1,4.39,4.39,0,0,1-1.53-2,6.16,6.16,0,0,1,.8-5.36,4.3,4.3,0,0,1,2.05-1.5,6,6,0,0,1,2.91-.21,6.85,6.85,0,0,1,1.31.34,4.5,4.5,0,0,1,1.15.63,1.22,1.22,0,0,1,.47.61,1.18,1.18,0,0,1,0,.67,1.26,1.26,0,0,1-.33.57,1,1,0,0,1-.56.28.94.94,0,0,1-.66-.19,3.78,3.78,0,0,0-1.63-.66,2.51,2.51,0,0,0-2.06.44,3,3,0,0,0-1,2A3.08,3.08,0,0,0,129,95.5a2.52,2.52,0,0,0,1.84,1,3.46,3.46,0,0,0,.8,0,3.72,3.72,0,0,0,.86-.16,1.18,1.18,0,0,1,.77,0,1,1,0,0,1,.48.41,1.15,1.15,0,0,1,.18.62,1.23,1.23,0,0,1-.19.64,1.07,1.07,0,0,1-.6.44,4.11,4.11,0,0,1-1.27.28A6.45,6.45,0,0,1,130.44,98.74Z"/><path class="cls-2" d="M140,100.5a5.34,5.34,0,0,1-2.46-1.18,4.44,4.44,0,0,1-1.35-2.13,5.48,5.48,0,0,1-.07-2.77,5.58,5.58,0,0,1,1.18-2.51,4.36,4.36,0,0,1,2.1-1.38,5.86,5.86,0,0,1,5.19,1.1,4.47,4.47,0,0,1,1.36,2.12,5.37,5.37,0,0,1,.06,2.77A5.43,5.43,0,0,1,144.81,99a4.47,4.47,0,0,1-2.11,1.39A5.28,5.28,0,0,1,140,100.5Zm.45-2.13a2.09,2.09,0,0,0,1.86-.4,3.47,3.47,0,0,0,1.07-2,3.38,3.38,0,0,0-.16-2.25,2.34,2.34,0,0,0-3.4-.73,3.49,3.49,0,0,0-1.06,2,3.45,3.45,0,0,0,.16,2.27A2.08,2.08,0,0,0,140.43,98.37Z"/><path class="cls-2" d="M148.12,102.37a1.08,1.08,0,0,1-.84-1.51l2.1-7.41a1.36,1.36,0,0,1,.56-.83,1,1,0,0,1,.87-.09,1.19,1.19,0,0,1,.63.35,2.82,2.82,0,0,1,.4.7l2.54,6,1.25-4.44a1.07,1.07,0,0,1,1.49-.84,1.17,1.17,0,0,1,.78.55,1.25,1.25,0,0,1,0,.94l-2.12,7.53a1.3,1.3,0,0,1-.51.75,1,1,0,0,1-.82.09,1.45,1.45,0,0,1-.68-.36,2.42,2.42,0,0,1-.41-.71l-2.54-6-1.25,4.43A1.08,1.08,0,0,1,148.12,102.37Z"/><path class="cls-2" d="M159,105.64a1.35,1.35,0,0,1-.8-.64,1.38,1.38,0,0,1,0-1.06l2.42-7a1.19,1.19,0,0,1,1.72-.83l4.44,1.54a1,1,0,1,1-.65,1.89l-3.27-1.13-.66,1.9,3,1a1,1,0,1,1-.65,1.88l-3-1-.89,2.59A1.17,1.17,0,0,1,159,105.64Z"/><path class="cls-2" d="M167.25,108.63a1.3,1.3,0,0,1-.77-.67,1.35,1.35,0,0,1,0-1l2.75-7a1.35,1.35,0,0,1,.68-.8,1.32,1.32,0,0,1,1,0,1.26,1.26,0,0,1,.77.66,1.33,1.33,0,0,1,0,1l-2.75,7a1.18,1.18,0,0,1-1.69.77Z"/><path class="cls-2" d="M171.13,110.14a1,1,0,0,1-.25-1.84l6.29-5.48a1.94,1.94,0,0,1,.89-.49,1.54,1.54,0,0,1,.89.12,1.37,1.37,0,0,1,.67.58,1.81,1.81,0,0,1,.24,1l.14,8.34a1.12,1.12,0,0,1-.44,1,1,1,0,0,1-1,0,1.33,1.33,0,0,1-.69-.59,2.18,2.18,0,0,1-.16-1l0-1.16-4.06-1.81-.85.8a2.69,2.69,0,0,1-.81.53A1.1,1.1,0,0,1,171.13,110.14Zm6.64-5.11-2.55,2.41,2.5,1.11.08-3.5Z"/></g></svg>