<svg xmlns="http://www.w3.org/2000/svg" viewBox="0 0 200 200"><defs><style>.cls-1{fill:#213572;}.cls-2{fill:#f0f0f0;}.cls-3{fill:#009b43;}.cls-4{fill:#ffcf44;}.cls-5{fill:none;}</style></defs><title>12-mato-grosso-square-rounded</title><g id="square-rounded"><path class="cls-1" d="M13.33,200H186.67C194,200,200,191.05,200,180V20c0-11-6-20-13.33-20H13.33C6,0,0,9,0,20V180C0,191.05,6,200,13.33,200Z"/><path class="cls-2" d="M98.89,155.89,11,101.81a2.12,2.12,0,0,1,0-3.62L98.89,44.11a2.11,2.11,0,0,1,2.22,0L189,98.19a2.12,2.12,0,0,1,0,3.62l-87.88,54.08A2.11,2.11,0,0,1,98.89,155.89Z"/><path class="cls-3" d="M135.36,100A35.36,35.36,0,1,1,100,64.64,35.36,35.36,0,0,1,135.36,100"/><path class="cls-4" d="M101.63,69.3l6,18.49A1.77,1.77,0,0,0,109.31,89h19.28a1.76,1.76,0,0,1,1,3.19L114,103.53a1.75,1.75,0,0,0-.64,2l6,18.34a1.77,1.77,0,0,1-2.72,2L101,114.48a1.77,1.77,0,0,0-2.08,0l-15.6,11.33a1.76,1.76,0,0,1-2.71-2l6-18.34a1.76,1.76,0,0,0-.64-2L70.37,92.2a1.76,1.76,0,0,1,1-3.19H90.69a1.75,1.75,0,0,0,1.67-1.22l6-18.49a1.71,1.71,0,0,1,3.26,0"/><circle class="cls-5" cx="100" cy="100.06" r="31.82"/></g></svg>