<svg xmlns="http://www.w3.org/2000/svg" viewBox="0 0 200 200"><defs><style>.cls-1{fill:#d9251d;}.cls-2{fill:#1d1d1b;}.cls-3{fill:#f0f0f0;}</style></defs><title>16-paraiba-square-rounded</title><g id="square-rounded"><path class="cls-1" d="M180,0H66.67V200H180a20,20,0,0,0,20-20V20A20,20,0,0,0,180,0Z"/><path class="cls-2" d="M20,0A20,20,0,0,0,0,20V180a20,20,0,0,0,20,20H66.67V0Z"/><path class="cls-3" d="M96.93,109.94a2.1,2.1,0,0,1-2.37-2.39v-15a2.63,2.63,0,0,1,.6-1.86,2.1,2.1,0,0,1,1.6-.64,2.38,2.38,0,0,1,1.36.33,5.91,5.91,0,0,1,1.12,1.1l8,9.93v-9a2.07,2.07,0,0,1,2.33-2.36,2.3,2.3,0,0,1,1.75.61,2.47,2.47,0,0,1,.59,1.75v15.24a2.42,2.42,0,0,1-.55,1.67,1.87,1.87,0,0,1-1.48.61,2.76,2.76,0,0,1-1.47-.33,4.61,4.61,0,0,1-1.15-1.1l-7.95-9.93v9A2.09,2.09,0,0,1,96.93,109.94Z"/><path class="cls-3" d="M118.05,109.7a2.32,2.32,0,0,1-2.64-2.62V92.92a2.32,2.32,0,0,1,2.64-2.62h9.33a1.73,1.73,0,0,1,2,1.93,1.75,1.75,0,0,1-2,2h-7.13V97.9h6.52a2,2,0,1,1,0,3.9h-6.52v4h7.13a2,2,0,1,1,0,3.91Z"/><path class="cls-3" d="M142.26,110a11.82,11.82,0,0,1-5.65-1.24,8.41,8.41,0,0,1-3.54-3.47,11.78,11.78,0,0,1,.07-10.54,8.64,8.64,0,0,1,3.67-3.51A12.4,12.4,0,0,1,142.59,90a16.06,16.06,0,0,1,2.81.26,10.06,10.06,0,0,1,2.8,1,1.89,1.89,0,0,1,1,.92,2.21,2.21,0,0,1,.16,1.25,2.43,2.43,0,0,1-.48,1.17,2,2,0,0,1-1,.7,2,2,0,0,1-1.42-.16,8.8,8.8,0,0,0-3.82-.8,5.35,5.35,0,0,0-4.14,1.48,6.17,6.17,0,0,0-1.37,4.3,5.9,5.9,0,0,0,1.38,4.23,5.38,5.38,0,0,0,4.07,1.43,11.84,11.84,0,0,0,2.84-.38v-3.06h-1.93c-1.3,0-1.95-.59-1.95-1.78s.65-1.76,1.95-1.76h4.07a1.75,1.75,0,0,1,2,2v6.08a2.69,2.69,0,0,1-.34,1.4,1.89,1.89,0,0,1-1.09.82,17.1,17.1,0,0,1-2.82.69A17.89,17.89,0,0,1,142.26,110Z"/><path class="cls-3" d="M162.26,110a10.37,10.37,0,0,1-5.16-1.25,8.89,8.89,0,0,1-3.45-3.51,10.67,10.67,0,0,1-1.24-5.25,10.88,10.88,0,0,1,1.22-5.27,8.59,8.59,0,0,1,3.46-3.48,11.38,11.38,0,0,1,10.33,0,8.69,8.69,0,0,1,3.45,3.48,11.78,11.78,0,0,1,0,10.52,8.89,8.89,0,0,1-3.45,3.51A10.37,10.37,0,0,1,162.26,110Zm0-4.24a4.11,4.11,0,0,0,3.37-1.52,8,8,0,0,0,0-8.49,4.54,4.54,0,0,0-6.76,0,6.61,6.61,0,0,0-1.22,4.24,6.68,6.68,0,0,0,1.22,4.25A4.07,4.07,0,0,0,162.26,105.76Z"/></g></svg>