<svg xmlns="http://www.w3.org/2000/svg" viewBox="0 0 200 200"><defs><style>.cls-1{fill:#009b43;}.cls-2{fill:#f0f0f0;}.cls-3{fill:#213572;}</style></defs><title>17-parana-square-rounded</title><g id="square-rounded"><path class="cls-1" d="M0,180a20,20,0,0,0,20,20H129.29L0,70.71Z"/><path class="cls-2" d="M70.71,0H20A20,20,0,0,0,0,20V70.71L129.29,200H180a20,20,0,0,0,20-20V129.29Z"/><path class="cls-1" d="M200,20A20,20,0,0,0,180,0H70.71L200,129.29Z"/><path class="cls-3" d="M71.92,92.44c-3.63,0-7.34.19-11,.56h-.1a1,1,0,0,1-.17,0,40,40,0,0,0,76.75,21.26.85.85,0,0,1-.25-.13A108.09,108.09,0,0,0,71.92,92.44Z"/><path class="cls-3" d="M140,101.46c0-.49,0-1,0-1.46A40,40,0,0,0,65,80.65c2.44-.14,4.72-.21,6.93-.21A120.11,120.11,0,0,1,140,101.46Z"/></g></svg>