<svg xmlns="http://www.w3.org/2000/svg" viewBox="0 0 200 200"><defs><style>.cls-1{fill:#213572;}.cls-2{fill:#d9251d;}.cls-3{fill:#ffcf44;}.cls-4{fill:#009b43;}.cls-5{fill:#f0f0f0;}.cls-6{fill:none;}</style></defs><title>18-pernambuco-square-rounded</title><g id="square-rounded"><path class="cls-1" d="M20,0H180a20,20,0,0,1,20,20V133.33a0,0,0,0,1,0,0H0a0,0,0,0,1,0,0V20A20,20,0,0,1,20,0Z"/><path class="cls-2" d="M100,33.33a100,100,0,0,0-100,100H10a90,90,0,0,1,180,0h10A100,100,0,0,0,100,33.33Z"/><path class="cls-3" d="M100,53.33a80,80,0,0,1,80,80h10a90,90,0,0,0-180,0H20A80,80,0,0,1,100,53.33Z"/><path class="cls-4" d="M100,53.33a80,80,0,0,0-80,80H30a70,70,0,0,1,140,0h10A80,80,0,0,0,100,53.33Z"/><path class="cls-1" d="M100,63.33a70,70,0,0,0-70,70H170A70,70,0,0,0,100,63.33Z"/><path class="cls-5" d="M180,200H20A20,20,0,0,1,0,180V133.33H200V180A20,20,0,0,1,180,200Z"/><circle class="cls-3" cx="100" cy="98.33" r="20"/><rect class="cls-2" x="85" y="156.67" width="30" height="10" rx="2"/><rect class="cls-2" x="80" y="161.67" width="40" height="10" rx="2" transform="translate(266.67 66.67) rotate(90)"/><path class="cls-3" d="M100.51,7l1.89,5.81a.55.55,0,0,0,.53.38H109a.55.55,0,0,1,.32,1l-4.9,3.57a.54.54,0,0,0-.2.62l1.87,5.76a.55.55,0,0,1-.85.62l-4.9-3.56a.57.57,0,0,0-.66,0l-4.9,3.56a.55.55,0,0,1-.85-.62l1.87-5.76a.55.55,0,0,0-.2-.62l-4.9-3.57a.55.55,0,0,1,.32-1h6.06a.55.55,0,0,0,.53-.38L99.49,7a.53.53,0,0,1,1,0"/><circle class="cls-6" cx="100" cy="16.69" r="10"/></g></svg>