<svg xmlns="http://www.w3.org/2000/svg" viewBox="0 0 200 200"><defs><style>.cls-1{fill:#f0f0f0;}.cls-2{fill:#009b43;}.cls-3{fill:#ffcf44;}.cls-4{fill:none;}.cls-5{fill:#e39125;}.cls-6{fill:#c6c6c6;}.cls-7{fill:#01a2ce;}</style></defs><title>21-rio-grande-do-norte-square-rounded</title><g id="square-rounded"><path class="cls-1" d="M0,100H200V20A20,20,0,0,0,180,0H20A20,20,0,0,0,0,20Z"/><path class="cls-2" d="M0,100H200V20A20,20,0,0,0,180,0H20A20,20,0,0,0,0,20Z"/><path class="cls-1" d="M0,100H200v80a20,20,0,0,1-20,20H20A20,20,0,0,1,0,180Z"/><path class="cls-3" d="M50,50H150a0,0,0,0,1,0,0v80a20,20,0,0,1-20,20H70a20,20,0,0,1-20-20V50A0,0,0,0,1,50,50Z"/><circle class="cls-4" cx="100.01" cy="60" r="7.5"/><path class="cls-1" d="M100.49,53l1.32,4.08a.51.51,0,0,0,.48.36h4.32a.51.51,0,0,1,.3.93l-3.48,2.52a.47.47,0,0,0-.18.57l1.32,4.08a.52.52,0,0,1-.81.57l-3.45-2.49a.55.55,0,0,0-.6,0l-3.48,2.52a.52.52,0,0,1-.81-.57l1.32-4.08a.51.51,0,0,0-.18-.57l-3.48-2.52a.51.51,0,0,1,.3-.93h4.29a.51.51,0,0,0,.48-.36L99.47,53A.54.54,0,0,1,100.49,53Z"/><path class="cls-2" d="M134.11,65.75a11.25,11.25,0,0,1,8.56-3.29,1.16,1.16,0,0,1,.73,2L132.8,75a1.16,1.16,0,0,1-2-.73A11.25,11.25,0,0,1,134.11,65.75Z"/><path class="cls-2" d="M120.27,79.58A11.28,11.28,0,0,0,117,88.15a1.17,1.17,0,0,0,2,.73l10.6-10.6a1.17,1.17,0,0,0-.73-2A11.32,11.32,0,0,0,120.27,79.58Z"/><rect class="cls-5" x="129.01" y="76.66" width="4.35" height="42.58" rx="1.16"/><path class="cls-2" d="M142.1,79.58a11.28,11.28,0,0,1,3.29,8.57,1.17,1.17,0,0,1-2,.73l-10.6-10.6a1.17,1.17,0,0,1,.73-2A11.32,11.32,0,0,1,142.1,79.58Z"/><path class="cls-2" d="M128.26,65.75a11.25,11.25,0,0,0-8.56-3.29,1.16,1.16,0,0,0-.73,2L129.57,75a1.16,1.16,0,0,0,2-.73A11.25,11.25,0,0,0,128.26,65.75Z"/><path class="cls-2" d="M141,71a11.27,11.27,0,0,1,8.38,3.73,1.16,1.16,0,0,1-.89,1.92h-15a1.16,1.16,0,0,1-.88-1.92A11.24,11.24,0,0,1,141,71Z"/><path class="cls-2" d="M121.4,71A11.27,11.27,0,0,0,113,74.74a1.16,1.16,0,0,0,.89,1.92h15a1.16,1.16,0,0,0,.88-1.92A11.24,11.24,0,0,0,121.4,71Z"/><circle class="cls-2" cx="131.19" cy="78.05" r="4"/><path class="cls-2" d="M65.91,65.75a11.25,11.25,0,0,0-8.56-3.29,1.16,1.16,0,0,0-.73,2L67.22,75a1.16,1.16,0,0,0,2-.73A11.26,11.26,0,0,0,65.91,65.75Z"/><path class="cls-2" d="M79.75,79.58A11.28,11.28,0,0,1,83,88.15a1.16,1.16,0,0,1-2,.73L70.45,78.28a1.17,1.17,0,0,1,.74-2A11.28,11.28,0,0,1,79.75,79.58Z"/><rect class="cls-5" x="66.66" y="76.66" width="4.35" height="42.58" rx="1.16"/><path class="cls-2" d="M57.93,79.58a11.29,11.29,0,0,0-3.3,8.57,1.17,1.17,0,0,0,2,.73l10.6-10.6a1.17,1.17,0,0,0-.73-2A11.28,11.28,0,0,0,57.93,79.58Z"/><path class="cls-2" d="M71.76,65.75a11.25,11.25,0,0,1,8.56-3.29,1.16,1.16,0,0,1,.74,2L70.45,75a1.16,1.16,0,0,1-2-.73A11.25,11.25,0,0,1,71.76,65.75Z"/><path class="cls-2" d="M59.05,71a11.27,11.27,0,0,0-8.38,3.73,1.16,1.16,0,0,0,.89,1.92h15a1.16,1.16,0,0,0,.89-1.92A11.28,11.28,0,0,0,59.05,71Z"/><path class="cls-2" d="M78.62,71A11.24,11.24,0,0,1,87,74.74a1.16,1.16,0,0,1-.88,1.92h-15a1.16,1.16,0,0,1-.88-1.92A11.24,11.24,0,0,1,78.62,71Z"/><circle class="cls-2" cx="68.84" cy="78.05" r="4"/><path class="cls-2" d="M100,110H75v1.88A12,12,0,0,0,82.55,123l16.5,6.6a2.65,2.65,0,0,0,1.92,0l16.5-6.6A12,12,0,0,0,125,111.88V110Z"/><path class="cls-6" d="M77,70h46a2,2,0,0,1,2,2V90a0,0,0,0,1,0,0H75a0,0,0,0,1,0,0V72A2,2,0,0,1,77,70Z"/><circle class="cls-3" cx="94.54" cy="80" r="3"/><circle class="cls-3" cx="105.56" cy="80" r="3"/><circle class="cls-1" cx="116.59" cy="80" r="3"/><circle class="cls-1" cx="83.52" cy="80" r="3"/><rect class="cls-7" x="75.01" y="90" width="50" height="20"/><path class="cls-1" d="M96.85,110a1.86,1.86,0,0,1-1.77-1.29,20.49,20.49,0,0,1-.92-6.07,19.79,19.79,0,0,1,.94-6.07,1.82,1.82,0,0,1,1.41-1.25,1.87,1.87,0,0,1,.34,0,1.83,1.83,0,0,1,1.43.69,16.77,16.77,0,0,0,6.48,5,1.83,1.83,0,0,1,1.1,1.68,1.85,1.85,0,0,1-1.1,1.69,16.65,16.65,0,0,0-6.45,5,1.64,1.64,0,0,1-.3.29A1.9,1.9,0,0,1,96.85,110Z"/><rect class="cls-5" x="90.01" y="110" width="20" height="4" rx="2"/><path class="cls-2" d="M129.52,139.29a168.13,168.13,0,0,1-59,0,2,2,0,0,1-1.61-2.35l.75-3.93A2,2,0,0,1,72,131.42a159.71,159.71,0,0,0,56.1,0,2,2,0,0,1,2.32,1.59l.75,3.93A2,2,0,0,1,129.52,139.29Z"/></g></svg>