<svg xmlns="http://www.w3.org/2000/svg" viewBox="0 0 200 200"><defs><style>.cls-1{fill:#ffcf44;}.cls-2{fill:#009b43;}.cls-3{fill:#d9251d;}.cls-4{fill:#f0f0f0;}.cls-5{fill:#c6c6c6;}.cls-6{fill:#01a2ce;}.cls-7{fill:#213572;}.cls-8{fill:#b19353;}</style></defs><title>22-rio-grande-do-sul-square-rounded</title><g id="square-rounded"><path class="cls-1" d="M20,200H180a20,20,0,0,0,20-20V100L8,196A19.87,19.87,0,0,0,20,200Z"/><path class="cls-2" d="M180,0H20A20,20,0,0,0,0,20v80L192,4A19.87,19.87,0,0,0,180,0Z"/><path class="cls-3" d="M192,4,0,100v80a20,20,0,0,0,8,16l192-96V20A20,20,0,0,0,192,4Z"/><ellipse class="cls-4" cx="100" cy="100" rx="37.15" ry="46.44"/><path class="cls-5" d="M100,141.63a27.41,27.41,0,0,1-17.92-7,2.89,2.89,0,1,1,3.76-4.38,20.76,20.76,0,0,0,28.32,0,2.89,2.89,0,0,1,3.76,4.38A27.41,27.41,0,0,1,100,141.63Z"/><path class="cls-5" d="M100,85.28h0L77.22,72.65A2.17,2.17,0,0,0,74,74.54V112.8a14.42,14.42,0,0,0,14.42,14.41h23.16A14.42,14.42,0,0,0,126,112.8V74.54a2.17,2.17,0,0,0-3.22-1.89Z"/><path class="cls-2" d="M126,74.55V88.66l-26,14.42L74,88.66V74.55a2.18,2.18,0,0,1,3.22-1.91L100,85.28l22.78-12.64A2.18,2.18,0,0,1,126,74.55Z"/><polygon class="cls-3" points="100 103.08 74 88.66 74 106.45 83.96 111.97 100 120.87 116.04 111.97 126 106.45 126 88.66 100 103.08"/><path class="cls-1" d="M116,112l-16,8.9L84,112l-10-5.52v6.34a14.4,14.4,0,0,0,14.42,14.42h23.16A14.4,14.4,0,0,0,126,112.79v-6.34Z"/><path class="cls-6" d="M100,78.55c-9,0-16.39,9.62-16.39,21.45S91,121.45,100,121.45s16.39-9.62,16.39-21.45S109,78.55,100,78.55Z"/><path class="cls-4" d="M100,82.4c6.8,0,12.54,8.06,12.54,17.6S106.8,117.6,100,117.6,87.46,109.54,87.46,100,93.2,82.4,100,82.4"/><path class="cls-2" d="M100,117.6c4,0,7.66-2.83,10-7.11l-.46-.45a2.52,2.52,0,0,0-3.57,0l-.3.3a2.52,2.52,0,0,1-3.56,0l-.31-.3a2.5,2.5,0,0,0-3.56,0l-.31.3a2.52,2.52,0,0,1-3.56,0l-.3-.3a2.52,2.52,0,0,0-3.57,0l-.46.45C92.34,114.77,96,117.6,100,117.6Z"/><path class="cls-7" d="M101.05,90.71l4.74,8.57a1,1,0,0,1,0,1l-4.74,8.57a1.36,1.36,0,0,1-2.1,0l-4.74-8.57a1,1,0,0,1,0-1L99,90.71A1.36,1.36,0,0,1,101.05,90.71Z"/><rect class="cls-4" x="97.55" y="94.86" width="4.9" height="9.8" rx="1"/><path class="cls-8" d="M107.74,109.3a1.44,1.44,0,0,1-1.44-1.45V91.66a1.44,1.44,0,0,1,2.88,0v16.19A1.45,1.45,0,0,1,107.74,109.3Z"/><path class="cls-8" d="M92.26,109.3a1.45,1.45,0,0,1-1.44-1.45V91.66a1.44,1.44,0,0,1,2.88,0v16.19A1.44,1.44,0,0,1,92.26,109.3Z"/></g></svg>