<svg xmlns="http://www.w3.org/2000/svg" viewBox="0 0 200 200"><defs><style>.cls-1{fill:#213572;}.cls-2{fill:#ffcf44;}.cls-3{fill:#009b43;}.cls-4{fill:#f0f0f0;}</style></defs><title>23-rondonia-square-rounded</title><g id="square-rounded"><path class="cls-1" d="M0,20v80H200V20A20,20,0,0,0,180,0H20A20,20,0,0,0,0,20Z"/><polygon class="cls-2" points="0 170 100 100 0 100 0 170"/><polygon class="cls-2" points="200 170 200 100 100 100 200 170"/><path class="cls-3" d="M200,180V170l-98.28-68.8a3,3,0,0,0-3.44,0L0,170v10a20,20,0,0,0,20,20H180A20,20,0,0,0,200,180Z"/><path class="cls-4" d="M138.85,64.52l-25.07-.44a3,3,0,0,1-2.78-2l-8.16-23.69a3,3,0,0,0-5.68,0L89,62.05a3,3,0,0,1-2.78,2l-25.07.44a3,3,0,0,0-1.75,5.39L79.42,85a3,3,0,0,1,1.06,3.27l-7.32,24a3,3,0,0,0,4.59,3.34L98.28,101.2a3,3,0,0,1,3.44,0l20.53,14.38a3,3,0,0,0,4.59-3.34l-7.32-24A3,3,0,0,1,120.58,85l20-15.09A3,3,0,0,0,138.85,64.52Z"/></g></svg>