<svg xmlns="http://www.w3.org/2000/svg" viewBox="0 0 200 200"><defs><style>.cls-1{fill:#01a2ce;}.cls-2{fill:#009b43;}.cls-3{fill:#f0f0f0;}.cls-4{fill:#d9251d;}.cls-5{fill:#f8c300;}.cls-6{fill:none;}</style></defs><title>24-roraima-square-rounded</title><g id="square-rounded"><path class="cls-1" d="M20,0H129.29L0,129.29V20A20,20,0,0,1,20,0Z"/><path class="cls-2" d="M200,180a20,20,0,0,1-20,20H70.71L200,70.71Z"/><path class="cls-3" d="M180,0a20,20,0,0,1,20,20V70.71L70.71,200H20A20,20,0,0,1,0,180V129.29L129.29,0Z"/><rect class="cls-4" y="162.54" width="200" height="15"/><path class="cls-5" d="M103.58,32.47l13.21,40.67a3.88,3.88,0,0,0,3.69,2.68H162.9a3.87,3.87,0,0,1,2.28,7l-34.32,24.93a3.9,3.9,0,0,0-1.41,4.34l13.11,40.34a3.88,3.88,0,0,1-6,4.34l-34.31-24.93a3.87,3.87,0,0,0-4.56,0L63.4,156.78a3.88,3.88,0,0,1-6-4.34l13.1-40.34a3.86,3.86,0,0,0-1.41-4.33L34.82,82.83a3.87,3.87,0,0,1,2.28-7H79.51a3.88,3.88,0,0,0,3.69-2.68L96.42,32.47a3.76,3.76,0,0,1,7.16,0"/><circle class="cls-6" cx="100" cy="100.13" r="70"/></g></svg>