<svg xmlns="http://www.w3.org/2000/svg" viewBox="0 0 200 200"><defs><style>.cls-1{fill:#d9251d;}.cls-2,.cls-8{fill:#f0f0f0;}.cls-3{fill:#a6ce39;}.cls-4{fill:none;}.cls-5{fill:#009b43;}.cls-6{fill:#7b5e4c;}.cls-7{fill:#f8c300;}.cls-8{stroke:#c6c6c6;stroke-miterlimit:10;stroke-width:2px;}</style></defs><title>25-santa-catarina-square-rounded</title><g id="square-rounded"><path class="cls-1" d="M0,133.33H200a0,0,0,0,1,0,0V180a20,20,0,0,1-20,20H20A20,20,0,0,1,0,180V133.33A0,0,0,0,1,0,133.33Z"/><path class="cls-1" d="M20,0H180a20,20,0,0,1,20,20V66.67a0,0,0,0,1,0,0H0a0,0,0,0,1,0,0V20A20,20,0,0,1,20,0Z"/><rect class="cls-2" y="66.67" width="200" height="66.67"/><path class="cls-3" d="M98.89,155.89,11,101.81a2.12,2.12,0,0,1,0-3.62L98.89,44.11a2.11,2.11,0,0,1,2.22,0L189,98.19a2.12,2.12,0,0,1,0,3.62l-87.88,54.08A2.11,2.11,0,0,1,98.89,155.89Z"/><path class="cls-2" d="M101.45,72.71l5.34,16.44a1.57,1.57,0,0,0,1.49,1.08h17.14a1.57,1.57,0,0,1,.92,2.83l-13.87,10.08a1.56,1.56,0,0,0-.57,1.75l5.3,16.3a1.57,1.57,0,0,1-2.41,1.75l-13.87-10.07a1.56,1.56,0,0,0-1.84,0L85.21,122.94a1.57,1.57,0,0,1-2.41-1.75l5.3-16.3a1.56,1.56,0,0,0-.57-1.75L73.66,93.06a1.56,1.56,0,0,1,.92-2.83H91.72a1.57,1.57,0,0,0,1.49-1.08l5.34-16.44a1.53,1.53,0,0,1,2.9,0"/><circle class="cls-4" cx="100" cy="100.05" r="28.29"/><path class="cls-5" d="M113.83,67.49h0a3,3,0,0,1,1.79-1.68,3.19,3.19,0,0,1,2.58.25,34.36,34.36,0,0,1,3,1.77A3.21,3.21,0,0,1,122.62,70a2.94,2.94,0,0,1-.61,2.35,3.49,3.49,0,0,1-2.1,1.24,3.18,3.18,0,0,1-2.23-.44,26.31,26.31,0,0,0-2.49-1.48,3.15,3.15,0,0,1-1.44-1.77A3.3,3.3,0,0,1,113.83,67.49Z"/><path class="cls-5" d="M125.18,75.23h0a3,3,0,0,1,2.29-.87,3.12,3.12,0,0,1,2.29,1.21c.36.45.76.87,1.09,1.35l1,1.42a3.15,3.15,0,0,1,.51,2.54,2.93,2.93,0,0,1-1.47,2h0a3.43,3.43,0,0,1-2.41.35,3.25,3.25,0,0,1-1.89-1.25l-.83-1.19c-.27-.4-.61-.75-.91-1.13a3.18,3.18,0,0,1-.66-2.18A3.3,3.3,0,0,1,125.18,75.23Z"/><path class="cls-5" d="M132.74,86.7h0a3,3,0,0,1,2.44.07,3.42,3.42,0,0,1,1,.79,3.47,3.47,0,0,1,.62,1.21l.5,1.66.36,1.7a3.48,3.48,0,0,1,0,1.36,3.15,3.15,0,0,1-.52,1.18,3,3,0,0,1-2.12,1.25,3.46,3.46,0,0,1-2.34-.61,3.32,3.32,0,0,1-.8-.83,2.63,2.63,0,0,1-.48-1.06l-.3-1.41-.41-1.39a2.68,2.68,0,0,1-.09-1.16,3.06,3.06,0,0,1,.3-1.1A3.47,3.47,0,0,1,132.74,86.7Z"/><path class="cls-5" d="M135.35,100.19h0a3.12,3.12,0,0,1,3,3.48c-.12,1.15-.32,2.29-.49,3.43a3.76,3.76,0,0,1-.17.68,4.36,4.36,0,0,1-.35.59,3.15,3.15,0,0,1-.93.89,2.91,2.91,0,0,1-2.41.35,3.4,3.4,0,0,1-1.95-1.46,3,3,0,0,1-.43-1.06,2.73,2.73,0,0,1,0-.57,2.94,2.94,0,0,1,0-.59c.13-1,.32-1.9.42-2.86A3.26,3.26,0,0,1,135.35,100.19Z"/><path class="cls-5" d="M132.61,113.66a3.1,3.1,0,0,1,1.44,4.37c-.53,1-1.17,2-1.76,3a2.65,2.65,0,0,1-1,1,3.17,3.17,0,0,1-1.2.47,2.91,2.91,0,0,1-2.36-.6h0a3.44,3.44,0,0,1-1.24-2.09,3,3,0,0,1,0-1.15,4.1,4.1,0,0,1,.42-1.08c.49-.83,1-1.63,1.48-2.49A3.3,3.3,0,0,1,132.61,113.66Z"/><path class="cls-5" d="M86.17,67.49a3.3,3.3,0,0,1,.08,2.41,3.19,3.19,0,0,1-1.44,1.77,27.2,27.2,0,0,0-2.49,1.48,3.19,3.19,0,0,1-2.23.44A3.49,3.49,0,0,1,78,72.35h0A2.93,2.93,0,0,1,77.38,70a3.21,3.21,0,0,1,1.44-2.17,34.36,34.36,0,0,1,3-1.77,3.19,3.19,0,0,1,2.58-.25A3,3,0,0,1,86.17,67.49Z"/><path class="cls-5" d="M74.82,75.23h0a3.37,3.37,0,0,1,1,2.2,3.18,3.18,0,0,1-.66,2.18c-.3.38-.64.73-.91,1.13l-.83,1.19a3.25,3.25,0,0,1-1.89,1.25,3.48,3.48,0,0,1-2.41-.34h0a3,3,0,0,1-1.47-2,3.16,3.16,0,0,1,.51-2.55l1-1.42c.33-.47.73-.9,1.08-1.35a3.16,3.16,0,0,1,2.3-1.21A3,3,0,0,1,74.82,75.23Z"/><path class="cls-5" d="M67.26,86.7h0A3.47,3.47,0,0,1,69,88.36a3.11,3.11,0,0,1,.3,1.1,2.68,2.68,0,0,1-.09,1.16L68.83,92l-.3,1.42a2.65,2.65,0,0,1-.48,1,3.32,3.32,0,0,1-.8.83,3.41,3.41,0,0,1-2.34.61h0a3,3,0,0,1-2.12-1.25,3.15,3.15,0,0,1-.52-1.18,3.48,3.48,0,0,1,0-1.36l.36-1.7.5-1.66a3.47,3.47,0,0,1,.62-1.21,3.31,3.31,0,0,1,1-.78A3,3,0,0,1,67.26,86.7Z"/><path class="cls-5" d="M64.65,100.19h0A3.26,3.26,0,0,1,68,103.07c.1,1,.29,1.91.42,2.86a2.94,2.94,0,0,1,0,.59,2.73,2.73,0,0,1,0,.57,3.17,3.17,0,0,1-.43,1.07,3.42,3.42,0,0,1-2,1.45h0a2.91,2.91,0,0,1-2.41-.35,3.15,3.15,0,0,1-.93-.89,3.82,3.82,0,0,1-.35-.59,3.76,3.76,0,0,1-.17-.68c-.17-1.14-.37-2.28-.49-3.43A3.12,3.12,0,0,1,64.65,100.19Z"/><path class="cls-5" d="M67.39,113.66h0A3.3,3.3,0,0,1,71.57,115c.45.86,1,1.66,1.48,2.49a4.1,4.1,0,0,1,.42,1.08,3,3,0,0,1,0,1.15,3.44,3.44,0,0,1-1.24,2.09h0a2.91,2.91,0,0,1-2.36.6,3.17,3.17,0,0,1-1.2-.47,2.65,2.65,0,0,1-1-1c-.59-1-1.23-2-1.76-3A3.1,3.1,0,0,1,67.39,113.66Z"/><path class="cls-2" d="M101.45,72.71l5.34,16.44a1.57,1.57,0,0,0,1.49,1.08h17.14a1.57,1.57,0,0,1,.92,2.83l-13.87,10.08a1.56,1.56,0,0,0-.57,1.75l5.3,16.3a1.57,1.57,0,0,1-2.41,1.75l-13.87-10.07a1.56,1.56,0,0,0-1.84,0L85.21,122.94a1.57,1.57,0,0,1-2.41-1.75l5.3-16.3a1.56,1.56,0,0,0-.57-1.75L73.66,93.06a1.56,1.56,0,0,1,.92-2.83H91.72a1.57,1.57,0,0,0,1.49-1.08l5.34-16.44a1.53,1.53,0,0,1,2.9,0"/><path class="cls-1" d="M78.41,138.12,76,134.24a2.29,2.29,0,0,1,.88-3.25c6.42-3.33,26.05-11.51,46.4,0a2.3,2.3,0,0,1,.8,3.22l-2.44,3.87a2.3,2.3,0,0,1-3.06.77c-16.17-9-31.9-2.58-37.16.11A2.29,2.29,0,0,1,78.41,138.12Z"/><path class="cls-6" d="M101.86,82.55H98.14a.32.32,0,0,0-.31.26l-1.31,7.85a.32.32,0,0,0,.31.37h6.33a.31.31,0,0,0,.31-.37l-1.31-7.85A.3.3,0,0,0,101.86,82.55Z"/><path class="cls-6" d="M97.69,82.55h.55a0,0,0,0,1,0,0v3.54a0,0,0,0,1,0,0h-3a.55.55,0,0,1-.55-.55v0A3,3,0,0,1,97.69,82.55Z"/><path class="cls-6" d="M104.76,82.55h.55a0,0,0,0,1,0,0v3.54a0,0,0,0,1,0,0h-3a.55.55,0,0,1-.55-.55v0A3,3,0,0,1,104.76,82.55Z" transform="translate(207.07 168.64) rotate(180)"/><path class="cls-6" d="M126,84H109.87a2.51,2.51,0,0,0-2.29,1.54,8.27,8.27,0,0,1-15.16,0A2.53,2.53,0,0,0,90.13,84H81.89l-7.31-.11a1.57,1.57,0,0,0-.92,2.84l8.2,6a21.53,21.53,0,0,0,12.68,4.12H94.4l.59,4.65a1.09,1.09,0,0,0,1.08,1h1.66a1.09,1.09,0,0,0,1.06-.82l.8-3.14a.42.42,0,0,1,.82,0l.8,3.14a1.09,1.09,0,0,0,1.06.82h1.66a1.09,1.09,0,0,0,1.08-1l.59-4.65h-.14a21.53,21.53,0,0,0,12.68-4.12l8.2-6A1.57,1.57,0,0,0,126,84Z"/><path class="cls-7" d="M91.27,112.75a1.42,1.42,0,0,1-.54-2.73l17.47-7.11a1.42,1.42,0,0,1,1.84.78,1.4,1.4,0,0,1-.77,1.84L91.8,112.64A1.48,1.48,0,0,1,91.27,112.75Z"/><path class="cls-7" d="M108.73,112.75a1.48,1.48,0,0,1-.53-.11l-17.47-7.11a1.4,1.4,0,0,1-.77-1.84,1.42,1.42,0,0,1,1.84-.78L109.27,110a1.42,1.42,0,0,1-.54,2.73Z"/><path class="cls-8" d="M96.61,90.26h6.79a.85.85,0,0,1,.85.85V94.5A4.24,4.24,0,0,1,100,98.74h0a4.24,4.24,0,0,1-4.24-4.24V91.1a.85.85,0,0,1,.85-.85Z"/><path class="cls-1" d="M105.31,75a1.06,1.06,0,0,0,1-1.39l-2.18-6.72a4.35,4.35,0,0,0-4.14-3H93.47A2.14,2.14,0,0,0,91.58,65a2.06,2.06,0,0,0,.59,2.65l2.8,2-1.29,4a1.06,1.06,0,0,0,1,1.39Z"/></g></svg>