<svg id="full" xmlns="http://www.w3.org/2000/svg" viewBox="0 0 300 200"><defs><style>.cls-1{fill:#009b43;}.cls-2{fill:#ffcf44;}.cls-3{fill:#213572;}.cls-4{fill:#f0f0f0;}</style></defs><title>01-brasil-full</title><rect class="cls-1" width="300" height="200"/><path class="cls-2" d="M148.43,179,24.15,102.55a3,3,0,0,1,0-5.1L148.43,21a3,3,0,0,1,3.14,0L275.85,97.45a3,3,0,0,1,0,5.1L151.57,179A3,3,0,0,1,148.43,179Z"/><path class="cls-3" d="M121.92,86.44a111.14,111.14,0,0,0-20.54,1.92,50,50,0,0,0,96.7,25.35c-.25.88-.52,1.74-.82,2.6A109.57,109.57,0,0,0,121.92,86.44Z"/><path class="cls-3" d="M199.73,105.17A49,49,0,0,0,200,100a50,50,0,0,0-94.7-22.4,119.72,119.72,0,0,1,94.43,27.57Z"/><path class="cls-4" d="M198.74,111.12c0-.14.07-.28.1-.42.16-.75.31-1.5.44-2.26l.09-.53c.14-.88.26-1.78.36-2.68v-.06A119.72,119.72,0,0,0,105.3,77.6h0a49.47,49.47,0,0,0-3.92,10.75h0a111.14,111.14,0,0,1,20.54-1.92,109.57,109.57,0,0,1,75.34,29.87c.3-.86.57-1.72.82-2.6l.06-.19Q198.47,112.32,198.74,111.12Z"/></svg>