<svg id="full" xmlns="http://www.w3.org/2000/svg" viewBox="0 0 300 200"><defs><style>.cls-1{fill:#009b43;}.cls-2{fill:#ffcf44;}.cls-3{fill:#213572;}.cls-4{fill:#f0f0f0;}</style></defs><title>04-amapa-full</title><path class="cls-1" d="M64.32,64.32,0,0V200l64.32-64.32A8,8,0,0,1,70,133.33H300V200h0V66.67H70A8,8,0,0,1,64.32,64.32Z"/><rect class="cls-2" y="200" width="300"/><path class="cls-2" d="M70,133.33a8,8,0,0,0-5.66,2.35L0,200H300V133.33Z"/><path class="cls-3" d="M64.32,64.32A8,8,0,0,0,70,66.67H300V0H0Z"/><path class="cls-4" d="M39.19,77.83,19.85,97.17a4,4,0,0,0,0,5.66l19.34,19.34a4,4,0,0,0,5.66,0l19.34-19.34a4,4,0,0,0,0-5.66L44.85,77.83A4,4,0,0,0,39.19,77.83Z"/><rect class="cls-1" x="34.34" y="92.32" width="15.36" height="15.36" rx="2" transform="translate(-58.4 59.01) rotate(-45)"/><path class="cls-4" d="M0,0V7.07L62.25,69.32a8,8,0,0,0,5.66,2.35H300v-10H72.05a8,8,0,0,1-5.65-2.35L7.07,0Z"/><path class="cls-4" d="M62.25,130.68,0,192.93V200H7.07l59.32-59.32a8,8,0,0,1,5.66-2.35H300v-10H67.91A8,8,0,0,0,62.25,130.68Z"/></svg>