<svg id="full" xmlns="http://www.w3.org/2000/svg" viewBox="0 0 300 200"><defs><style>.cls-1{fill:#d9251d;}.cls-2{fill:#f0f0f0;}.cls-3{fill:#213572;}</style></defs><title>06-bahia-full</title><rect class="cls-1" y="100" width="300" height="50"/><rect class="cls-2" y="150" width="300" height="50"/><rect class="cls-1" x="100" width="200" height="50"/><rect class="cls-2" x="100" y="50" width="200" height="50"/><rect class="cls-3" width="100" height="100"/><path class="cls-2" d="M45.79,16.43,12.14,74.71A4.86,4.86,0,0,0,16.35,82h67.3a4.86,4.86,0,0,0,4.21-7.29L54.21,16.43a4.86,4.86,0,0,0-8.42,0L12.14,74.71A4.86,4.86,0,0,0,16.35,82h67.3a4.86,4.86,0,0,0,4.21-7.29L54.21,16.43A4.86,4.86,0,0,0,45.79,16.43Z"/></svg>