<svg id="full" xmlns="http://www.w3.org/2000/svg" viewBox="0 0 300 200"><defs><style>.cls-1{fill:#d9251d;}.cls-2{fill:#f0f0f0;}.cls-3{fill:#213572;}.cls-4{fill:none;}</style></defs><title>15-para-full</title><polygon class="cls-1" points="300 0 64.9 0 300 156.73 300 0"/><polygon class="cls-1" points="0 200 235.1 200 0 43.27 0 200"/><polygon class="cls-2" points="64.9 0 0 0 0 43.27 235.1 200 300 200 300 156.73 64.9 0"/><path class="cls-3" d="M151.53,71.06l5.67,17.43a1.67,1.67,0,0,0,1.58,1.15H177a1.66,1.66,0,0,1,1,3l-14.7,10.69a1.66,1.66,0,0,0-.61,1.86l5.62,17.29a1.66,1.66,0,0,1-2.56,1.85L151,113.65a1.68,1.68,0,0,0-2,0l-14.7,10.68a1.66,1.66,0,0,1-2.56-1.86l5.62-17.28a1.67,1.67,0,0,0-.61-1.86L122.06,92.64a1.66,1.66,0,0,1,1-3h18.18a1.67,1.67,0,0,0,1.58-1.15l5.67-17.43a1.61,1.61,0,0,1,3.06,0"/><circle class="cls-4" cx="150" cy="100.06" r="30"/></svg>