<svg id="full" xmlns="http://www.w3.org/2000/svg" viewBox="0 0 300 200"><defs><style>.cls-1{fill:#009b43;}.cls-2{fill:#f0f0f0;}.cls-3{fill:#213572;}</style></defs><title>17-parana-full</title><polygon class="cls-1" points="300 0 90.14 0 300 139.91 300 0"/><polygon class="cls-1" points="0 200 209.86 200 0 60.09 0 200"/><polygon class="cls-2" points="300 139.91 90.14 0 0 0 0 60.09 209.86 200 300 200 300 139.91"/><path class="cls-3" d="M190,101.46c0-.49,0-1,0-1.46a40,40,0,0,0-75-19.35c2.44-.14,4.72-.21,6.93-.21A120.11,120.11,0,0,1,190,101.46Z"/><path class="cls-3" d="M121.92,92.44c-3.63,0-7.34.19-11,.56h-.1a1,1,0,0,1-.17,0,40,40,0,0,0,76.75,21.26.85.85,0,0,1-.25-.13A108.09,108.09,0,0,0,121.92,92.44Z"/></svg>