<svg id="full" xmlns="http://www.w3.org/2000/svg" viewBox="0 0 300 200"><defs><style>.cls-1{fill:#ffcf44;}.cls-2{fill:#009b43;}.cls-3{fill:#213572;}.cls-4{fill:#f0f0f0;}.cls-5{fill:none;}</style></defs><title>19-piaui-full</title><rect class="cls-1" y="100" width="300" height="20"/><rect class="cls-1" x="100" y="60" width="200" height="20"/><rect class="cls-1" x="100" y="20" width="200" height="20"/><rect class="cls-1" y="140" width="300" height="20"/><rect class="cls-1" y="180" width="300" height="20"/><rect class="cls-2" y="120" width="300" height="20"/><rect class="cls-2" x="100" y="80" width="200" height="20"/><rect class="cls-2" x="100" y="40" width="200" height="20"/><rect class="cls-2" y="160" width="300" height="20"/><rect class="cls-2" x="100" width="200" height="20"/><rect class="cls-3" width="100" height="100"/><path class="cls-4" d="M51.53,21.06,57.2,38.49a1.67,1.67,0,0,0,1.58,1.15H77a1.66,1.66,0,0,1,1,3L63.23,53.33a1.66,1.66,0,0,0-.61,1.86l5.62,17.29a1.66,1.66,0,0,1-2.56,1.85L51,63.65a1.68,1.68,0,0,0-2,0L34.32,74.33a1.66,1.66,0,0,1-2.56-1.86l5.62-17.28a1.67,1.67,0,0,0-.61-1.86L22.06,42.64a1.66,1.66,0,0,1,1-3H41.22a1.67,1.67,0,0,0,1.58-1.15l5.67-17.43a1.61,1.61,0,0,1,3.06,0"/><circle class="cls-5" cx="50" cy="50.06" r="30"/></svg>