<svg id="full" xmlns="http://www.w3.org/2000/svg" viewBox="0 0 300 200"><defs><style>.cls-1{fill:#213572;}.cls-2{fill:#ffcf44;}.cls-3{fill:#009b43;}.cls-4{fill:#f0f0f0;}</style></defs><title>23-rondonia-full</title><rect class="cls-1" width="300" height="100"/><rect class="cls-2" y="100" width="300" height="100"/><path class="cls-3" d="M7.14,200l141.14-98.8a3,3,0,0,1,3.44,0L292.86,200Z"/><path class="cls-4" d="M188.85,64.52l-25.07-.44a3,3,0,0,1-2.78-2l-8.16-23.69a3,3,0,0,0-5.68,0L139,62.05a3,3,0,0,1-2.78,2l-25.07.44a3,3,0,0,0-1.75,5.39l20,15.09a3,3,0,0,1,1.06,3.27l-7.32,24a3,3,0,0,0,4.59,3.34l20.53-14.38a3,3,0,0,1,3.44,0l20.53,14.38a3,3,0,0,0,4.59-3.34l-7.32-24A3,3,0,0,1,170.58,85l20-15.09A3,3,0,0,0,188.85,64.52Z"/></svg>