<svg id="full" xmlns="http://www.w3.org/2000/svg" viewBox="0 0 300 200"><defs><style>.cls-1{fill:#01a2ce;}.cls-2{fill:#009b43;}.cls-3{fill:#f0f0f0;}.cls-4{fill:#d9251d;}.cls-5{fill:#f8c300;}.cls-6{fill:none;}</style></defs><title>24-roraima-full</title><polygon class="cls-1" points="0 0 0 139.91 209.86 0 0 0"/><polygon class="cls-2" points="300 200 300 60.09 90.14 200 300 200"/><polygon class="cls-3" points="209.86 0 0 139.91 0 200 90.14 200 300 60.09 300 0 209.86 0"/><rect class="cls-4" y="162.54" width="300" height="15"/><path class="cls-5" d="M153.58,32.47l13.21,40.67a3.88,3.88,0,0,0,3.69,2.68H212.9a3.87,3.87,0,0,1,2.28,7l-34.32,24.93a3.9,3.9,0,0,0-1.41,4.34l13.11,40.34a3.88,3.88,0,0,1-6,4.34l-34.31-24.93a3.87,3.87,0,0,0-4.56,0L113.4,156.78a3.88,3.88,0,0,1-6-4.34l13.1-40.34a3.86,3.86,0,0,0-1.41-4.33L84.82,82.83a3.87,3.87,0,0,1,2.28-7h42.41a3.88,3.88,0,0,0,3.69-2.68l13.22-40.67a3.76,3.76,0,0,1,7.16,0"/><circle class="cls-6" cx="150" cy="100.13" r="70"/></svg>