<svg id="full" xmlns="http://www.w3.org/2000/svg" viewBox="0 0 300 200"><defs><style>.cls-1{fill:#ef9926;}.cls-2{fill:#213572;}.cls-3{fill:#f0f0f0;}</style></defs><title>28-tocantins-full</title><polygon class="cls-1" points="300 200 300 60.09 90.14 200 300 200"/><polygon class="cls-2" points="0 0 0 139.91 209.86 0 0 0"/><polygon class="cls-3" points="209.86 0 0 139.91 0 200 90.14 200 300 60.09 300 0 209.86 0"/><path class="cls-1" d="M194.8,97H181.6a2,2,0,0,1-2-1.68,30,30,0,0,0-5.39-13,2,2,0,0,1,.22-2.56l9.33-9.34a3.12,3.12,0,0,0,.23-4.28,3,3,0,0,0-4.33-.1l-9.48,9.47a2,2,0,0,1-2.56.22,30,30,0,0,0-13-5.39,2,2,0,0,1-1.68-2V55.11a3,3,0,0,0-2.05-3A3,3,0,0,0,147,55V68.4a2,2,0,0,1-1.68,2,30,30,0,0,0-13,5.39,2,2,0,0,1-2.56-.22l-9.48-9.47a3,3,0,0,0-4.81.77,3.08,3.08,0,0,0,.65,3.55l9.39,9.4a2,2,0,0,1,.22,2.56,30,30,0,0,0-5.39,13,2,2,0,0,1-2,1.68H105.2a3.14,3.14,0,0,0-3.2,2.87,3,3,0,0,0,3,3.13h13.4a2,2,0,0,1,2,1.68,30,30,0,0,0,5.39,13,2,2,0,0,1-.22,2.56l-9.47,9.48a3,3,0,0,0,0,4.24,3,3,0,0,0,4.24,0l9.48-9.47a2,2,0,0,1,2.56-.22,30,30,0,0,0,13,5.39,2,2,0,0,1,1.68,2v13.2a3.14,3.14,0,0,0,2.87,3.2,3,3,0,0,0,3.13-3V131.6a2,2,0,0,1,1.68-2,30,30,0,0,0,13-5.39,2,2,0,0,1,2.56.22l9.48,9.47a3,3,0,0,0,4.24,0,3,3,0,0,0,0-4.24l-9.47-9.48a2,2,0,0,1-.22-2.56,30,30,0,0,0,5.39-13,2,2,0,0,1,2-1.68H195a3,3,0,0,0,3-3.13A3.14,3.14,0,0,0,194.8,97Z"/></svg>